<svg xmlns="http://www.w3.org/2000/svg" viewBox="0 0 1200 1200"><style><![CDATA[.M{stroke-linecap:round}.N{stroke:#000}.O{stroke-linejoin:round}.P{stroke-width:2.5}.Q{stroke-miterlimit:10}]]></style><defs><pattern id="A" width="12" height="12" patternUnits="userSpaceOnUse" viewBox="0 0 12 12"><path d="M0 0h12v12H0z" fill="none"/><g fill="#949494"><circle cx="12" cy="9" r="2"/><circle cx="6" cy="12" r="2"/><circle cy="9" r="2"/><circle cx="12" cy="3" r="2"/><circle cx="6" cy="6" r="2"/><circle cy="3" r="2"/><circle cx="6" r="2"/></g></pattern></defs><g fill="url(#A)"><path d="M734.88 659.78c-8.5-10.94-24-88-2.14-127.78-6.63 5.74-7.72 5.5-7.72 5.5l-11.1-4.2-10.12 11.58-2 7.1-2.3 15.1-2 14.17-1.9 13.62-1.6 15.17-.42 16.22v12.05l2.17 5.38 10 5.84 13 3.8z"/><path d="M838.6 589.76c-.6-4.7-1.1-30.26 21.68-53.8-1.24-6.2-3.47-14.44-3.47-14.44l3.7-3.18-.62-4.35-4.67-12.32-6.3-11.66-9-13.14-6.68-7.64-6.83-9.7-5.76-3 3.07 4.8 7.6 21.77 3.46 26.3L834 532l-1.8 23.53-3.4 21.68 2.4 4.1z"/></g><path d="M746.55 449.12a64.69 64.69 0 0 1 5.58-4.73v-27.27c-7.4-.8-14.62-2.62-23.63-2.62-27.84 0-56.9 27-87 27-41.23 0-45-39-45-51 0-35.88 26.1-34.52 46-43 19.16-8.17 36-18 51-18 28.58 0 27.9 10 56 10a25.46 25.46 0 0 0 2.63-.15V164H199v553.12h553.1v-59.74c-27.4-1.75-54.34-7.17-58.23-16.65-1.3-10 .28-52.2 9.36-95.85l-51.2 55.83c-7.17 8.87-24.62 51.58-28.7 78.36-2.58 17.16-14.5 17.93-19.23 17.93s-11.33-8.87-11.33-14.54c0-10.57 12.33-29.92 17.2-46.47 3.76-12.8 7.36-40.58 18.12-63.62 9.26-19.82 40.58-53.12 51.1-64.38h0a8.51 8.51 0 0 1-2-4.67c-.04-9.5 49.72-62.84 69.37-54.2z" fill="#f8f8f8"/><path d="M754.1 925.16c-161.76 0-292.9 24.93-292.9 55.7s131.14 55.68 292.9 55.68 292.9-24.93 292.9-55.68-131.13-55.7-292.9-55.7zm-158.34 51.7l-15.2-24.57L590.4 939l17.6 9 .1 12.62 6.4 7h15.65l6 9.22zm326.5-1.85H862v-20l19-1 41.26 12.3z" fill="#efefef"/><g fill="none" class="M O"><path d="M542.96 221.42v154.2h54.02" stroke="#efefef" stroke-width="5"/><path d="M862 955v20.03h60.26v-8.72L881 954m-273-6l.1 12.62 6.4 7h15.65l6 9.22H595.8l-15.2-24.57 9.8-13.27" stroke-width="2" class="N"/></g><path d="M810.56 653.5s75.52 113 82.1 137.43-9.5 164.38-9.5 164.38h-22.28s-16.8-100.82-12.06-136.26C832 808.84 759 762.43 753.1 738.5"/><path d="M693.9 640.73L676 802l-86.9 136.15 19 12.42L736.68 810.3l73.88-156.8C797 658 718 666 693.9 640.73z"/><path d="M515.76 710.35h178.6v95.36h-178.6z" fill="#bcbcbc"/><g fill="none"><g class="Q"><path d="M620.1 688.8a27.06 27.06 0 1 1-26.4-2.09" stroke="#bcbcbc" stroke-width="9"/><g class="N P"><path d="M679.18 508c-10.52 11.26-41.84 44.56-51.1 64.38-10.76 23-14.36 50.82-18.12 63.62-4.86 16.55-17.2 35.9-17.2 46.47 0 5.67 6.6 14.54 11.33 14.54s16.65-.78 19.26-17.94c4.08-26.78 21.53-69.5 28.7-78.36 6-7.4 47-50.85 62-67.74m102.2-81.67c21.1 13.72 49.22 62.77 43.2 68.37-3.37 3.14-14.07 8.27-25.42 12.34"/><path d="M803.24 440.75c59.52 32.37 17.22 179.32 7.32 212.76-19 8.6-109.27 5.2-116.66-12.78-1.3-10 .28-52.2 9.36-95.85" class="M"/><path d="M746.07 448.9c8-7.36 17.06-12.25 27.43-13.72"/></g></g><path d="M791.17 429.66a19.61 19.61 0 0 0 3.6.34c16.18 0 29.3-20.54 29.3-45.88a70 70 0 0 0-1.45-14.28m-7.8-4.14a11.83 11.83 0 0 0 3.67-8.19c1.54 2.7 3.75 10.1 4.12 12.34 1.73-2.25 5.12-6 5.12-12.8 0-13.8-10.84-25.53-34.24-25.53-10 0-34 8-44 8-28.1 0-27.42-10-56-10-15 0-31.84 9.83-51 18-19.9 8.48-46 7.12-46 43 0 12 3.77 51 45 51 30.1 0 59.16-27 87-27 11.56 0 20.16 3 30 3 6 0 13-1 15-3v-17s-1.3 1-6 1c-1.67 0-3.34-1.4-3.85-4.2" class="M O N P"/><path d="M747.73 449.72c17.76 10.87-11.7 89.56-21.62 88s-49-24.7-49-34.4 51.9-65.06 70.62-53.6zm81.1 127.14c2.34 4.7 5.22 9.3 7.8 11.37 31.55 25.3 91.05 53.38 95.18 55 2.58 1 6.9 4.36 9.75 6.72a12.24 12.24 0 1 0 12-16.37c-2-.6-5.9-1.8-13.2-5.76s-66-51.88-76.2-57.3c.18-15.26-4.73-41-7.16-49" class="Q N P"/><g stroke="#efefef" stroke-width="5" class="O"><path d="M412.06 227.53a106.6 106.6 0 1 1-55.95-15.85v106.6z"/><path d="M356.1 318.27h106.6m80.3-20.35c2.5 0 10.85-24.46 27.68-24.46 14.85 0 7.5 50.9 37.9 50.9 24.32 0 30.83-33.37 40.3-33.37 4.95 0 4.67 3.68 9.62 3.68 12 0 13.7-48.36 30.82-48.36M260.87 663.2l61.72-61.72 32.63 32.62 127.45-127.45 24.1 24.1 68.47-68.48 46.65 46.65 83.56-83.56" class="M"/></g><g class="N P M"><path d="M773.5 435.2v18.3c0 2 8.6 2.8 12.3 2.8m-12.3-41.8v20.7" class="O"/><path d="M802.92 428.8v11.7" class="Q"/></g></g></svg>