<svg xmlns="http://www.w3.org/2000/svg" xmlns:xlink="http://www.w3.org/1999/xlink" viewBox="0 0 1000 1000"><style><![CDATA[.O{stroke:#000}.P{stroke-linejoin:round}.Q{stroke-miterlimit:10}.R{stroke-linecap:round}.S{stroke-width:1.075}]]></style><pattern width="33" height="22" patternUnits="userSpaceOnUse" id="A" viewBox="4.8 -26.8 33 22" overflow="visible"><g fill="#ddd"><circle cx="37.8" cy="-4.8" r="4.8"/><circle cx="4.8" cy="-4.8" r="4.8"/><circle cx="37.8" cy="-26.8" r="4.8"/><circle cx="21.3" cy="-15.8" r="4.8"/><circle cx="4.8" cy="-26.8" r="4.8"/></g></pattern><path d="M794.5 543.5c-2.2-5.6-7.2-53-.9-97.4-8.9-4.7-22.1-13.1-24.7-19.9.7-14 34-50 48.4-44.5l.1.1c4.9-5.6 10.5-10 17.2-12.8l1-15.4-2.6-2.1-3.3-3.3-2.3-4.5-.5-3v-5.3l-1.3-1.6-3.7-3.8-.9-1.8 3.1-6.2 6.9-13.1 2.8-5.9s-25.9-20.8-22.3-33.5c.9-3.1 3.6-6.4 3.6-6.4-.2 1.8-3.5 11.9 15.9 21.3.9.3 3.4 1.1 6.7 2.1V43H109.9v665.4c13.1-20.2 26.6-39.1 26.6-72.6 0-11.5-1.5-24.2-1.5-29.2 0-17.8 18.2-29.3 31.1-29.3 10.2 0 17.7 4.6 22.8 11.1-5 1-8.7 5.4-8.7 10.7a10.93 10.93 0 0 0 10.9 10.9c2.1 0 4-.6 5.6-1.6a37.08 37.08 0 0 1 .3 4.7c0 17.1-10.1 52.3-10.1 55.5s2 6.8 5.3 6.8c14.7 0 27.9-35.4 40.1-35.4s14.9 10 14.9 17.6c0 53.5-48.2 78.1-62.7 100.5-.3.5-.8 1.2-1.4 2.2h654.6V551.9c-20.7 1-40.1-.6-43.2-8.4z" fill="#f3f3f3"/><path d="M507.2 332.4h290.9v339.9H507.2z" fill="#fff"/><path d="M812.6 277.5H486.9v15.2h336.3c-4.2-4.6-8.6-10.1-10.6-15.2zm8.1 0c2.4 2.3 5.8 4.6 10.6 6.9 2.3.7 15.9 4.9 24.5 8.3h30.4v-15.2h-65.5zM109.9 43h727.7v54.6H109.9z" fill="#e1e1e1"/><circle cx="148.3" cy="71" r="8.6"/><circle cx="176" cy="71" r="8.6"/><circle cx="203.7" cy="71" r="8.6"/><path d="M145.5 137.4h290.9V295H145.5zm0 195h290.9V490H145.5z" fill="#fff"/><path d="M486.9 148.8h399.4V164H486.9zm0 42.9h399.4v15.2H486.9zm0 42.9h399.4v15.2H486.9z" fill="#e1e1e1"/><pattern id="B" xlink:href="#A" patternTransform="matrix(0.3 0 0 0.3 -5370.8037 -4697.1909)"/><path d="M732.7 796c0 5.7-38.2 106.6-94.1 106.6h141.5V796h-47.4" fill="url(#B)"/><pattern id="C" xlink:href="#A" patternTransform="matrix(0.3 0 0 0.3 -5370.8037 -4697.1909)"/><path d="M135.4 819.7c0 3.5-42.4 90.2-57.6 90.2h62.9l23-90.4h-28.2" fill="url(#C)"/><pattern id="D" xlink:href="#A" patternTransform="matrix(0.3 0 0 0.3 -5371.3267 -4690.8672)"/><path d="M777.1 408.2c0 6.7-6.1 78.1-21.2 84.3 11.4-6.1 28.9-15.3 34.7-22.6.4-4.6 2-23.7 2.8-26.4s4-25 8-33.5 4.9-11.9 4.9-11.9l2.8-5.4 3.1-5 3.1-4.6 1.1-1.6-1.4-.3-2.8-.1-3.6.8-4.6 2.2-5.5 3.3-3.9 2.8-3.7 3.1-3.9 3.8-4 4.4-5.6 6.5" fill="url(#D)"/><pattern id="E" xlink:href="#A" patternTransform="matrix(0.3 0 0 0.3 -5371.3267 -4690.8672)"/><path d="M881.7 461.1c0 2.7-17.5 89.3-46.6 89.3 32.9 3 49.2-1.3 49.2-1.3l5.8-5.2 2-5.8 1.6-17.7.4-7.6.5-10 1.3-25-5.2-8.4-3.5-8.6-5.5.3z" fill="url(#E)"/><path d="M140.7 910.6l-70.3-.7-24.6-90.3h117.9z" fill="none" class="O P Q"/><path d="M96.4 819.1c-2.6-4.1-10.9-20.8-10.9-36 0-27.8 7.6-46.4 16.9-62.4-23.4-94.5-58.6-143.3-63.8-141-8.9 3.9-11.5 80.2 4.4 159 .4 0 .7-.1 1.1-.1a8.28 8.28 0 0 1 8.3 8.3c0 1.4-.3 2.7-.9 3.8 2.7 1.4 4.6 4.2 4.6 7.4 0 4-2.9 7.4-6.7 8.2 4.7 18.2 10.6 36.2 17.6 52.9h44c-8.2 0-14.6-.1-14.6-.1z"/><g fill="none" class="O Q"><path d="M232.3 640c-12.3 0-25.5 35.4-40.1 35.4-3.2 0-5.3-3.5-5.3-6.8 0-3.2 10.1-38.4 10.1-55.5 0-1.5-.1-3.1-.3-4.7-1.6 1-3.6 1.6-5.6 1.6a10.93 10.93 0 0 1-10.9-10.9c0-5.3 3.7-9.6 8.7-10.7-5.1-6.5-12.6-11.1-22.8-11.1-12.9 0-31.1 11.5-31.1 29.3 0 5 1.5 17.7 1.5 29.2 0 65.2-51.1 75-51.1 147.2 0 15.2 8.4 31.9 10.9 36l46.9.5c4.1 0 37.4-55.6 41.2-61.5 14.5-22.4 62.7-47 62.7-100.5 0-7.5-2.7-17.5-14.8-17.5z" class="P"/><path d="M893.8 389.4c-6.8-9-18.1-17.2-33.8-20.5m31.6 171.9c2-8.5 2.7-33 4.4-62.9m-61.3-108.8c-56.6 23.6-44.1 164.5-40.2 174.4 6.6 16.8 88.3 4.8 95.6.3"/><g class="R"><path d="M870.1 340.1c-6.5 8-11 32.6-11.1 35.4-1 1.7-5.9 2.2-10.8 2.3" class="S"/><g class="P"><path d="M771.3 430c-9.2 8-27.3 28.4-28.8 31-4.6-2.2-52.5-27.4-56.1-29s-11.2-14.3-13.8-14.3c-1.5 0-2.9 2.9-2.9 4.9 0 3.4 1.6 6 2.6 7.1-3.4-.5-33.4-2.8-33.4-.8 0 5.2 33.6 12.1 36.2 13.5s57.3 52 76.3 52c7.4 0 39.8-22.2 39.8-24.6m94.3 407.6V894h-42.2l26.9-16.6"/><path d="M885.5 877.4v-23.2m-15.1 23.2v-23.2m-165.9-74.8V796h-42.1l26.8-16.6m15.3 6v-23.2m-15 17.2v-19.1"/></g></g><path d="M598 796h182.1v106.6H598z" class="P"/><g class="R"><path d="M887.4 461.5c.9 5.5 21.9 38.6 24.4 41.5-5.3 4.6-34.8 69.1-37.1 73.3 0 2.4 7.2 10.3 9.8 12.9 4.4 0 53.9-63.7 53.9-70.9s.8-54.2-12.5-74.5"/><path d="M881.5,460.5c7.2,3.1,42.2-7.4,45-18c3-15.7-20.6-60.9-41.6-52.4"/></g></g><path d="M884.4 589.3c-2.6-2.6-9.8-10.5-9.8-12.9 1.1-1.9 7.9-16.7 15.5-32.4-18.8 5.1-65.6 8.9-82.7 5-4.6-1-9.2-3.2-12.9-5.4-4.5 2.9-70.7 49.2-101.3 94.6-1.6 3.6-4 122.3-4 122.3l24.3 2.1 21.7-101.1c3.5 0 50.8-18.1 84.7-39.7l40.2 232.6h26.1l5.7-271.8c-3.8 4-6.6 6.7-7.5 6.7z"/><path d="M815.1 266.3c0 27 68.2 20 68.2 54.6 0 15-8.2 18.6-13 18.6m-58.8-65c0 3 3.8 11.4 14.8 21.8m7.2 6.6c-1.2 4-12.2 23.4-12.2 25.8s5.5 5.5 5.5 7.2-2.2 10.6 8.8 17.9c-.5 3.3-.9 15.3-.9 15.3" fill="none" class="O Q R S"/><circle cx="837.2" cy="318.1" r="1.5"/><g fill="none" class="O Q"><path d="M833.5 340.8c-2 .9-4.1 1.5-6.3 1.8" class="R S"/><path d="M817.4,381.7c-14.4-5.5-47.8,30.5-48.4,44.5c2.6,6.9,16.2,15.5,25.1,20.2" stroke-width=".95"/></g></svg>