<svg xmlns="http://www.w3.org/2000/svg" viewBox="0 150 1200 800">
    <style>
        .P{fill:none}.Q{stroke-linecap:round}.R{stroke-linejoin:round}.S{fill:#E8F7F7}.T{fill:#C0E4E4}.U{stroke-width:4}.V{stroke:#036c72}.W{stroke:#000}.X{stroke-width:2.5}
    </style>
    <defs>
        <pattern id="A" width="12" height="12" patternUnits="userSpaceOnUse" viewBox="0 0 12 12">
            <path d="M0 0h12v12H0z" class="P"/>
            <g fill="#036c72">
                <circle cx="12" cy="9" r="2"/>
                <circle cx="6" cy="12" r="2"/>
                <circle cy="9" r="2"/>
                <circle cx="12" cy="3" r="2"/>
                <circle cx="6" cy="6" r="2"/>
                <circle cy="3" r="2"/>
                <circle cx="6" r="2"/>
            </g>
        </pattern>
    </defs>
    <g fill="url(#A)">
        <path d="M542.67 711.08c0-5.87.1-39.82 6.92-56.6 4-5.18 7-8.66 7-8.66l-7-8.44 1.06-7.4 14.06-19.28 19.3-19.65 14.17-7.14 12.14.77 2.46 1.15-11.35 14.48-8.17 19.4-5 15-4 11.48-3 17-2.52 11.07-2.22 16.1-27.75 22.04z"/>
        <path d="M683.5 660.2c0 5.3-24.4 109.34-68.73 133.4 62.9 7.25 77.38 1.4 77.38 1.4l13-6.34 5.47-17.5 1.82-32-.25-26.06-1.83-35.07-7.7-5.63-8.48-.15-2.48-.7-4.83-5z"/>
    </g>
    <path d="M88.17 374.3v241.04H443.2l-5.05-6.5 1.88-14.65 5.06-9.9-8.68-7.5-8.52-7.25-4.23-9.03 4.23-5.86 42.35 37.55 25.37 23.14h15.7V374.3H88.17zm717.66 154.14v152.24c19.7 6.4 47.06 14.7 72.44 18.77a28 28 0 0 1 12.44-2.8c12.3 0 22.3 7.4 22.3 16.54s-10 16.53-22.3 16.53a26.49 26.49 0 0 1-16-5l-68.9-9v271.93h238.44v-459.2z" class="S"/>
    <path d="M874.72 724.7l-49.13-6.32v7.1h50.25l-1.12-.77zm-48.2-37.57c16.12 4.78 34.4 9.53 51.74 12.32a28 28 0 0 1 12.44-2.8c12.3 0 22.3 7.4 22.3 16.54 0 4.88-2.85 9.27-7.4 12.3h118.9v-38.35zm272.55 300.53h-55.46v-459.2h55.46zm-74.58-391.82H825.58V557.5h198.93z" class="T"/>
    <circle cx="839.88" cy="571.86" r="6.73" class="S"/>
    <path d="M955.82 571.86H852.26" class="P Q R U V"/>
    <path d="M1024.5 660.66H825.58V622.3h198.93z" class="T"/>
    <circle cx="839.88" cy="636.68" r="6.73" class="S"/>
    <path d="M955.82 636.68H852.26m103.56 64.82h-49.4" class="P Q R U V"/>
    <path d="M1024.5 790.3H825.58v-38.35h198.93z" class="T"/>
    <circle cx="839.88" cy="766.31" r="6.73" class="S"/>
    <path d="M955.82 766.3H852.26" class="P Q R U V"/>
    <path d="M1024.5 855.12H825.58v-38.35h198.93z" class="T"/>
    <circle cx="839.88" cy="831.13" r="6.73" class="S"/>
    <g class="P Q R V">
        <path d="M955.82 831.13H852.26" class="U"/>
        <path d="M1086.26 585.08h-29.84m29.84 7.72h-29.84m29.84 44.83h-29.84m29.84 7.72h-29.84m29.84 56.15h-29.84m29.84 7.72h-29.84m29.84 54.06h-29.84m29.84 7.72h-29.84" stroke-width="2"/>
    </g>
    <rect x="117.72" y="409.37" width="239.85" height="174.14" rx="23.65" fill="#036c72"/>
    <g class="P Q R W X">
        <path d="M701.76 671.7c16 12.66 53.1 34.75 63.6 37.63 10.95 3 94.73 13.55 109.36 15.38a26.49 26.49 0 0 0 16 5c12.3 0 22.3-7.4 22.3-16.53s-10-16.54-22.3-16.54a28 28 0 0 0-12.44 2.8c-40.93-6.6-87-24.08-97.8-27-8.13-9.53-24.38-22.88-34.94-31.3M468.76 623c28.26 42.2 65.63 89.08 77.5 89.08 5.08 0 19.3-11.73 30.7-22.8m-20.5-43.56c-4.07 4.95-9.05 11.4-10.77 14.47-6.45-5.6-114.47-104.93-117-104.93a4.57 4.57 0 0 0-4.49 4.21c0 13.12 9.53 13.8 21.4 26.32m166.73-.22c-25.06-12.64-63.54 41.1-62.74 50.22.53 6 16.23 19.53 31.36 27.4"/>
        <path d="M709.62 677.5c5.94 53 1.5 106.38-5 111.6-16.35 13.22-122.47 1-128.36-6.22-5.7-7-9.92-200.57 64-213.9"/>
        <path d="M660.3 570.2c9 3.08 16.52 9.66 22.85 18.7m-8.65 9.1a20.22 20.22 0 0 1 7.72-8.57c25-15.1 64.78 40.28 64 49.53s-37.46 36.2-52.8 33.2c-3.14-.6-8-7.38-12.3-16.88m-235.5-69.48a22.24 22.24 0 0 0 23.14 37.2"/>
    </g>
    <path d="M206.62 161h301.9v179h-301.9zm-124.45-1.98h106.18v179H82.17z" class="S"/>
    <path d="M238.87 314c8.78-10.54 24.36-28.45 52.7-34.54 42.34-9.1 54.6-58.56 74.94-58.56 25.54 0 36.3 14.64 46.84 14.64 21.16 0 43.4-19.62 55-48.6" stroke="#036c72" stroke-width="3" class="P Q R"/>
    <path d="M97.84 187.34h75v6.86h-75zm0 23.1h75v6.86h-75zm0 23.1h75v6.86h-75zm-.17 23.1h75v6.86h-75zm0 23.1h75v6.86h-75zm0 23.1h75v6.86h-75z" fill="#036c72"/>
    <g fill="#fff">
        <path d="M135.3 432.9h101.24v6.86H135.3zm0 23.1h101.24v6.86H135.3zm0 23.1h101.24v6.86H135.3zm-.2 23.1h101.24v6.86H135.1zm0 23.1h101.24v6.86H135.1zm0 23.1h101.24v6.86H135.1z"/>
        <rect x="277.48" y="393.84" width="170.13" height="102.6" rx="23.65"/>
    </g>
    <g fill="#036c72">
        <circle cx="358.45" cy="406.97" r="5.72"/>
        <circle cx="358.45" cy="483.32" r="5.72"/>
    </g>
    <path d="M358.45 408.84v72.86m13.9-63.3v42.5m-13.9 22.42l13.9-22.44" stroke-width="2" stroke="#036c72" class="P Q R"/>
    <path d="M892.28 399.5a40.69 40.69 0 0 1 43.17-67 56.4 56.4 0 0 1 99.15 8.79 40.69 40.69 0 0 1 50.4 58.23z" class="T"/>
    <g stroke="#036c72" class="P U">
        <path d="M1063.03 396.1v137.1" stroke-miterlimit="10"/>
        <path d="M799.73 472.08c7.14 13.75 23.06 18.8 35.4 18.8 29.78 0 41.15-28.7 41.15-38.4M797.85 327.2c6.58 12.5 9.84 25.74 9.84 37.3 0 27.38-4.57 46.15-8 62.57M647.56 309.2c20.16-16.83 42.82-29.34 69.8-29.34 22.16 0 40.15 6.6 54.07 16.67M539 396.62c21.13 0 40.46-18 61.13-39.87" class="Q R"/>
    </g>
    <g class="T">
        <path d="M607.27 315.33h29.78v29.78h-29.78z"/>
        <circle cx="784.78" cy="309.61" r="13.08"/>
        <path d="M821.07 450.22l-29.14-18.98-1.87 34.73 31-15.75z"/>
    </g>
    <path d="M660.3 541.5l-.7 40.4c0 3.05-10.83 4.77-19.33 4.08m.16-25.6a20.59 20.59 0 0 1-3.86.28c-16.1-.28-28.86-18.67-28.47-41.08a51.08 51.08 0 0 1 6.64-24.89m48.7 19.18a9.39 9.39 0 1 1-5.77 17M675 519c5-3.65 5.76-28.95-6.74-37.17-12.18-8-45.94-9.5-62.14-29.95m7.66 28.17c-3.64-2.54-15-17.5-16.93-21.58m6.07 27.68c-4-4.12-6.87-11.3-8.15-16.2" class="P Q R W X"/>
    <ellipse cx="630.53" cy="515.18" rx="2.22" ry="2.56" transform="matrix(.985967 -.166941 .166941 .985967 -77.17 112.52)"/>
    <path d="M620.92 512.28c0 2.77-1.5 10.4-4.46 17.13m10.44 11.16a7 7 0 0 0 4.92-4.52" class="P Q R W X"/>
    <path d="M576.3 782.9V1000h123.76V791.48c-25.87 9.18-118.28-1.88-123.76-8.6z"/>
    <path d="M765.36,709.33c10.95,3,94.73,13.55,109.36,15.38" class="P Q R W X"/>
</svg>
