<svg xmlns="http://www.w3.org/2000/svg" viewBox="0 0 1200 1200"><style><![CDATA[.I{stroke:#000}.J{stroke-linecap:round}.K{stroke-linejoin:round}.L{stroke-width:2.5}]]></style><defs><pattern id="A" width="12" height="12" patternUnits="userSpaceOnUse" viewBox="0 0 12 12"><path d="M0 0h12v12H0z" fill="none"/><g fill="#949494"><circle cx="12" cy="9" r="2"/><circle cx="6" cy="12" r="2"/><circle cy="9" r="2"/><circle cx="12" cy="3" r="2"/><circle cx="6" cy="6" r="2"/><circle cy="3" r="2"/><circle cx="6" r="2"/></g></pattern></defs><g fill="url(#A)"><path d="M907.52 567.65c-.48-5.53 5.57-40.4 16.1-46.68a51.62 51.62 0 0 1-7.14 3.66l-5.23-4.83-3.3-2.1c0-1.34.16-4 .16-4l-1.1-3.53-8.4-9.25-15.35-11.4-12.77-7.64-11.12-3.63 2.78 5.55 9.08 18.24 6.34 22.52 4.1 26.25 3.56-1 8.65 10 9.3 7.5z"/><path d="M766.88 546.08h6.65l5.14 4.17c-2-26-.93-46.55-.2-50.36l-4.48 8.36-18 23.4-9.9 8.75-.45 5z"/><path d="M780.7 569.9l-1.12 2.67-3.73 4.73-6.14 1h-4.13l-4.4-3.74-3.66-8.35-14 3.13v.06l-.88 36 1 43.34 4.43 35.62 7.33 6.08s63.56.72 92.1-8c-43.7-10.06-60.68-65.32-66.8-112.54z"/></g><path d="M907.52 516.9a66.46 66.46 0 0 1 9.25 8.07c3.2-1.52 48.75-29.9 70-39.53m-4.77 33.9c-24.5 19-65 48.33-73.92 48.33-7.76 0-17-10-23.28-18.5" fill="none" class="I J K L"/><path d="M915.22 991.24l-.6 4.27a20.09 20.09 0 0 0 3.16 13.94zm121.28-641.96l-9.84-1.4-20-2.83L921 950.47l14.16 9.3-14.25 53.36a20 20 0 0 0 10.87 5.17l9.85 1.4a20.18 20.18 0 0 0 22.8-17.16l92.05-650.47z" fill="#dfdfdf"/><path d="M925.28 953.3l9.87 6.5-3.38 12.66 36.2 5.13 2.53-17.88-45.2-6.4z" fill="#f3f3f3"/><g fill="#d0d0d0"><rect x="211.6" y="325.89" width="467.4" height="701.58" rx="64.48" transform="matrix(.983287 -.182064 .182064 .983287 -115.81 92.43)"/><path d="M151.59 374.34l328.25-60.778 127.732 689.854-328.25 60.778z"/></g><g fill="#dedede"><path d="M101.675 385.295L457.42 292.1l177.795 678.678-355.745 93.195z"/><path d="M682.82 571.67c-6.65-2.24-11.66-6.37-11.66-13.87 0-3.2 1.82-7.58 4.75-12.5l-59.8-228.16a64.48 64.48 0 0 0-78.71-46l-373.34 97.8a64.48 64.48 0 0 0-46 78.72l145.15 553.93a64.47 64.47 0 0 0 78.71 46l373.34-97.83a64.47 64.47 0 0 0 46-78.71z"/></g><g fill="#f3f3f3"><path d="M469.738 291.64l47.53-12.25 175.395 680.533-47.53 12.25z"/><path d="M175.7 457.4l402.43-105.425 46.883 178.96-402.43 105.425zm104.8 467.713l154.255-40.4 24.746 94.462-154.255 40.4zm760.38-642.243l-34.2 62.2 49.8 7.05-15.6-69.24z"/></g><path d="M1046.02 305.68l-5.14-22.82-11.27 20.5 16.4 2.33z" fill="#dfdfdf"/><g fill="none" class="I J K L"><path d="M858.43 478.13c19.3 2.62 48.6 27.9 49.6 34.4 1.1 7.06-12.77 31.4-26.6 38.8M772 471c7.23-8.5 16.13-14.48 27.06-16.93m-53.28 91.28q.36-2.8.77-5.57m75.03-86.06c83.2 14.6 59.3 197.18 57.88 212.44C872.1 678.8 755.24 692.7 748.2 685c-1.4-10.45-7.87-63.07-4.65-115.58m-32.08-65.68c-13.67 12.4-40.3 41.77-40.3 54.06 0 14.25 18.1 16.36 31.18 16.36 16.2 0 41.45-4.08 55-8 1.32 7.36 6.4 12.85 12.45 12.85 7.07 0 12.8-7.45 12.8-16.64s-5.73-16.65-12.8-16.65a9.92 9.92 0 0 0-3.71.72 1.31 1.31 0 0 0-1-.53c-3.27 0-34.25-1.15-37.52-.58 2.2-1.88 5.38-5 8.38-8"/><path d="M746.58 539.55a7.22 7.22 0 0 1-3.31 1.35c-7.93 0-35.58-28.77-32.57-46.64s59.08-30.45 68.43-20.1c14.47 16-19.83 57.38-32.55 65.4m51.18-115.3l1.62 41.25c0 3.12 11.17 4.63 19.83 3.74m-.73-26.15a21.51 21.51 0 0 0 3.94.21c16.45-.65 29.06-19.7 28.16-42.58a52.37 52.37 0 0 0-7.33-25.28M794 396.12a9.59 9.59 0 1 0 6.27 17.27m-18.07-11.75c-5.18-3.62-6.5-29.44 6.06-38.1 12.25-8.45 49.9-14.84 65.84-26.57m-10.2 23.53c3.67-2.67 15-18.2 16.8-22.4m-5.58 28.38c4-4.3 6.77-11.7 8-16.72"/></g><ellipse cx="827.58" cy="396.73" rx="2.61" ry="2.27" transform="matrix(.145392 -.989374 .989374 .145392 314.73 1157.82)"/><path d="M837.32 393.56c.1 2.82 1.77 10.58 4.94 17.38m-10.4 11.63a7.13 7.13 0 0 1-5.12-4.5" fill="none" class="I J K L"/><path d="M796.06 685.26h0l42.66 313.07h27.7l13-332.17c-4.35 7.54-47.62 15.52-83.36 19.1z"/><path d="M796.06 821.65c5.87-4.5 28.92-60.9 29.5-65.76.47-3.9-10.8-52.95-15.27-72.24-29.84 3.76-58.7 5.06-62.1 1.34 0 0-15.85 142.2-10.3 158.12s162 119.76 162 119.76l14.54-19.38z"/><path d="M911.85 944.45l23.3 15.33-15.95 59.75-7.75-55.15-9.6-6.17m-37.55 40.12v29.43h-57.6l40.15-19.37v-10.9" fill="none" class="I J K L"/></svg>