<?xml version="1.0" encoding="UTF-8"?>
<svg width="383px" height="392px" viewBox="0 0 383 392" version="1.1" xmlns="http://www.w3.org/2000/svg" xmlns:xlink="http://www.w3.org/1999/xlink">
    <!-- Generator: Sketch 58 (84663) - https://sketch.com -->
    <title>feature-window-1</title>
    <desc>Created with Sketch.</desc>
    <defs>
        <rect id="path-1" x="0" y="0" width="335" height="344" rx="8"></rect>
        <filter x="-11.9%" y="-9.3%" width="123.9%" height="123.3%" filterUnits="objectBoundingBox" id="filter-2">
            <feOffset dx="0" dy="8" in="SourceAlpha" result="shadowOffsetOuter1"></feOffset>
            <feGaussianBlur stdDeviation="12" in="shadowOffsetOuter1" result="shadowBlurOuter1"></feGaussianBlur>
            <feColorMatrix values="0 0 0 0 0   0 0 0 0 0   0 0 0 0 0  0 0 0 0.2 0" type="matrix" in="shadowBlurOuter1"></feColorMatrix>
        </filter>
    </defs>
    <g id="Templates" stroke="none" stroke-width="1" fill="none" fill-rule="evenodd">
        <g id="Landing-Page-Example" transform="translate(-550.000000, -928.000000)">
            <g id="image" transform="translate(550.000000, 847.000000)">
                <g id="feature-window-1" transform="translate(24.000000, 97.000000)">
                    <g id="window">
                        <use fill="black" fill-opacity="1" filter="url(#filter-2)" xlink:href="#path-1"></use>
                        <use fill="#FFFFFF" fill-rule="evenodd" xlink:href="#path-1"></use>
                    </g>
                    <rect id="Rectangle" stroke="#D0D0D0" fill="#FFFFFF" x="24" y="288" width="287" height="32" rx="8"></rect>
                    <g id="nav" transform="translate(20.000000, 19.000000)" fill="#A2B8BF" fill-rule="nonzero">
                        <g id="nav-right" transform="translate(230.000000, 0.000000)">
                            <g id="pencil" transform="translate(27.000000, 0.000000)">
                                <path d="M10.7403195,0 C10.4631196,0 10.1858855,0.105861927 9.9743631,0.317382656 L9.2084072,1.0833328 L11.9167605,3.79166479 L12.6827164,3.02571465 C13.1057612,2.60267319 13.1057612,1.91685582 12.6827164,1.49381437 L11.506276,0.317382656 C11.2947536,0.105861927 11.0175195,0 10.7403195,0 Z M8.12506587,2.1666656 L1.62501793,8.6666656 L2.43752392,8.93749558 L2.70835925,10.2916616 L4.06253591,10.5624948 L4.33337124,11.3749944 L10.8334192,4.87499759 L8.12506587,2.1666656 Z M0.62419677,10.9158476 L0.0201070139,12.6254822 C0.0066681856,12.6583877 -0.000162003346,12.6936168 2.91712511e-06,12.7291604 C2.91712511e-06,12.8787374 0.121263049,12.9999969 0.270841272,12.9999969 C0.304469893,13.0001589 0.337835204,12.99406 0.369230656,12.9820086 L2.08416842,12.3758076 L0.62419677,10.9158476 Z" id="Shape"></path>
                            </g>
                            <g id="speech_bubble">
                                <path d="M7.5,0 C3.35769231,0 0,2.758 0,6.16 C0,8.04608 1.03461237,9.73195104 2.6603816,10.862031 C2.7018926,11.7221821 2.56458369,12.9098939 1.34202225,13.4575 C1.3412694,13.4578614 1.34051818,13.4582259 1.33976862,13.4585937 C1.22794421,13.4998738 1.15397708,13.6038713 1.15384615,13.72 C1.15384615,13.8746397 1.28299478,14 1.44230769,14 C1.44919454,14 1.45571342,13.998941 1.46259012,13.9989063 C1.46409252,13.9989177 1.46559498,13.9989177 1.46709738,13.9989063 C2.87134321,13.9901692 4.06342696,13.253539 4.88581731,12.4753126 C5.14658654,12.2283526 5.51012019,12.1068237 5.86838942,12.1723437 C6.39338942,12.2692237 6.93923077,12.32 7.5,12.32 C11.6423077,12.32 15,9.562 15,6.16 C15,2.758 11.6423077,0 7.5,0 Z" id="Path"></path>
                            </g>
                            <g id="like" transform="translate(52.000000, 1.000000)">
                                <path d="M3.54516603,0 C1.58704103,0 0,1.59813922 0,3.56995745 C0,7.00217509 3.95361146,10.2817085 5.80069967,11.7421876 C5.80245856,11.7436135 5.80422187,11.7450339 5.80598958,11.7464487 C5.81864563,11.7564545 5.83585221,11.7707067 5.84830729,11.7805396 L5.84936517,11.7794744 C6.03676776,11.9220666 6.26511579,11.9994627 6.5,12 C6.73524636,11.9996938 6.96400109,11.9222857 7.15169271,11.7794744 L7.15169271,11.7805396 C7.15533813,11.7776618 7.16072554,11.7738442 7.16438775,11.7709516 C7.167173,11.7687518 7.17111417,11.7657027 7.17390971,11.7634942 C7.17745695,11.7603215 7.18098346,11.7571255 7.184489,11.7539062 C9.02585071,10.2986749 13,7.01036509 13,3.56995745 C13,1.59813922 11.4129589,0 9.45483392,0 C7.58337558,0 6.5,1.63636364 6.5,1.63636364 C6.5,1.63636364 5.41662442,0 3.54516603,0 Z" id="Path"></path>
                            </g>
                        </g>
                        <g id="close" transform="translate(0.000000, 1.000000)">
                            <path d="M1.11171421,0.000484776254 C0.661228174,0.00104286679 0.255954763,0.274506618 0.0866441009,0.692164784 C-0.0826665616,1.10982295 0.0177169982,1.58846621 0.340547227,1.90281143 L3.43386784,4.9976091 L0.340547227,8.09240705 C0.0512170895,8.37032969 -0.0653313462,8.78302792 0.0358504733,9.17133881 C0.137032293,9.55964971 0.440133669,9.86289571 0.828259269,9.9641257 C1.21638487,10.0653557 1.62888608,9.94875147 1.90667598,9.65928308 L5,6.56448568 L8.09331749,9.65928308 C8.37110651,9.94875549 8.78360972,10.0653628 9.17173782,9.96413327 C9.55986591,9.86290375 9.86296918,9.55965575 9.96415038,9.17134232 C10.0653316,8.78302889 9.94877995,8.37032872 9.65944569,8.09240705 L6.56612535,4.9976091 L9.65944569,1.90281143 C9.98701176,1.58425163 10.0855034,1.09717337 9.90746195,0.6762775 C9.7294205,0.255381627 9.31137012,-0.0129875838 8.85475025,0.000484776254 C8.56701326,0.00906246204 8.29391666,0.129375482 8.09331749,0.335934846 L5,3.43073252 L1.90667598,0.335934846 C1.69789684,0.121218188 1.4111268,0.000209814057 1.11171421,0.000484776254 Z" id="Path"></path>
                        </g>
                    </g>
                </g>
            </g>
        </g>
    </g>
</svg>