<?xml version="1.0" encoding="UTF-8"?>
<svg data-name="Layer 1" viewBox="0 0 886.3 670.67" xmlns="http://www.w3.org/2000/svg">
<title>redesign_feedback</title>
<path transform="translate(-156.85 -114.67)" d="m832.02 761.22c-0.12009-0.19624-2.9518-4.9244-3.9334-14.742-0.90044-9.0075-0.32144-24.19 7.5526-45.369 14.917-40.122-3.4377-72.495-3.6253-72.817l0.90555-0.52534a80.36 80.36 0 0 1 7.5817 21.478 93.703 93.703 0 0 1-3.8808 52.229c-14.892 40.053-3.8205 59.014-3.7071 59.202z" fill="#e6e6e6"/>
<circle cx="669.34" cy="504.47" r="6.8029" fill="#3f3d56"/>
<circle cx="690.79" cy="529.58" r="6.8029" fill="#3f3d56"/>
<circle cx="676.14" cy="546.33" r="6.8029" fill="#e6e6e6"/>
<circle cx="693.93" cy="560.46" r="6.8029" fill="#e6e6e6"/>
<circle cx="670.91" cy="582.44" r="6.8029" fill="#3f3d56"/>
<path transform="translate(-156.85 -114.67)" d="m836.13 761.47s-6.8029-16.746 13.606-29.305z" fill="#e6e6e6"/>
<path transform="translate(-156.85 -114.67)" d="m827.77 761.17s-3.0961-17.808-27.059-17.655z" fill="#e6e6e6"/>
<ellipse cx="717.92" cy="653.79" rx="167.62" ry="16.882" fill="#3f3d56"/>
<rect width="703.58" height="450.6" fill="#3f3d56"/>
<circle cx="21.912" cy="14.883" r="5.54" fill="#319795"/>
<circle cx="42.94" cy="14.883" r="5.54" fill="#319795"/>
<circle cx="63.968" cy="14.883" r="5.54" fill="#319795"/>
<rect x="424.21" y="184.81" width="120.5" height="6.9173" fill="#e6e6e6"/>
<rect x="424.21" y="210.05" width="186.08" height="6.9173" fill="#319795"/>
<rect x="424.21" y="233.82" width="151.65" height="6.9173" fill="#e6e6e6"/>
<rect x="424.21" y="257.5" width="88.532" height="6.9173" fill="#e6e6e6"/>
<rect x="424.21" y="281.18" width="133.62" height="6.9173" fill="#e6e6e6"/>
<rect x="369.29" y="182.35" width="14.755" height="14.755" fill="#e6e6e6"/>
<rect x="369.29" y="206.13" width="14.755" height="14.755" fill="#319795"/>
<rect x="369.29" y="229.9" width="14.755" height="14.755" fill="#e6e6e6"/>
<rect x="369.29" y="253.67" width="14.755" height="14.755" fill="#e6e6e6"/>
<rect x="369.29" y="277.44" width="14.755" height="14.755" fill="#e6e6e6"/>
<path transform="translate(-156.85 -114.67)" d="m719.22 391.75h-33.303a116.48 116.48 0 0 1 0-39.707h33.302a71.446 71.446 0 0 0 2e-5 39.707z" fill="#ff6584"/>
<circle cx="184.06" cy="220.23" r="89.47" fill="#319795"/>
<path transform="translate(-156.85 -114.67)" d="m345.91 250.48h-10v-10h10zm-8-2h6v-6h-6z" fill="#fff"/>
<rect x="187.29" y="129.81" width="53" height="2" fill="#fff"/>
<circle cx="240.29" cy="130.81" r="2.0828" fill="#fff"/>
<rect x="128.29" y="129.81" width="52" height="2" fill="#fff"/>
<circle cx="128.29" cy="130.81" r="2.0828" fill="#fff"/>
<path transform="translate(-156.85 -114.67)" d="m435.15 339.66h-10v-10h10zm-8-2h6v-6h-6z" fill="#fff"/>
<rect x="272.29" y="224.23" width="2" height="52" fill="#fff"/>
<circle cx="273.29" cy="276.23" r="2.0828" fill="#fff"/>
<rect x="272.29" y="164.23" width="2" height="52" fill="#fff"/>
<circle cx="273.29" cy="164.23" r="2.0828" fill="#fff"/>
<path transform="translate(-156.85 -114.67)" d="m256.15 339.66h-10v-10h10zm-8-2h6v-6h-6z" fill="#fff"/>
<rect x="93.293" y="224.23" width="2" height="52" fill="#fff"/>
<circle cx="94.293" cy="276.23" r="2.0828" fill="#fff"/>
<rect x="93.293" y="162.23" width="2" height="54" fill="#fff"/>
<circle cx="94.293" cy="164.23" r="2.0828" fill="#fff"/>
<path transform="translate(-156.85 -114.67)" d="m345.91 429.48h-10v-10h10zm-8-2h6v-6h-6z" fill="#fff"/>
<rect x="188.29" y="308.81" width="53" height="2" fill="#fff"/>
<circle cx="240.29" cy="309.81" r="2.0828" fill="#fff"/>
<rect x="128.29" y="308.81" width="52" height="2" fill="#fff"/>
<circle cx="128.29" cy="309.81" r="2.0828" fill="#fff"/>
<path transform="translate(-156.85 -114.67)" d="m390.61 470.33h-38.769a135.6 135.6 0 0 1 0-46.224h38.769a83.173 83.173 0 0 0 0 46.224z" fill="#e6e6e6"/>
<path transform="translate(-156.85 -114.67)" d="m903.74 460.78-9.0777 33.717s-4.5388 27.233 3.242 27.881 5.8356-27.233 5.8356-27.233l14.913-23.343z" fill="#fbbebe"/>
<path transform="translate(-156.85 -114.67)" d="m971.17 478.41v-10.563l-61.587-4.1503-9.7376 62.249s-1.2968 62.06 3.242 93.749 13.616 105.63 13.616 105.63h41.498l-10.374-153.83 46.685 153.83 48.63-5.9419-56.411-181.56s0.64841-33.671-15.562-59.419z" fill="#2f2e41"/>
<path transform="translate(-156.85 -114.67)" d="m921.9 718.2-2.5936 20.101-3.8904 14.265s-18.155 3.8904-7.1324 10.374 21.397 0 21.397 0l8.4293-11.671v20.101h12.968v-28.53l-9.7261-21.397z" fill="#2f2e41"/>
<path transform="translate(-156.85 -114.67)" d="m1002.3 718.2-2.5936 20.101-3.8904 14.265s-18.155 3.8904-7.1324 10.374 21.397 0 21.397 0l8.4293-11.671v20.101h12.968v-28.53l-9.7261-21.397z" fill="#2f2e41"/>
<circle cx="788.71" cy="218.7" r="22.046" fill="#fbbebe"/>
<polygon points="803.3 228.11 821.46 250.15 799.41 258.58 789.03 237.83" fill="#fbbebe"/>
<path transform="translate(-156.85 -114.67)" d="m949.13 366.12 3.1353-0.86182s16.317-10.161 20.856-9.5126 18.804 14.913 16.21 34.365 2.5936 92.073-7.7808 89.48-13.616-4.5388-13.616-4.5388l-12.32-5.8356-11.671 3.242s-7.1324-4.5388-12.968-3.242-24.639-5.1872-24.639-5.1872z" fill="#e6e6e6"/>
<path transform="translate(-156.85 -114.67)" d="m953.73 368.19s-14.656-6.942-21.14 3.4325-24.639 65.489-24.639 65.489l-8.4292 25.288 20.749 12.32 40.849-75.215s5.9694-22.427-7.3898-31.314z" fill="#e6e6e6"/>
<path transform="translate(-156.85 -114.67)" d="m943.26 336.81c-1.3856-2.1328-0.68538-5.0327-1.6571-7.3831-1.5259-3.6909-6.2684-4.5555-10.248-4.8922a30.546 30.546 0 0 0-7.9402 0.02125 7.6208 7.6208 0 0 0-5.5069 3.9927c-0.5888 1.1808-0.44022-2.5189-0.063-7.2683a22.957 22.957 0 0 1 17.606-20.538q0.08433-0.01981 0.16715-0.03892c4.8453-1.1178 9.8414-1.9404 14.78-1.3602s9.8612 2.7121 12.943 6.6143c1.4087 1.7835 2.4047 3.8866 3.9772 5.5275 2.7628 2.883 6.8587 3.932 10.621 5.2697a32.046 32.046 0 0 1 11.646 6.719 17.37 17.37 0 0 1 5.6295 11.937c0.07949 5.2672-3.2711 10.703-8.6701 11.742a6.0616 6.0616 0 0 0-2.589 1.1173c-5.1552 3.9972 0.72553 8.1815 0.68478 12.681-0.034 3.7548-4.214 6.202-7.965 6.3771a15.113 15.113 0 0 1-15.052-11.958c-0.56546-3.0815-0.12881-6.2464 0.23906-9.3576 0.42109-3.5614-7.2485-11.947-2.1822-5.8007a8.8154 8.8154 0 0 1 1.937 4.0784c0.84322 4.9104-3.6253 6.5622-6.4432 9.283a11.676 11.676 0 0 0-2.8264 12.019 13.461 13.461 0 0 1-2.4465-16.999c0.90773-1.3921 2.0772-2.6032 2.938-4.0249 1.3432-2.2183 1.7136-7.0433-2.046-6.9108-2.6834 0.09457-5.4709 2.3286-7.5336-0.84627z" fill="#2f2e41"/>
<polygon points="796.49 306.89 766.66 354.09 794.89 302.11" opacity=".2"/>
<rect x="552.74" y="603.89" width="49.01" height="49.01" fill="#319795"/>
<rect x="585.59" y="631.89" width="24.458" height="24.458" fill="#e6e6e6"/>
<path transform="translate(-156.85 -114.67)" d="m839.64 541.47h-662v-395h662zm-660-2h658v-391h-658z" fill="#e6e6e6"/>
</svg>
