<?xml version="1.0" encoding="UTF-8"?>
<svg data-name="Layer 1" viewBox="0 0 1114.2 608.51" xmlns="http://www.w3.org/2000/svg">
<title>design_feedback</title>
<rect x="356.35" y="63.166" width="757.9" height="492.41" fill="#3f3d56"/>
<rect x="333.38" y="60.41" width="57.876" height="497" fill="#d0cde1"/>
<rect x="502.42" y="197.29" width="151.58" height="1.8373" fill="#d0cde1"/>
<path transform="translate(-42.876 -145.74)" d="m1042.3 609.45h-208.54v-194.76h208.54zm-206.7-1.8373h204.86v-191.08h-204.86z" fill="#d0cde1"/>
<rect transform="translate(-119.24 702.68) rotate(-46.975)" x="937.1" y="370.7" width="1.8379" height="282.74" fill="#d0cde1"/>
<rect transform="translate(-140.01 631.95) rotate(-43.022)" x="796.65" y="511.15" width="282.74" height="1.8379" fill="#d0cde1"/>
<rect x="502.42" y="332.34" width="214.05" height="1.8373" fill="#d0cde1"/>
<rect x="502.42" y="365.41" width="214.05" height="1.8373" fill="#d0cde1"/>
<rect x="502.42" y="398.48" width="214.05" height="1.8373" fill="#d0cde1"/>
<circle cx="680.71" cy="19.41" r="19.41" fill="#3f3d56"/>
<circle cx="735.3" cy="19.41" r="19.41" fill="#319795"/>
<circle cx="789.89" cy="19.41" r="19.41" fill="#d0cde1"/>
<rect y="606.2" width="652.89" height="2.3152" fill="#3f3d56"/>
<circle cx="192.69" cy="213.2" r="12.772" fill="#2f2e41"/>
<ellipse cx="219.66" cy="171.1" rx="36.651" ry="40.209" fill="#2f2e41"/>
<path transform="translate(-42.876 -145.74)" d="m236.75 489.74-0.94608 4.7304s-2.8383 2.8382-1.4191 4.2574 0.94609 8.0417 0.94609 8.0417l-2.8383 18.449-16.556 74.741s-21.76 14.191-38.789 42.101-17.503 35.005-17.503 35.005l18.922 8.0417 47.304-57.238s13.245-8.0417 17.976-15.137 34.059-80.417 34.059-80.417l16.556 76.633s-0.94608 27.91 3.3113 45.885a192.52 192.52 0 0 1 4.7304 34.532l22.233-2.3652s-1.4191-67.172-3.7843-74.268c0 0 9.9339-81.836-9.9339-114.48l-11.826-47.777-19.868-0.94608z" fill="#2f2e41"/>
<path transform="translate(-42.876 -145.74)" d="m182.35 683.22-23.652-14.664-10.88 20.814s-24.125 14.664-18.922 25.544 9.9339 13.718 9.9339 13.718l3.3113-1.4191 6.1496 11.353s16.083 23.179 42.101 11.353a9.5082 9.5082 0 0 0 0-11.353c-4.2574-6.1496-15.137-19.395-15.137-19.395z" fill="#2f2e41"/>
<path transform="translate(-42.876 -145.74)" d="m327.1 683.69-26.017 1.8922 2.8382 21.287s-12.299 30.275-3.7843 32.64a124.74 124.74 0 0 0 18.449 3.3113l0.94609-3.3113s36.424 19.868 49.669 5.2035c0 0 2.8383-10.407-5.2035-13.718s-23.652-10.407-25.544-14.191-11.353-33.113-11.353-33.113z" fill="#2f2e41"/>
<circle cx="220.84" cy="177.49" r="22.706" fill="#ffb8b8"/>
<path transform="translate(-42.876 -145.74)" d="m246.69 336.95s2.8382 18.449-11.353 25.544 37.37 15.61 37.37 15.61-8.0417-12.299-6.6226-16.556 8.5148-21.287 8.5148-21.287z" fill="#ffb8b8"/>
<path transform="translate(-42.876 -145.74)" d="m242.9 362.97s-13.718-8.0417-18.449-4.2574-6.1496 119.68 10.88 124.41l0.473 6.1496s-6.1496 2.8382-0.473 2.8382 32.167-19.395 33.113-26.49 28.383-8.5148 28.383-8.5148 7.0956 30.275 9.4608 29.329 2.3652-21.287 1.4191-24.125 10.88-11.826 7.5687-17.503-12.299-25.071-12.299-25.071 0.94603-12.299-11.826-23.652c0 0-3.7325-21.13-20.551-21.445s-27.699-11.668-27.699-11.668z" fill="#575a89"/>
<polygon points="198.23 149.86 198.23 175.81 204.24 175.81 211.89 167.61 210.87 175.81 237.44 175.81 235.8 167.61 239.08 175.81 243.31 175.81 243.31 149.86" fill="#2f2e41"/>
<rect x="57.814" y="382.41" width="196" height="179" fill="#319795"/>
<path transform="translate(-42.876 -145.74)" d="m216.75 621.36c-16.523 26.975-10.838 60.53-10.838 60.53s32.474-10.181 48.997-37.157 10.838-60.53 10.838-60.53-32.474 10.181-48.997 37.157z" fill="#3f3d56"/>
<path transform="translate(-42.876 -145.74)" d="m205.24 682.11-0.93946-0.14881c-0.33973-0.05387-34.155-5.6567-54.407-29.887-20.252-24.231-19.765-58.504-19.758-58.848l0.02016-0.95077 0.93947 0.1488c0.33972 0.05387 34.155 5.6567 54.407 29.888 20.252 24.23 19.764 58.503 19.758 58.847z" fill="#d0cde1"/>
<circle cx="164.07" cy="430.48" r="18.257" fill="#3f3d56"/>
<path transform="translate(-42.876 -145.74)" d="m207.42 478.39 5.6766 42.101s-3.3113 36.897 9.4608 37.37 4.7304-37.843 4.7304-37.843l-1.4191-38.316s-10.407-17.03-18.449-3.3113z" fill="#ffb8b8"/>
<path transform="translate(-42.876 -145.74)" d="m228.71 361.55s-3.3113-8.9878-10.407-1.8922-13.245 25.544-13.245 36.897 1.4191 77.106 1.4191 77.106-7.5687 2.8382-2.3652 7.0956 12.299-2.3652 12.299-2.3652 9.4608 6.6226 10.407 6.6226 0.473-8.0417 0.473-8.0417 4.7304-12.299 3.7843-21.76-2.3652-93.662-2.3652-93.662z" fill="#575a89"/>
<path transform="translate(-42.876 -145.74)" d="m1042.3 317.31h-497.92v-33.991h497.92zm-496.08-1.8373h494.24v-30.316h-494.24z" fill="#d0cde1"/>
<path transform="translate(-42.876 -145.74)" d="m152.69 577.15h-49c3.7825-15.222 3.3262-31.69 0-49h49q-10.289 24.5 0 49z" fill="#d0cde1"/>
<rect x="68.239" y="392.8" width="29.697" height="5.9394" fill="#3f3d56"/>
<rect x="68.239" y="404.68" width="29.697" height="5.9394" fill="#3f3d56"/>
<rect x="68.239" y="416.56" width="29.697" height="5.9394" fill="#3f3d56"/>
<path transform="translate(-42.876 -145.74)" d="m593.69 385.15h-49c3.7825-15.222 3.3262-31.69 0-49h49q-10.289 24.5 0 49z" fill="#d0cde1"/>
<rect x="509.24" y="200.8" width="29.697" height="5.9394" fill="#3f3d56"/>
<rect x="509.24" y="212.68" width="29.697" height="5.9394" fill="#3f3d56"/>
<rect x="509.24" y="224.56" width="29.697" height="5.9394" fill="#3f3d56"/>
<path transform="translate(-42.876 -145.74)" d="m962.69 459.15h-49c3.7825-15.222 3.3262-31.69 0-49h49q-10.289 24.5 0 49z" fill="#d0cde1"/>
<rect x="878.24" y="274.8" width="29.697" height="5.9394" fill="#3f3d56"/>
<rect x="878.24" y="286.68" width="29.697" height="5.9394" fill="#3f3d56"/>
<rect x="878.24" y="298.56" width="29.697" height="5.9394" fill="#3f3d56"/>
<path transform="translate(-42.876 -145.74)" d="m1025.7 354.15h-49c3.7825-15.222 3.3262-31.69 0-49h49q-10.289 24.5 0 49z" fill="#d0cde1"/>
<rect x="941.24" y="169.8" width="29.697" height="5.9394" fill="#3f3d56"/>
<rect x="941.24" y="181.68" width="29.697" height="5.9394" fill="#3f3d56"/>
<rect x="941.24" y="193.56" width="29.697" height="5.9394" fill="#3f3d56"/>
<path transform="translate(-42.876 -145.74)" d="m418.19 409.65h-26v-26h26zm-24-2h22v-22h-22z" fill="#3f3d56"/>
<path transform="translate(-42.876 -145.74)" d="m418.69 467.65h-26v-26h26zm-24-2h22v-22h-22z" fill="#3f3d56"/>
<path transform="translate(-42.876 -145.74)" d="m419.19 525.65h-26v-26h26zm-24-2h22v-22h-22z" fill="#3f3d56"/>
<circle cx="350.81" cy="354.41" r="8" fill="#319795"/>
</svg>
