<?xml version="1.0" encoding="UTF-8"?>
<svg data-name="Layer 1" viewBox="0 0 742.57 670.21" xmlns="http://www.w3.org/2000/svg">
<title>publish_article</title>
<path transform="translate(-228.71 -114.9)" d="m683.68 744.34c3.9858 12.061-4.177 25.604-4.177 25.604s-14.625-6.012-18.611-18.073 4.177-25.604 4.177-25.604 14.625 6.012 18.611 18.073z" fill="#e6e6e6"/>
<path transform="translate(-228.71 -114.9)" d="m955.9 755.28c-7.6001 10.178-23.376 11.249-23.376 11.249s-3.4541-15.431 4.1459-25.609 23.376-11.249 23.376-11.249 3.4541 15.431-4.146 25.609z" fill="#e6e6e6"/>
<ellipse cx="573.57" cy="658.21" rx="169" ry="12" fill="#e6e6e6"/>
<rect x=".27962" y=".37124" width="654.86" height="419.4" fill="#e6e6e6"/>
<rect x="19.005" y="52.975" width="617.41" height="341.99" fill="#fff"/>
<rect width="654.86" height="27.821" fill="#319795"/>
<circle cx="20.674" cy="14.224" r="5.1564" fill="#fff"/>
<circle cx="40.247" cy="14.224" r="5.1564" fill="#fff"/>
<circle cx="59.819" cy="14.224" r="5.1564" fill="#fff"/>
<rect x="211.99" y="82.969" width="231.17" height="22.973" fill="#e6e6e6"/>
<rect x="211.99" y="137.08" width="231.17" height="8.7012" fill="#e6e6e6"/>
<rect x="211.99" y="163.64" width="231.17" height="8.7012" fill="#e6e6e6"/>
<rect x="211.99" y="190.54" width="119.44" height="8.7012" fill="#e6e6e6"/>
<rect x="211.99" y="217.91" width="231.17" height="8.7012" fill="#e6e6e6"/>
<rect x="211.99" y="245.28" width="231.17" height="8.7012" fill="#e6e6e6"/>
<rect x="211.99" y="272.65" width="115.44" height="8.7012" fill="#e6e6e6"/>
<rect x="211.99" y="300.02" width="231.17" height="8.7012" fill="#e6e6e6"/>
<rect x="211.99" y="327.4" width="231.17" height="8.7012" fill="#e6e6e6"/>
<rect x="370.43" y="360.97" width="73" height="24" fill="#319795"/>
<path transform="translate(-228.71 -114.9)" d="m686.46 467.56-13.377 10.511s-18.155 19.11-24.844 8.5997 19.11-22.933 19.11-22.933l9.5552-6.6886z" fill="#9f616a"/>
<path transform="translate(-228.71 -114.9)" d="m891.41 480.46s-7.6442 26.755-9.5552 28.666l-14.333-21.021 6.6886-11.466z" fill="#9f616a"/>
<path transform="translate(-228.71 -114.9)" d="m868.96 483.8 13.377 25.799-6.6886 25.799v81.219l6.6886 121.35h-35.354l-33.443-196.84-37.265 196.84h-36.31l7.6442-126.13-1.911-73.575s0.95553-42.998 10.511-46.821 112.75-7.6442 112.75-7.6442z" fill="#2f2e41"/>
<path transform="translate(-228.71 -114.9)" d="m874.69 733.2 2.8666 11.466s10.511 7.6442 7.6442 16.244-0.95553 13.377-7.6442 15.288-28.666 4.7776-27.71-4.7776 0-29.621 0-29.621l2.8666-6.6886z" fill="#2f2e41"/>
<path transform="translate(-228.71 -114.9)" d="m748.56 733.2-2.8666 11.466s-10.511 7.6442-7.6442 16.244 0.95552 13.377 7.6442 15.288 28.666 4.7776 27.71-4.7776 0-29.621 0-29.621l-2.8666-6.6886z" fill="#2f2e41"/>
<circle cx="556.64" cy="130.83" r="33.289" fill="#9f616a"/>
<polygon points="582.46 145.18 587.06 183.06 545.73 183.06 549.18 150.92" fill="#9f616a"/>
<path transform="translate(-228.71 -114.9)" d="m731.84 313.24s41.087-27.71 61.153-27.71 70.709 10.511 78.353 22.933l-5.7331 133.77s13.377 20.066 5.7331 27.71 1.4333 23.41 1.4333 23.41-59.72-3.3443-79.786 5.2554-43.954 0-43.954 0 10.033-12.9 0.47776-16.722 5.7331-64.975 5.7331-64.975l-4.2998-38.699z" fill="#575a89"/>
<path transform="translate(-228.71 -114.9)" d="m862.75 308.47 7.1664-1.4333s46.343 75.008 43.476 91.252-21.021 89.819-21.021 89.819l-24.844-6.6886 14.333-69.753-22.933-58.287z" fill="#575a89"/>
<path transform="translate(-228.71 -114.9)" d="m742.35 317.07-10.033-4.2998a101.99 101.99 0 0 1-5.8792 13.184c-11.852 22.293-15.62 95.267-15.62 95.267l-41.087 34.399 14.333 21.021s53.475-30.984 62.109-48.732c7.2103-14.822 6.2109-67.364 6.2109-67.364z" fill="#575a89"/>
<path transform="translate(-228.71 -114.9)" d="m812.57 268.54s33.792-24.137 16.091-53.101c-12.28-20.094-37.725-18.503-52.158-15.644a24.385 24.385 0 0 0-17.839 14.035c-2.4137 5.632-2.4137 11.264 7.2411 11.264 19.31 0 9.6548 14.482 9.6548 14.482s12.873 3.2183 9.6548 14.482 27.355 14.482 27.355 14.482z" fill="#2f2e41"/>
</svg>
