<?xml version="1.0" encoding="UTF-8"?>
<svg data-name="Layer 1" viewBox="0 0 884.6 628.6" xmlns="http://www.w3.org/2000/svg">
<title>work_in_progress</title>
<ellipse cx="75.177" cy="619.6" rx="75.139" ry="9" fill="#e6e6e6"/>
<rect x="196.22" y=".39024" width="688.38" height="440.87" fill="#e6e6e6"/>
<rect x="215.9" y="55.686" width="649.01" height="359.49" fill="#fff"/>
<rect x="195.92" width="688.38" height="29.245" fill="#319795"/>
<circle cx="217.66" cy="14.952" r="5.4203" fill="#fff"/>
<circle cx="238.23" cy="14.952" r="5.4203" fill="#fff"/>
<circle cx="258.8" cy="14.952" r="5.4203" fill="#fff"/>
<path transform="translate(-157.7 -135.7)" d="m742.45 281.89a5.2335 5.2335 0 0 0-0.19223 1.234z" fill="#7f77ff"/>
<path transform="translate(-157.7 -135.7)" d="m659.45 319.88c-0.03816-0.90346-0.19957-1.281-0.34635-1.3266 0.10617 0.83884 0.20548 1.5278 0.34635 1.3266z" fill="#7f77ff"/>
<path transform="translate(-157.7 -135.7)" d="m657.77 338.94c-0.02932 0.39133-0.0587 0.75333-0.10761 1.1936a1.88 1.88 0 0 1 0.10761-1.1936z" fill="#7f77ff"/>
<path transform="translate(-157.7 -135.7)" d="m742.26 283.13-0.50879 3.1702c0.52784 0.22179 0.39186-1.6248 0.50879-3.1702z" fill="#7f77ff"/>
<path transform="translate(-157.7 -135.7)" d="m770.88 253.59 0.96371-0.00244a4.9624 4.9624 0 0 0 0.80063-0.658z" fill="#7f77ff"/>
<path transform="translate(-157.7 -135.7)" d="m808.65 255.26a1.141 1.141 0 0 1 0.86906-0.94221 6.2149 6.2149 0 0 0-0.864-0.97351c-0.46673-0.05971 0.02534 1.315-0.00506 1.9157z" fill="#7f77ff"/>
<path transform="translate(-157.7 -135.7)" d="M848.16881,228.32035c.12612-.01917.24615-.038.34187-.05715Z" fill="#7f77ff"/>
<path transform="translate(-157.7 -135.7)" d="m847.38 228.45 0.78785-0.13168c-0.26113 0.03962-0.5581 0.08089-0.78785 0.13168z" fill="#7f77ff"/>
<path transform="translate(-157.7 -135.7)" d="m740.65 256.84a0.45758 0.45758 0 0 0-0.49069 0.22459c0.17175 0.11173 0.33561-0.00292 0.49069-0.22459z" fill="#7f77ff"/>
<path transform="translate(-157.7 -135.7)" d="m896.33 229.86 0.07387 0.64489a3.0682 3.0682 0 0 0 0.77053 0.13955z" fill="#7f77ff"/>
<path transform="translate(-157.7 -135.7)" d="M654.72658,362.1037c.0098,0,.0098.0098-.00979.02933,0,.00979-.00979.01958-.01953.02938,0,.01958-.14678.03911-.25439.0587a.8391.8391,0,0,0-.16637-.02938c.14678-.01953.29356-.04891.411-.0587C654.707,362.1135,654.71679,362.1037,654.72658,362.1037Z" fill="#7f77ff"/>
<path transform="translate(-157.7 -135.7)" d="m544.57 513.61c-3.8562-1.2288 6.2758-1.5777 0.47009-2.944 0.54061 0.53861-5.2768 2.1451-0.47009 2.944z" fill="#7f77ff"/>
<path transform="translate(-157.7 -135.7)" d="m575.4 379.85a2.4095 2.4095 0 0 1-0.60661 0.87073c0.29357-0.64571 0.45988-0.84141 0.60661-0.87073z" fill="#7f77ff"/>
<path transform="translate(-157.7 -135.7)" d="m632.49 364.97a9.6356 9.6356 0 0 1-1.5752-0.17611z" fill="#7f77ff"/>
<path transform="translate(-157.7 -135.7)" d="m554.97 384.71a4.2667 4.2667 0 0 0-1.6264 4.2e-4 1.626 1.626 0 0 0 0.35549 0.16726 2.4675 2.4675 0 0 1 1.2709-0.16768z" fill="#7f77ff"/>
<path transform="translate(-157.7 -135.7)" d="M554.96633,384.709c.2043.03577.41808.077.69027.11048A5.335,5.335,0,0,0,554.96633,384.709Z" fill="#7f77ff"/>
<path transform="translate(-157.7 -135.7)" d="M521.25925,384.82774c.18214.10522.42309.18392.63461.2769.34086-.02311.73894-.0501,1.09-.07387Z" fill="#7f77ff"/>
<path transform="translate(-157.7 -135.7)" d="m549.81 385.75a0.13721 0.13721 0 0 1-0.07829 0.10761c0.03911-0.0587 0.07829-0.10761 0.07829-0.10761z" fill="#7f77ff"/>
<path transform="translate(-157.7 -135.7)" d="m890.71 511.62c-0.22209-0.01917-0.44173-0.0375-0.685-0.06365 0.25635 0.03302 0.47897 0.05159 0.685 0.06365z" fill="#7f77ff"/>
<path transform="translate(-157.7 -135.7)" d="m899.99 480.05c-0.0083 4.2e-4 -0.01553 0.00574-0.02389 0.00574 0.00818 0.03744 0.01606 0.02645 0.02389-0.00574z" fill="#7f77ff"/>
<path transform="translate(-157.7 -135.7)" d="m629.55 365.86a5.3836 5.3836 0 0 0 1.0273-0.3033c0.71421 0.18589-0.26419 0.1761-1.0273 0.3033z" fill="#7f77ff"/>
<path transform="translate(-157.7 -135.7)" d="m898.99 359.49c0.05279-0.23194 0.10778-0.4929 0.17317-0.81114-0.06359 0.27404-0.116 0.54116-0.17317 0.81114z" fill="#7f77ff"/>
<path transform="translate(-157.7 -135.7)" d="M900.75506,463.691a2.06329,2.06329,0,0,1,.44029-.62619l.13693.4892a8.84769,8.84769,0,0,0-.19563-3.0037,29.14317,29.14317,0,0,0,.37173-3.943c1.0371-.55769.5577-5.59642.6164-8.02283-1.36972.19563-1.15451-2.92547-2.2601-.07829.07829-.16631.12719.66531.1859,2.15249a6.59548,6.59548,0,0,0,.14678,1.0371c-.03911-.049-.07829-.10766-.1272-.16637.02932,1.5948.05871,3.6788.09782,6.04657a9.89108,9.89108,0,0,1-.52831-6.62379c-.88059-1.24259-1.79049-2.6221-2.2112-3.39508,1.91769-3.32652,2.95479-9.74482,4.12888-10.6352-.76318-7.426-.50879-17.4938-3.09178-22.17052-.33262-2.11337.7436-2.42641,1.15451-3.219.25439,1.223.21528,2.67107.58707,3.33638-.6653-4.2267-.25439-12.51372-2.06447-13.5215.81209-5.3225,1.6633,2.9939,1.36979-4.32451l.5479.98819c2.83738-14.13789-4.3441-23.08048-1.07622-38.52939-.12719.57722-.2446.9197-.45988,1.07622,1.634-18.17869-1.53609-37.47271,1.05669-55.41659.51852-5.09743-.62619-5.65512-1.50671-8.76643l1.47733-1.10559-1.7024-5.3225c-1.25232-7.54349,3.62009-13.06168,1.26217-22.6206l-.998,1.23279c.1957-3.43419-.587-10.87007.5577-10.29279a2.43966,2.43966,0,0,1-.50879-2.46558l.773-.10761-1.33067-8.43381c.55769-6.52591,3.07219,1.02731,3.219-8.51209-.29357-3.5418-2.25037-10.0873-2.76889-8.75669-.02938,1.42849-.4794,3.64947-1.25238,3.75708l-.40112-3.2385c-.14678-.03917-.28371-.07829-.43049-.1272v-.51858h-1.39911a2.3532,2.3532,0,0,0-1.8394,0H857.65655l.38153-.38153-1.1545.38153h-4.95071c.14679-.2935.6164-.5381,1.5948-.65551-3.6005-1.00772-3.18959.724-6.27152-.40112-.34247-.1761-.19569-.274.1272-.35226l-3.52228.6066c.69469-.43044-.57722-1.43822,1.57521-1.14471-6.30089-1.17409-10.16553,1.5263-12.543-.01953l.52831-.11746c-6.54549.50878-3.77661,1.08607-4.71589,2.084H824.616l-.82188-.68483-1.10559-.9197a7.79269,7.79269,0,0,0-1.223-.9197,11.583,11.583,0,0,0-.90012,1.48713c-1.01751-.04891-3.1113-.15652-3.01348-.76312-1.79043.51852-1.41864.6751-.98814.83162.46961.15657,1.0371.3033.313.7925a18.45938,18.45938,0,0,0-3.49284-.47941c-.12719,2.17208.02932,4.804-.01959,6.80969-.0489,2.09373-.2935,3.44392-1.25238,3.86469,1.135,1.55562.88059-4.1582,1.67309.47941-2.5634,1.30122.4305,5.42031-.74359,9.285-1.32082-1.11539-.6164-4.9507-1.80023-.95881a3.48217,3.48217,0,0,1,.80224,1.38931,4.35527,4.35527,0,0,1,.03917,1.5948,14.69191,14.69191,0,0,1-.7925,2.7493,4.82654,4.82654,0,0,0-1.7709-.10761c.587.89032-.724,1.07621-2.6906,1.11533-1.18389,0-2.54388.00979-3.93319.00979-1.4578.01959-2.95478.0587-4.36368.20549.35227-.59681-10.5765-.96861-15.80113-1.61439l.14673-.3033c-1.00772,1.80029-6.39872,1.45781-10.3319,1.82961.15658-1.07622.861-1.49692,2.9939-1.97633l-3.69832.00973c-.87079.57728-2.0155.88059-4.41259,1.08607l.92949-1.35019c-2.4558.03911-4.93112.44023-7.5826.71421-1.33061.137-2.6906.2348-4.12888.25439-.71421.0098-1.448-.00979-2.2014-.04891-.3718-.01958-.75333-.049-1.13492-.08808q-.64575-.07336-1.29149-.14678c-.137.31309.34241.69468.64577,1.08607a8.80637,8.80637,0,0,1,1.01752,1.23279.85294.85294,0,0,1,.088.84141h-3.4244c.00979-.3718.23487-.70448.95887-.88058a7.38655,7.38655,0,0,1-3.10157.20548c.78277-.3718,1.69267-.75339,2.72-1.135-3.71791-.49893-1.5263.94908-4.13861.84147-.53817-.95887-2.5047-.68489-2.72-1.44807.7338-.09782,2.84718.39138,3.7864.01959-1.947-.09782-4.24622-.32289-6.3596-.636a8.3257,8.3257,0,0,1-.84141,2.7004c.5479.04891,1.30129.9686,1.4187,3.4831.03911,3.219-.2544,3.73749-.6164,3.943-.17611.09782-.3718.10761-.5577.362a2.28648,2.28648,0,0,0-.26418.5577,3.932,3.932,0,0,0-.21522.812c.6653,1.19368-.02938,4.32457,1.41869,4.41259-.00979,1.43828-.68489,1.70241-1.07628,2.2601.636,2.54388.1859,11.87779,1.722,9.01109l.09781-.65551c.02938.12719.03918.26412.0685.4207a39.85871,39.85871,0,0,1,.46967,7.6413c-.0587,2.13291-.26419,4.1582-.45988,5.9389-1.43822-.1272-2.76889-.23481-4.01141-.29351-.62619-.01959-1.2328-.03918-1.8394-.01959l-1.17409.02932c-.41091.02938-.83162.049-1.24259.0685l.01959-.47941c-4.94091.5479-10.99721.32289-14.51942,1.36978-1.45787-.00979-3.444-.89037-2.8178-1.4578-3.77667.362-4.19738.90011-9.64707.10761,3.7864-.84141-1.311-.75339,3.88428-.6164-4.90179-.4207-6.01719-1.19368-11.281.1272,1.79049-1.24259-3.68853-1.55568-6.01713-1.19368l3.4342.89038a61.23355,61.23355,0,0,1-7.24019-.03918l1.25233-1.62412c-5.00941-.98819-9.5394-.14678-13.766.52832a39.94327,39.94327,0,0,1-6.13459.636l-.74359-.00979-.949-.04891c-.7338-.03911-1.47739-.09787-2.23078-.1859a45.24887,45.24887,0,0,1-4.90179-.861c-1.76111.56748.58707.76318,2.7493.98819,2.221.225,4.23649.47941,2.71019,1.14471a78.21973,78.21973,0,0,1-9.63722-1.24259,37.73365,37.73365,0,0,0-1.32088,6.526c-.1174,1.28171-.15651,2.446-.15651,3.47331,0,.50879.00979.998.03911,1.448.00979.20548.01959.50878.03912.6066.01958.1174.03917.2446.0587.362a10.96406,10.96406,0,0,0,.79256,2.45579,11.43282,11.43282,0,0,1,.98813,6.3694c.57728-.85121,2.13291-1.64371,2.67107,3.2972-.1174,2.73951-.95887,4.23649-1.7122,4.37348-.4207.088-.81208-.25439-1.0371-1.01757a3.13135,3.13135,0,0,1-.14678-.59681c-.04891-1.1056.137-1.63391.33268-1.5948-.21528-1.48719-.45988-3.444-1.08607-1.61432l.57728.59681a18.17241,18.17241,0,0,0-.37179,2.54381c-.26419,2.6319-.42071,5.6943-1.11539,4.60829.4794,2.9841.84141,1.9568,1.12518-.02938-.6164,5.28338.0685,8.57079-.45988,14.29446.32289-.96866,1.00778-1.86877.998-.90017-.724,8.94259,1.1056,3.943,1.36,9.99928-.89038,3.44393-2.11338-1.23279-1.37958,4.86262-.59681,3.7277-1.53609.7925-2.00571-.68489a21.70749,21.70749,0,0,1,.01959,7.67068c-.02938.16631-.04891.33268-.07829.4892-.01958.1174-.03911.2446-.0587.362l-.03911.20549c-.0098.0587-.01959.04891-.02938.06849l-.07829.09782a1.78726,1.78726,0,0,1-.29351.26419,2.917,2.917,0,0,0-.39133.27392,1.99115,1.99115,0,0,0-.35226-.42071.64863.64863,0,0,1,.15657.499,3.63058,3.63058,0,0,0,.3718.21522,3.758,3.758,0,0,0,.7925.3033c-.19569.28377-.20548.56749-.58707.21528a.64064.64064,0,0,1-.11741-.10761,6.96929,6.96929,0,0,0,1.21327,1.37952c.50873.51858,1.11533,1.07621.53811,1.59479a6.09822,6.09822,0,0,0-2.4558-.09781c-.20548.00973-.41091.00973-.6066,0a7.8201,7.8201,0,0,1-.9197-.10767,1.638,1.638,0,0,1-1.23279-.70442c.9099.06849,1.56541.088,2.05461.07829.26419,0,.362-.03918.4403-.10767.137-.11741.03917-.34242-.04891-.57723-.16631-.40117-.225-.8512.06849-1.07627a.5771.5771,0,0,1-.137.01959.83366.83366,0,0,1-.25439-.04891c-.3718-.02938-.75333-.0685-1.15451-.10761-.25439-.17611.2446-.32289.71422-.411-.52832-.10761-.99793-.1859-1.40884-.2446a6.87554,6.87554,0,0,0-2.45579,0c-1.7807.4207-1.39911,1.97638-6.44769,1.94706.90011-.861-1.66329-1.64376-2.82759-1.45786,2.88629.01958,1.37958,1.44807-1.26211,2.11337-4.5887-.67509-4.98008.499-7.38691.42071l2.73951.32289c-.92949.87073-3.21892.75333-6.40851,1.02731-.08808-.21528.15652-.33269.50873-.42071-3.2972.50873-7.24992-1.76111-11.58422-.9197a.57568.57568,0,0,0-.1272.01953c-2.28948-.587-.225-1.62412-2.24051-2.02524-5.53778,1.12513-5.9976-1.19367-11.82889-.26418,1.68288,1.17409,1.97639.89032-2.1329,2.02529l9.58831-.82188-6.15412,1.69267c2.896.01953,6.10521-.7338,7.837-.52837-2.9352.94908-2.6319.65551-1.24259,1.62418-3.96251-1.75138-7.84679,1.0273-12.4159-.15658l.137-2.896a27.20633,27.20633,0,0,0-8.77628.03912l-1.11533.14672-.55769.0685-.14679.01958-.225.01959-.45988.03912c-1.20341.08808-2.42641.18589-3.68853.28371-2.47538.16637-4.99967.28377-7.8859.26419-.00979,1.29149-.049,2.6319-.11746,4.031l.45988-3.68853.362.03912a.39668.39668,0,0,1-.1761.14672,18.35844,18.35844,0,0,1,.41091,5.53778c0,.16631-.0098.34241-.0098.51852v.00979c-.01952.9197-.0489,1.87857-.0587,2.83739q0,.85124.02938,1.67308c.0098.27392.02932.53811.03912.80224l.02938.38159.03911.26419c-.9686-.274-1.32081,1.53609-1.91768,2.76888.17616-.03917.26419.35221.32289.96861.0587.25439.08808.56743.15657.93923a5.1731,5.1731,0,0,0,1.37952,2.70039,2.42161,2.42161,0,0,1-.499.38159,17.13229,17.13229,0,0,1-1.76111-.77291,2.825,2.825,0,0,0-1.78069.20542c-.1272.0587-.2544.1272-.3816.19569a.98459.98459,0,0,1-.32282.10761c-.137.03918-.274.07829-.40118.11741-.53811.16637-1.0469.34247-1.54589.51858a17.20131,17.20131,0,0,1-7.47493,1.2817c2.084-1.0469-1.06648-1.73179,3.58092-2.48512-2.31881-.00979-4.393-.18589-4.43212.47941a1.99028,1.99028,0,0,0-.79251-.1174c-1.16429.00973-3.03307.45982-4.74527.6653a8.03771,8.03771,0,0,1-2.47532,0,2.08861,2.08861,0,0,1-.52838-.15658,2.96469,2.96469,0,0,0-.3033.15658A4.67734,4.67734,0,0,1,549.803,386.231a.25008.25008,0,0,1-.06849-.3718c-.51852.40118-3.81579.62619-1.7122,1.61439-3.082-1.30129-7.2206-1.43828-11.4375-1.37958-5.52793.0685-11.17331.47947-14.69559-.98813-2.52423.15651-5.30291.32283-8.03262.45-1.36.04891-2.71019.10767-4.00169.15658-.64571.01953-1.2817.03911-1.8883.0587-.68489.0098-1.3404.02932-1.96659.03912.19569-.14673.19569-.26419.3033-.33263a1.22958,1.22958,0,0,1,.75339-.049c-.17611-.01953-.29351-.04891-.50879-.05871-.21522-.01952-.4305-.02932-.63593-.0489-.411-.01959-.7925-.02932-1.14477-.03912a15.30767,15.30767,0,0,0-1.80022.09782,5.38684,5.38684,0,0,0-2.084.64578,5.77888,5.77888,0,0,1-3.5418,1.3306,17.04431,17.04431,0,0,1-.15658,3.15042c-.39132.85121-.63592,1.0469-.80223.76318a5.76562,5.76562,0,0,1-.28378-1.80028c-.088-1.55562-.0587-3.31673-.35221-2.00571-1.585-.70441-1.47739,3.033-1.20341,7.12278.13693,2.37751.3131,3.41461.34242,4.91153a10.80214,10.80214,0,0,1-.5577,4.02127l-.1859-1.17409c-1.086,3.69832,1.20348,9.03061.9784,15.07712,0,0-.28371-.29351-.4794-.03912,1.61438,4.13861,2.15249,11.96581,2.60252,17.77751-1.24253-1.81-.65552-2.64169-1.91763-1.53609.1761,2.61231,2.02529-.76312,2.3775,4.442-.67509,1.69261-1.2719,5.44964-2.6221,5.94863l-.07829-4.91153c-1.74152,2.51444.0685,6.34981-.23481,8.94253l-.76318-.33262c.2446,7.5239,2.16229,7.63151,2.0253,15.7131l.57728-.83168c1.90789,4.42239-1.06648,3.70818.35221,8.111l-1.93721,1.3404c.46961,2.91561,1.86872,10.20471,2.23072,15.43912-1.42843-2.96452-2.16223-9.07952-3.01343-12.86592-.00979,2.88629.14672,9.82311,1.0958,11.32989-.1859-1.1643-.65557-2.6319-.362-3.78647,1.51651,3.54187,2.2601,8.20879,2.23072,13.97158-1.223-.33268-1.75131,1.15451-2.00571,3.46352-.00979.14678-.02938.29357-.03911.45008-.0098.21522-.02938.4403-.03918.66531-.01952.45988-.03911.92949-.06849,1.41869-.01953.9784-.04891,2.0155-.07823,3.07219-.049,2.16223-.09788,4.43212-.14678,6.63352,4.47129.14678,8.58058.46961,10.96788,1.47739l.8023-.06849.49893-.0587.95887-.09782q.9539-.088,1.90783-.14678c1.272-.088,2.54388-.11741,3.82558-.1272,2.55361-.00979,5.1366.09788,7.7685.2446,5.2638.29351,10.733.7338,16.67191.6164-4.2071-2.90582,3.46358-.07829,2.73951-3.07219,2.73957-.1859,3.7962-.13693,4.05059.049l-.40112-.08809c.14673.03912.26413.0685.42071.10761v-.00979l8.3751,1.78069c1.98612.87079-2.6319.65558-2.3775,1.33061,6.05629.23487,2.54381,1.272,6.54549,2.06447-.82188-1.06648,2.10353-1.53609,5.55731-1.12518L558.2759,513.335c8.46318-1.5948,7.31847,2.5145,15.8403.92943l-2.70034.94908c4.38322-.55769,16.1436.01959,20.43873-2.3873.773.34242,1.80028,1.1643-.12719,1.37952,10.45909.36207,23.27617-2.55361,31.40667-1.07621l-.7925.7338c1.947-.21522,3.395-1.37952,5.841-.64572-.1272.3033-.7925.7338.1174.77291,1.02731-.2446,5.17577-1.2817,7.7685-.8512l-2.2112.82182c6.41831.60667,10.9581-.34241,15.57618-1.26211a61.39013,61.39013,0,0,1,8.62949-1.24259c-.01959,2.15249,8.0033,2.857,12.01472,3.19939l-.14678.3033a106.329,106.329,0,0,0,14.25529-.69469c3.62989-.40111,7.1521-.9099,10.8798-1.33061h.0098c.2348-.02932.46967-.0587.71427-.088.861-.09787,1.74152-.1859,2.6319-.274.27392-.02932.55763-.0587.84141-.088q.9099-.07346,1.84919-.14679a38.24031,38.24031,0,0,0,9.54913,1.3502c7.6511.3718,17.27858.0685,24.55788.93929-1.68288-.39139.27392-1.68288,2.22092-1.8981,2.41668.41091,6.56509-1.26218,6.7314.15652a.94917.94917,0,0,1-.01953.32288l-.87079-.03917h-.04891l.0098.00979c1.947,1.92748,7.23033,1.4187,11.35921,1.4676l.67509-2.583c10.81131,3.75709,28.32469-1.37951,34.22442,1.98618,2.61231-.64571,5.84107-.636,8.424-1.2817l-.13693,1.37952a184.91357,184.91357,0,0,0,19.76364.19569l-1.81981.998c5.03878.088,6.3596-4.00168,11.01679-4.07991l1.38931,2.06441c8.79581-.02938,17.68949,1.79049,26.37768-.08808-.137.3033-.40117.90017-1.81981.98819,4.00163.04891,15.2337,1.31108,14.60751-1.17409.95881,1.3991,9.21651-.1272,13.70739-.90011l-.7338,1.36c2.00571-.87079,3.033-1.42849,4.26581-1.81981a14.25085,14.25085,0,0,1,2.1427-.499c.45-.06849.88052-.137,1.49692-.19569.74359-.0587,1.585-.1174,2.53408-.1859,1.68282.16631,1.9666.9197-.00979.81209a12.65891,12.65891,0,0,0,4.41259-.19569,12.72009,12.72009,0,0,1,3.757-.59681,25.06637,25.06637,0,0,1,.15658-2.945c.29351,1.13491.587,2.33839.87079,3.61029a33.18583,33.18583,0,0,0-.26418-6.27157c-.23481-1.25232-.60661-2.18181-1.1056-3.9136-.03912-.23481-.0685-.4892-.088-.75333-.01959-.2446-.03918-.4892-.05877-.75339-.01952-.43049-.02932-.90011-.01952-1.36978a22.13718,22.13718,0,0,1,.28371-2.90582c.3033-1.8883.84141-3.49289,1.45781-3.82558-.75333-.61633-1.76111-3.10151-1.4089-5.78231.46967-.362.76318.6066.90017,1.10559.92943-7.60218-1.585-11.3103-.2446-16.535a1.149,1.149,0,0,0,.812-.88052c-.02932,5.53771-.09782,10.0775-.1859,10.43951,1.24259-.0685,1.4676-4.85289,3.18959-.998C902.22266,475.13822,900.168,468.446,900.75506,463.691Zm1.10559-10.12648c.19563,1.62418-.07829,2.16229-.362,2.3873-.01959-.76312-.0685-1.66329-.16637-2.83738-.04891-.03912-.10761-.13693-.16631-.18584A1.86326,1.86326,0,0,1,901.86065,453.56451Zm-56.0036-223.9166a2.15461,2.15461,0,0,1,.46961.21522h-2.0742C844.75145,229.7849,845.27977,229.71641,845.85705,229.64791Z" fill="#319795"/>
<path transform="translate(-157.7 -135.7)" d="m655.35 362.62a0.36337 0.36337 0 0 1-0.2446 0.1174 0.8131 0.8131 0 0 1 0.2446-0.1174z" fill="#7f77ff"/>
<path transform="translate(-157.7 -135.7)" d="m629.33 365.9c0.07619-0.01188 0.1509-0.03 0.22632-0.045-0.07841 0.01329-0.15437 0.02834-0.22632 0.045z" fill="#7f77ff"/>
<path transform="translate(-157.7 -135.7)" d="M900.05326,450.65851a5.23178,5.23178,0,0,1-.10026-.66691c-.12182.33053-.22454.64488-.30915.96514l.431.57292Z" fill="#7f77ff"/>
<path transform="translate(-157.7 -135.7)" d="M742.44775,281.8936a1.38713,1.38713,0,0,1,.19569-.45247c-.06653.144-.10958.144-.1644.23653Z" fill="#7f77ff"/>
<path transform="translate(-157.7 -135.7)" d="m810.83 228.21c0.4416 0.01069 0.94119 0.64805 0.84577 5.3295l0.29452-5.7524 2.1609 0.10421c-1.7444-0.5313-4.6247-1.2455-0.63819-1.3732-1.3734-0.16028-2.4213-0.28264-3.1606-0.36893-0.32755 2.7585 0.05595 2.0729 0.49756 2.0608z" fill="#7f77ff"/>
<path transform="translate(-157.7 -135.7)" d="m810.9 252.16c-0.12355-1.0962-0.31638-1.1269-0.51589-0.99823-0.19946 0.1395-0.40554 0.4191-0.55549 0.28252 0.48383 1.2986 0.60565 1.928 1.0714 0.71571z" fill="#7f77ff"/>
<path transform="translate(-157.7 -135.7)" d="m715.65 293.75 0.3408-1.2514c-2.6105 0.18005-0.02496 0.48484-0.3408 1.2514z" fill="#7f77ff"/>
<polygon points="512.77 155.8 512.99 155.78 513.39 155.74 515 155.61 516.14 155.43 513.96 155.65 512.87 155.77 511.1 155.88 512.44 155.81" fill="#7f77ff"/>
<path transform="translate(-157.7 -135.7)" d="m527.38 383.61 0.78886 1.5405c1.7644-0.27596 2.1345-2.0077-0.78886-1.5405z" fill="#7f77ff"/>
<path transform="translate(-157.7 -135.7)" d="m495.17 462.51a7.3465 7.3465 0 0 0-0.50872 5.7704c0.10611-2.302 0.70687-4.5981 0.50872-5.7704z" fill="#7f77ff"/>
<polygon points="600.65 378.82 604.54 378.4 602.71 378.31" fill="#7f77ff"/>
<path transform="translate(-157.7 -135.7)" d="m777.39 388.23a148.54 148.54 0 0 1-4.9409 35.144c-11.858 43.832-44.302 75.728-61.786 90.316a38.24 38.24 0 0 1-9.5491-1.3502q-0.93929 0.07336-1.8492 0.14679c-0.28378 0.02932-0.56749 0.0587-0.84141 0.088-0.89038 0.08808-1.7709 0.17611-2.6319 0.274-0.2446 0.02932-0.47947 0.0587-0.71427 0.088h-0.0098a222.09 222.09 0 0 1-12.103-45.799l-0.00973-0.0098v-0.00973c-3.0233-20.077-3.5125-43.637 2.8569-67.177a146.42 146.42 0 0 1 11.261-28.775c22.738-44.126 62.06-70.415 62.06-70.415s19.431 39.909 18.257 87.479z" fill="#fff"/>
<path transform="translate(-157.7 -135.7)" d="m657.77 338.94c-0.02932 0.39133-0.0587 0.75333-0.10761 1.1936a1.88 1.88 0 0 1 0.10761-1.1936z" fill="#fff"/>
<path transform="translate(-157.7 -135.7)" d="m629.55 365.86a5.3836 5.3836 0 0 0 1.0273-0.3033c0.71421 0.18589-0.26419 0.1761-1.0273 0.3033z" fill="#fff"/>
<path transform="translate(-157.7 -135.7)" d="m630.91 364.79 1.5752 0.17611a9.6356 9.6356 0 0 1-1.5752-0.17611z" fill="#fff"/>
<path transform="translate(-157.7 -135.7)" d="M654.44287,362.22111a.8391.8391,0,0,0-.16637-.02938c.14678-.01953.29356-.04891.411-.0587.01953-.01953.02932-.02933.03911-.02933s.0098.0098-.00979.02933c0,.00979-.00979.01958-.01953.02938C654.69726,362.182,654.55048,362.20152,654.44287,362.22111Z" fill="#fff"/>
<path transform="translate(-157.7 -135.7)" d="m655.35 362.62a0.36337 0.36337 0 0 1-0.2446 0.1174 0.8131 0.8131 0 0 1 0.2446-0.1174z" fill="#fff"/>
<path transform="translate(-157.7 -135.7)" d="M711.21939,467.05663c0,.01958-.0098.03917-.0098.05876a221.77814,221.77814,0,0,1-11.94622,45.3684c-.28378.02932-.56749.0587-.84141.088-.89038.08808-1.7709.17611-2.6319.274-.2446.02932-.47947.0587-.71427.088h-.0098c-3.7277.42071-7.24991.9295-10.8798,1.33061-17.3079-14.31393-50.45609-46.474-62.461-90.89332a148.00177,148.00177,0,0,1-4.9507-35.1539,180.07086,180.07086,0,0,1,.96861-23.237c4.3343-.84141,8.287,1.42843,11.58422.9197-.35221.088-.59681.20543-.50873.42071,3.18959-.274,5.479-.15658,6.40851-1.02731l-2.73951-.32289c2.40683.07829,2.79821-1.0958,7.38691-.42071,2.64169-.6653,4.1484-2.09379,1.26211-2.11337,1.1643-.1859,3.7277.59687,2.82759,1.45786,5.04858.02932,4.667-1.52636,6.44769-1.94706h2.45579c.41091.0587.88052.137,1.40884.2446-.46962.08808-.96861.23486-.71422.411.40118.03911.78271.07823,1.15451.10761a.83366.83366,0,0,0,.25439.04891.5771.5771,0,0,0,.137-.01959c-.29351.22507-.2348.6751-.06849,1.07627.08808.23481.1859.45982.04891.57723-.07829.06849-.17611.10767-.4403.10767-.4892.00973-1.14471-.0098-2.05461-.07829a1.638,1.638,0,0,0,1.23279.70442,7.8201,7.8201,0,0,0,.9197.10767c.19569.00973.40112.00973.6066,0a6.09822,6.09822,0,0,1,2.4558.09781c.57722-.51858-.02938-1.07621-.53811-1.59479a6.96929,6.96929,0,0,1-1.21327-1.37952.64064.64064,0,0,0,.11741.10761c.38159.35221.39138.06849.58707-.21528a3.758,3.758,0,0,1-.7925-.3033h.71421v-1.56542c.02938-.15652.04891-.32289.07829-.4892a21.70749,21.70749,0,0,0-.01959-7.67068c.46962,1.47739,1.4089,4.41259,2.00571.68489-.7338-6.09541.4892-1.41869,1.37958-4.86262-.25439-6.0563-2.084-1.05669-1.36-9.99928.00979-.9686-.6751-.06849-.998.90017.52838-5.72367-.15652-9.01108.45988-14.29446-.28377,1.98618-.64578,3.01348-1.12518.02938.69468,1.086.8512-1.97639,1.11539-4.60829.225.21528.45982.44029.69468.66531.34242.33268.69463.67509,1.0371,1.01757,12.19083,11.96581,26.4853,28.716,37.1205,49.4092a.00953.00953,0,0,1,.00973.00973,145.50852,145.50852,0,0,1,11.27119,28.765C714.71228,423.45913,714.23287,446.9799,711.21939,467.05663Z" fill="#fff"/>
<path transform="translate(-157.7 -135.7)" d="m575.4 379.85a2.4095 2.4095 0 0 1-0.60661 0.87073c0.29357-0.64571 0.45988-0.84141 0.60661-0.87073z" fill="#3f3d56"/>
<path transform="translate(-157.7 -135.7)" d="m549.81 385.75a0.13721 0.13721 0 0 1-0.07829 0.10761c0.03911-0.0587 0.07829-0.10761 0.07829-0.10761z" fill="#3f3d56"/>
<path transform="translate(-157.7 -135.7)" d="m695.79 512.85c-0.2446 0.02932-0.47947 0.0587-0.71427 0.088h-0.0098c-3.7277 0.42071-7.2499 0.9295-10.88 1.3306a106.33 106.33 0 0 1-14.255 0.69469l0.14678-0.3033c-4.0114-0.34242-12.034-1.0469-12.015-3.1994a61.39 61.39 0 0 0-8.6295 1.2426c-21.163-6.8879-45.809-18.55-65.974-38.177-28.423-27.659-41.249-64.614-46.875-88.428 4.2169-0.0587 8.3555 0.07829 11.438 1.3796-2.1036-0.9882 1.1937-1.2132 1.7122-1.6144a0.25008 0.25008 0 0 0 0.06849 0.3718 4.6773 4.6773 0 0 0 3.5907-1.1936h8.0523v-0.6653a1.9903 1.9903 0 0 1 0.79251 0.1174c0.03911-0.6653 2.1133-0.4892 4.4321-0.47941-4.6474 0.75333-1.4969 1.4382-3.5809 2.4851a17.201 17.201 0 0 0 7.4749-1.2817c0.499-0.17611 1.0078-0.35221 1.5459-0.51858 0.1272-0.03912 0.26419-0.07823 0.40118-0.11741a0.98459 0.98459 0 0 0 0.32282-0.10761c0.1272-0.06849 0.2544-0.137 0.3816-0.19569a2.825 2.825 0 0 1 1.7807-0.20542 17.132 17.132 0 0 0 1.7611 0.77291 2.4216 2.4216 0 0 0 0.499-0.38159 5.1731 5.1731 0 0 1-1.3795-2.7004c-0.06849-0.3718-0.09787-0.68484-0.15657-0.93923-0.0587-0.6164-0.14673-1.0078-0.32289-0.96861 0.59687-1.2328 0.94908-3.0429 1.9177-2.7689l-0.03911-0.26419-0.02938-0.38159c-0.0098-0.26413-0.02932-0.52832-0.03912-0.80224q-0.02937-0.82194-0.02938-1.6731c0.0098-0.95882 0.03918-1.9177 0.0587-2.8374a192.81 192.81 0 0 1 39.537 17.093 148.67 148.67 0 0 1 29.284 21.985c17.65 17.181 29.284 37.942 36.895 56.914v0.00973l0.00973 0.0098a221.66 221.66 0 0 1 12.827 45.711z" fill="#3f3d56"/>
<path transform="translate(-157.7 -135.7)" d="M743.23266,513.16862h.04891a.074.074,0,0,1-.03911.00979Z" fill="#3f3d56"/>
<path transform="translate(-157.7 -135.7)" d="m861.73 362.23s-5.5573 68.038-51.014 112.29c-20.351 19.813-45.251 31.504-66.541 38.363-0.16631-1.4187-4.3147 0.25439-6.7314-0.15652-1.947 0.21522-3.9038 1.5067-2.2209 1.8981-7.2793-0.87079-16.907-0.56749-24.558-0.93929a38.24 38.24 0 0 1-9.5491-1.3502q-0.93929 0.07336-1.8492 0.14679c-0.28378 0.02932-0.56749 0.0587-0.84141 0.088a222.34 222.34 0 0 1 12.797-45.515c7.6315-18.952 19.265-39.694 36.886-56.845a148.47 148.47 0 0 1 29.284-21.985c40.721-23.619 84.338-25.996 84.338-25.996z" fill="#3f3d56"/>
<path transform="translate(-157.7 -135.7)" d="m222.12 322.96s-13.627 27.255-34.688 33.449 50.793 0 50.793 0-3.7166-19.822 1.2388-22.299-17.344-11.15-17.344-11.15z" fill="#a0616a"/>
<path transform="translate(-157.7 -135.7)" d="m200.1 276.14c-0.74115-6.4575 2.7907-12.167 7.8888-12.752 0.05776-0.00664 0.11469-0.00341 0.17241-0.00867a7.4433 7.4433 0 0 0-1.924-0.03146c-5.098 0.58506-8.6299 6.2943-7.8888 12.752 0.73277 6.3843 5.3688 11.101 10.4 10.641-4.3157-0.6268-8.0021-4.967-8.6488-10.601z" fill="#2f2e41"/>
<path transform="translate(-157.7 -135.7)" d="m204.67 284.9c-6.1565-2.0847-9.8132-7.7148-8.1674-12.575 0.01863-0.05506 0.04584-0.10518 0.06571-0.15962a7.4438 7.4438 0 0 0-0.84929 1.7266c-1.6459 4.8604 2.0108 10.49 8.1674 12.575 6.0867 2.061 12.33-0.11967 14.062-4.8663-2.4082 3.6358-7.9063 5.1182-13.278 3.2993z" fill="#2f2e41"/>
<path transform="translate(-157.7 -135.7)" d="m162.08 404.29 1.821 52.472 28.494 66.898s-7.4331 34.688 7.4331 33.449 1.2388-34.688 1.2388-34.688l-13.627-70.614-2.4777-58.226z" fill="#a0616a"/>
<circle cx="84.242" cy="178.59" r="27.255" fill="#a0616a"/>
<path transform="translate(-157.7 -135.7)" d="m264.24 361.37-26.859-10.73s-5.3507 0.81956-20.217 2.0584-21.467 0.07033-21.467 0.07033-31.803 11.079-30.565 17.274 14.866 104.06 21.06 99.108 9.9108-6.1942 9.9108-6.1942l68.137-6.1943z" fill="#cfcce0"/>
<path transform="translate(-157.7 -135.7)" d="m170.09 367.56h-4.0316s-4.6403 2.4777-4.6403 9.9108-3.7166 29.732-3.7166 29.732h19.822z" fill="#cfcce0"/>
<path transform="translate(-157.7 -135.7)" d="m206.64 379.33-14.963-24.171a3.3815 3.3815 0 0 0-3.2946-1.5755l-3.9019 0.48774a3.3816 3.3816 0 0 0-2.8458 4.2346l7.6617 28.458s12.114 50.273 0.48228 77.168l-0.48228 12.029s-11.15 37.166-8.672 65.659 3.7166 53.271 3.7166 53.271-6.1942 18.583-3.7166 24.777c0.74331 1.8583 0.59465 4.6085 0.0223 7.5483-3.4935 17.944-4.3954 36.296-3.9015 54.571l0.16264 6.0178s-8.672 7.4331-1.2388 8.672 30.971 3.7166 30.971 3.7166 4.9554-8.672 2.4777-9.9108l7.4331-40.882s12.389-17.344 11.15-28.494c0 0 3.7166-18.583 0-27.255l1.2388-54.509 4.9554 65.659-7.4331 81.764s-9.9108 7.4331-3.7166 9.9108 44.599 14.866 44.599 8.672-2.4777-8.672-2.4777-8.672l16.105-167.24-8.672-69.376s-58.226-4.9554-53.271-70.614c0 0 14.245-29.586 28.307-35.169a0.80881 0.80881 0 0 0-0.05847-1.5358l-5.709-1.6311a0.78364 0.78364 0 0 0-0.47516 0.00881c-2.4773 0.83883-23.956 8.5877-34.453 28.416z" fill="#2f2e41"/>
<path transform="translate(-157.7 -135.7)" d="m235.13 695.24-0.19789 1.781a81.999 81.999 0 0 1-10.833 32.134c-2.7739 4.7676-4.8976 10.153-3.8357 14.4 2.4777 9.9108 1.2388 13.627 1.2388 13.627h19.822v-3.7166l11.067 3.0182a12.258 12.258 0 0 0 7.5162-0.23075c2.4777-0.92913 4.9554-2.7874 4.9554-6.504 0-3.0971-2.3659-5.9792-5.126-8.2877a36.797 36.797 0 0 1-12.079-18.458l-0.13874-0.50872 7.4331-27.255z" fill="#2f2e41"/>
<path transform="translate(-157.7 -135.7)" d="m183.72 695.86-0.19789 1.781a81.999 81.999 0 0 1-10.833 32.134c-2.7739 4.7676-4.8976 10.153-3.8358 14.4 2.4777 9.9108 1.2389 13.627 1.2389 13.627h19.822v-3.7166l11.067 3.0182a12.258 12.258 0 0 0 7.5162-0.23075c2.4777-0.92914 4.9554-2.7874 4.9554-6.504 0-3.0971-2.3659-5.9792-5.126-8.2877a36.797 36.797 0 0 1-12.079-18.458l-0.13874-0.50871 7.4331-27.255z" fill="#2f2e41"/>
<path transform="translate(-157.7 -135.7)" d="m247.45 318.89s19.524-11.279 27.084-11.963c0 0 2.2015-4.956-0.17248-9.7247 0 0-1.1519-15.299-20.249-14.705 0 0-22.556-12.219-30.128-7.2299s-24.432 28.926-17.311 43.232c0 0-8.2328 4.1422-8.6246 1.9125s-6.5079 3.7598 1.567 8.919c0 0-11.303 11.442-0.31578 18.603 0 0-0.50284-10.148 5.8706-13.216s0.79522 0.15461 0.79522 0.15461-10.911 13.672 5.3852 18.994c0 0-6.0811-6.9252 0.0351-12.915 0 0-1.8945 13.989 9.373 15.462 0 0-5.8121-8.3086-2.754-11.303 0 0 1.2981 10.302 7.6598 11.539l4.7713 0.92766 1.6138-8.3006s-4.5374 10.604 6.0694 11.23c0 0-5.128-16.072 1.6606-25.52s7.6687-16.097 7.6687-16.097z" fill="#2f2e41"/>
<ellipse transform="translate(-296.5 141.79) rotate(-52.86)" cx="209.73" cy="278.37" rx="11.769" ry="9.2914" fill="#2f2e41"/>
<path transform="translate(-157.7 -135.7)" d="m219.85 277.77a13.757 13.757 0 0 0-6.1789 4.6735 14.013 14.013 0 0 0-2.7079 6.2036 13.757 13.757 0 0 0 6.1789-4.6735 14.013 14.013 0 0 0 2.7079-6.2036z" fill="#319795"/>
<path transform="translate(-157.7 -135.7)" d="m314.44 513.76-1.5736-2.0999 11.423-8.5596a9.6521 9.6521 0 0 0 3.7821-8.8886l-5.6586-45.695a19.02 19.02 0 0 1 7.4532-17.519l12.45-9.3297a11.136 11.136 0 0 1 15.572 2.231l2.8835 3.848-2.0999 1.5736-2.8835-3.848a8.5089 8.5089 0 0 0-11.898-1.7047l-12.45 9.3297a16.39 16.39 0 0 0-6.4228 15.096l5.6583 45.695a12.28 12.28 0 0 1-4.8122 11.311z" fill="#cfcce0"/>
<polygon points="160.81 381.94 170.12 369.67 166.97 365.47 153.01 371.53 92.055 413.65 102.84 428.05" fill="#cfcce0"/>
<rect transform="translate(-360.67 190.51) rotate(-36.846)" x="373.55" y="415" width="29.24" height="105.52" rx="7.2724" fill="#e6e6e6"/>
<path transform="translate(-157.7 -135.7)" d="m427.15 495.4-1.686-2.2499-0.33719-0.45a7.2708 7.2708 0 0 1-1.4583 10.178l-11.762 8.814a7.2708 7.2708 0 0 1-10.179-1.4583l0.3372 0.45 1.686 2.2499a7.2708 7.2708 0 0 0 10.178 1.4583l11.762-8.814a7.2708 7.2708 0 0 0 1.4583-10.178z" opacity=".2"/>
<path transform="translate(-157.7 -135.7)" d="m392.26 447.33c-0.10241-0.1004-0.18847-0.18146-0.1911-0.137 0.09778 0.11759 0.16248 0.14884 0.1911 0.137z" fill="#7f77ff"/>
<path transform="translate(-157.7 -135.7)" d="m390.41 444.41a0.271 0.271 0 0 0-0.103-0.175z" fill="#7f77ff"/>
<path transform="translate(-157.7 -135.7)" d="M403.71558,462.86148c-.10882.03467.10053.26776.238.49115Z" fill="#7f77ff"/>
<path transform="translate(-157.7 -135.7)" d="M409.47041,470.26712l.09808.13007a.89689.89689,0,0,0,.18878.02765Z" fill="#7f77ff"/>
<path transform="translate(-157.7 -135.7)" d="m413.11 475.69a0.49163 0.49163 0 0 1 0.35486 0.15234 0.35385 0.35385 0 0 0 0.11785-0.17456c-0.08227-0.13013-0.33917-0.00434-0.47271 0.02222z" fill="#7f77ff"/>
<path transform="translate(-157.7 -135.7)" d="M424.38837,491.36142l-.05462.0954a.74184.74184,0,0,0,.11151.11322Z" fill="#7f77ff"/>
<path transform="translate(-157.7 -135.7)" d="m386.84 439 0.01233 0.02546c0.12445 0.11273 0.06402 0.04138-0.01233-0.02546z" fill="#7f77ff"/>
<path transform="translate(-157.7 -135.7)" d="m353.81 449.78c-0.18982-0.67218 0.89417 0.6554 0.52924-0.2973-0.03334 0.13916-0.88569-0.45068-0.52924 0.2973z" fill="#7f77ff"/>
<path transform="translate(-157.7 -135.7)" d="m378.05 427.55a0.41264 0.41264 0 0 0-0.01013 0.19159c0.02008-0.02124 0.02826-0.06897 0.01013-0.19159z" fill="#7f77ff"/>
<path transform="translate(-157.7 -135.7)" d="m373.43 424.24a1.5968 1.5968 0 0 0-0.41351 0.37268 0.2839 0.2839 0 0 0 0.07544-0.02594 0.91646 0.91646 0 0 1 0.33807-0.34674z" fill="#7f77ff"/>
<path transform="translate(-157.7 -135.7)" d="m368.85 428.55a1.0651 1.0651 0 0 0 0.11737-0.02881l0.12665-0.133z" fill="#7f77ff"/>
<path transform="translate(-157.7 -135.7)" d="M424.65913,491.5903c-.15516.188-.45874.4325-.5954.35065l.27-.48413c-.01947-.02258-.037-.04785-.0553-.072.017-.02277.03473-.04419.05176-.067l-3.88367-5.18261.1012.00622-.17853-.10943-.49237-.65711c.06256-.01361.14276.00592.25964.12158-.20013-.60986-.44116-.342-.571-.89752-.00592-.0675.02569-.05865.071-.02588l-.4555-.40106c.13977.04077.17578-.25525.34655.07288-.44745-.99726-1.28088-1.189-1.26941-1.69928l.07392.056c-.74738-.82215-.56238-.37714-.819-.38117l-.41474-.55346.1062-.71918-.33148.06659c-.08276-.12885-.24548-.38416-.11432-.41266-.50787-.32929-.04815.1571-.40381.0116-.218-.7547-1.31884-1.5431-1.029-1.96723-.34369-.072.2782.66956-.32129.13867.28455-.49273-.61541-.67187-.8258-1.35284.33966.003.6065.59759.39654-.08429-.608-.05042-.70367-1.106-1.113-1.50653-.30671.19659-.8595-.89417-1.52607-1.58173a21.04131,21.04131,0,0,0-1.33691-2.33624l.06445-.01569c-.39648.08332-.88769-.68786-1.34643-1.1734.19146-.1109.33246-.06732.62677.16138l-.37549-.49829a1.35057,1.35057,0,0,1-.62512-.46448l.31366-.039a11.93425,11.93425,0,0,1-1.75568-2.10962c-.16357.0716-.13953.54535-.35779.59869l-.33917-.45257a.25549.25549,0,0,1,.29437.07056c-.07269-.06653-.29913-.2074-.36883-.399l.457.2215c-.21-.45075-.30835-.08692-.52429-.41132.16265-.11224-.05994-.31494.09893-.3642.07483.068.13831.3205.28962.39325a2.60867,2.60867,0,0,1-.44458-1.09686c-.0669.098-.21277.15948-.42591-.08228-.50958-.65594.01959-.36993-.18963-.81848-.23035-.07867-.43439-.58789-.679-.422-.14453-.19538-.06128-.31391-.05371-.43689-.36188-.26593-1.23364-1.58435-1.1944-1.00837l.0495.10059-.05243-.04846c-1.07965-.95136-1.62115-2.4422-2.5606-3.48493l.0805-.05755a16.084,16.084,0,0,0-1.6944-1.79566c-.14776-.19769-.20507-.57415-.0476-.5603a3.66519,3.66519,0,0,1-.99567-1.29169c.52246.40992-.01056-.26849.49512.45026-.42884-.71429-.4148-.95935-1.16449-1.50958.384.09076-.1192-.69031-.416-.96027l.20349.57324a8.50948,8.50948,0,0,1-.72821-.98358l.39386-.02923c-.69311-1.6-2.38531-2.03467-2.61737-3.47412-.45526-.21949.42133.83538-.03711.67755a11.15594,11.15594,0,0,1-.68292-1.78418c-.49335-.96564-.98694-.50641-1.5567-1.47687-.009.18542-.18158.48358-.77222-.11817-.4331-.65118-.17712-1.06646.19464-.72912.12024.1438.14423.23877.10736.25647.18567.17609.42493.41034.34259.08581l-.15576-.00988c-.13537-.38257-.78961-1.2345-.4826-1.1493-.44422-.40435-.307-.0852-.09418.3014-.46289-.90442-.93408-1.255-1.45966-2.149.0459.17035.02491.37476-.072.24347-.78894-1.298-.57928-.39771-1.23523-1.18628-.20422-.57422.47071-.0921-.269-.82636-.27954-.57733.17206-.29553.39954-.15326a5.77723,5.77723,0,0,1-1.2204-1.9494l.37329.33857a3.83137,3.83137,0,0,1-.51452-.59546l-.02051.3684c-.141-.25732-.288-.45465-.20557-.50958-.304-.14636-.17847.42017-.70489.07215-.13575-.38227-.81092-.86634-.63916-1.1623.645,1.03907.17248-.29742.83148.49732a2.27415,2.27415,0,0,1-.43506-.58991c.00195-.05609.0769-.0061.139.04663-.47376-1.10168-.60639-.21521-1.325-1.1864.23406.01636.1015-.426-.04706-.561.28912.39178-.09729.36395-.474.08807-.35388-.70282-.5871-.61212-.81751-.94641l.22571.40942c-.23614-.0191-.44983-.34295-.81836-.74157.08289-.11988.37024.33532.30335.14465-.60926-.29273-.554-1.27789-1.22351-1.82086-.13617-.382.24438-.23.10559-.551-.7461-.61181-.41388-.95788-1.15668-1.632-.02069.37012.05572.37488-.54627-.04059l1.10529,1.195-.9007-.62347c.29029.39306.73829.73529.88141.99383-.45263-.27948-.37463-.27435-.39282.03156-.11456-.7497-.96179-.93573-1.23187-1.69922l.48681-.33527c-.486-1.08783-1.48053-1.4704-2.26647-2.76684l.20867.44952c-.30908-.02124-.58477-.72583-.954-1.05975.18531-.08209.05964-.36951.03284-.61005-.102.10809-.65155-.89178-1.04925-.765l-.19587-.695c-.6-.97827-1.40667-.93921-2.18957-2.09595.16473.04084.16071-.1123.19037-.20776.03363-.09015.10351-.11926.51391.30041-.372-.49969-.70739-1.00744-.73712-.81915a.8754.8754,0,0,0-.10052-.17486l-.06952-.08966c-.02515-.02625-.058.04888-.089.07293l-.422.51972a2.76769,2.76769,0,0,1-.792.79547c-.13885.257-.09381.50213-.50049.87658-.07.01252-.06018-.07733-.06018-.07733.01819.12238-.43756.60193-.01117.49872-1.29.38477-2.41339,2.33777-3.55206,2.63794-.58637.61639-1.31171,1.3407-1.88989,1.85028-.0011-.07709-.06226-.07623.06146-.15576-.92377.55286-.12457.86224-1.18976,1.48071-.6795.15009.38379-.5437.01-.38989-.54364-.39264-1.0625,1.0047-1.94086,1.2121l.12927-.15271c-.61724.21869-1.02893,1.13672-1.86547,1.71631,0,0,.00421-.07569-.05481-.08161a9.59391,9.59391,0,0,1-2.08655,2.20252c.10077-.383.28406-.36634-.01782-.46888-.33594.283.34716.26227-.32666.82874-.31281.05206-.89777.31732-1.12519.13354l.66571-.48358c-.545-.04455-.86645.617-1.26129.809l-.04162-.16c-1.0094.75073-.817,1.07672-1.97138,1.79334l.18128.02362c-.41974.72949-.64447.14312-1.12183.77935l-.39612-.22a19.168,19.168,0,0,1-2.00732,1.70191,12.3795,12.3795,0,0,1,1.55755-1.61377,5.53678,5.53678,0,0,0-1.52368,1.14746c.15076-.13.31409-.33838.51081-.3822a4.71669,4.71669,0,0,1-1.83863,1.54828c-.07086-.39277-.91192-.01239-1.93011.48541l-.38452.18835-.19611.09571c-.06317.03259-.16614.05609-.08228.12231.15674.22406.30744.44592.44.65765a3.07241,3.07241,0,0,1,.4942,1.10309c.21521.24457.4281.48657.64087.72833.14184.16242.277.33014.40771.50232.26142.34443.50476.70679.74756,1.08069.48553.74787.96863,1.542,1.58838,2.33112.0498-.92652.36475.45862.78009-.00653.30719.34533.40655.49365.40283.55273l-.03754-.0918.03785.09821.0014-.001.55621,1.35041c.05884.37536-.37439-.27484-.45843-.15815.576.84687.04993.499.326,1.13813.0918-.24219.464.09692.74689.61371l-.26685-.82636c1.11786.9491.33051,1.29681,1.4527,2.2569l-.42731-.24939c.53436.5238,1.633,2.18573,2.46082,2.47131.022.147-.00818.38562-.23877.15161,1.001,1.45868,2.77771,2.83515,3.35943,4.11591l-.2-.0177c.2323.23791.56909.29083.69623.71155-.06232.01995-.1991-.01679-.11456.11065a3.36645,3.36645,0,0,1,.92718.94586l-.35852-.198c.8772,1.49713,1.91455,1.8717,2.86359,2.96722-.35449.261.3446,1.43237.69354,2.017l-.064.01843a38.81443,38.81443,0,0,0,3.59009,3.89435c.30969,1.21,2.18427,3.24823,3.08191,4.89319-.106-.275.30219-.16876.53528.0686.1897.40173.96588.77973.60138.96662l-.08679-.12885c-.12024.49994.50061,1.15253.91064,1.718l.4917-.22449c.48084,1.92255,3.09625,3.66126,3.14362,4.87177.37.27343.69616.7116,1.0639.982l-.24078.15094a25.91469,25.91469,0,0,0,1.97137,2.69788l-.34662-.125c.49622.69238,1.29816.371,1.78253.98968l-.19641.44257c.89618,1.18493,1.501,2.611,2.68817,3.55591-.0639.01782-.188.05615-.34594-.1261.41064.56628,1.39331,2.33648,1.70526,1.78534-.29187.24041.88971,1.24884,1.50415,1.79113l-.29785.06714a3.09089,3.09089,0,0,1,1.428.98505c.1054.20117-.0608.291-.18226.01.33106.68518.56019.30743.98444,1.121l-.34479-.16327a1.49325,1.49325,0,0,0,.90314.73584c.37921.31958.81787,1.20862.68427,1.45056a1.11583,1.11583,0,0,1,.81518.61029c-.03955.106-.18567.00947-.25848-.03961.61871,1.14191,1.405,1.3346,1.71588,2.20581a.21383.21383,0,0,0-.04364.21918c-.60657-.821-1.0874-1.48785-1.025-1.43841-.20556.15405.25281.84088-.4245.52874a7.00628,7.00628,0,0,1,1.95258,1.78241.369.369,0,0,1-.00739.13837l-.07293-.04932a1.23376,1.23376,0,0,0,.33783.38166,4.06455,4.06455,0,0,0,.33722.579c-.11292.20349.47534.82531.71368,1.16046.20453-.19574.49115.26208.37457-.2807.02289.06445-.07354-.04193-.24682-.25373a.9057.9057,0,0,0-.12842-.1228l.03656.00763-.62787-.80652a1.41153,1.41153,0,0,1,.75647.83118c.27112.06055.559.135.70721.18738.02363.68536.5044,1.68029.40149,1.946.43946.455.90363,1.031,1.36988,1.53272a9.00478,9.00478,0,0,0,.7138.693,2.6172,2.6172,0,0,0,.81916.59393.90593.90593,0,0,1,.258.44538c.03961.14624.10266.13189.17566.17254a.95794.95794,0,0,1-.2265.10035l-.1488-.16315a.99328.99328,0,0,0-.2555-.22583c.198.13171.33228.61651.71784.31061l.99456-.40448a3.34126,3.34126,0,0,0,.65882-.333c.14331-.09961.23529-.199.2431-.3006.90515-.18091-.35681.50739.7876-.01282l-.11658.16785c2.55536-.384,3.30152-2.40973,6.01734-3.06744-.189.05084-.28229.07763-.34644.04235,2.91382-1.22705,5.21967-3.687,7.87927-5.26312.74243-.47955.64386-.73706.91925-1.22259l.34284.09613.43457-.86768c.73742-1.07092,2.12268-1.0354,2.891-2.56787l-.29413.01453c.43433-.39606,1.14124-1.46045,1.25671-1.22974a.36534.36534,0,0,1,.19886-.384l.13153.08978c.24774-.41956.47571-.853.71246-1.27631.79047-.79107.389.54456,1.42383-.72131C424.51856,492.59812,424.88337,491.47281,424.65913,491.5903Zm-5.37311-7.07721a.25651.25651,0,0,1,.00885.08527l-.19885-.26538C419.15821,484.39072,419.2187,484.44522,419.286,484.51309Zm-24.25574,20.168.04694.00519a.347.347,0,0,1-.17774-.00183c-.19574-.19488-.20654-.30127-.18292-.36584C394.79792,504.419,394.89606,504.53415,395.03028,504.68112Z" fill="#319795"/>
<path transform="translate(-157.7 -135.7)" d="M395.48939,504.85678a.75118.75118,0,0,1,.084.07795,1.58872,1.58872,0,0,0-.04724-.16846l-.1286-.02466Z" fill="#7f77ff"/>
<path transform="translate(-157.7 -135.7)" d="M404.04725,463.54306a.21648.21648,0,0,1,.01385.08521.2392.2392,0,0,1,.00293-.05213Z" fill="#7f77ff"/>
<path transform="translate(-157.7 -135.7)" d="m416.77 480.09c-0.5459-1.2688-0.0282 0.36744-0.83014-0.77563l0.57349 0.90124c-0.02472-0.21411-0.05469-0.49755 0.25665-0.12561z" fill="#7f77ff"/>
<path transform="translate(-157.7 -135.7)" d="m414.28 476.47c-0.29682-0.2312-0.36945-0.28662-0.1894 0.11243 0.38361 0.42768 0.1222-0.0999 0.1894-0.11243z" fill="#7f77ff"/>
<path transform="translate(-157.7 -135.7)" d="m399.77 457.48 0.23926-0.1073c-0.29401-0.33099-0.08185 0.05609-0.23926 0.1073z" fill="#7f77ff"/>
<polygon points="238.26 315.8 237.75 315.27 238.12 315.67" fill="#7f77ff"/>
<path transform="translate(-157.7 -135.7)" d="m369.45 427.68 0.30963 0.143c0.18018-0.24248-0.01367-0.54514-0.30963-0.143z" fill="#7f77ff"/>
<path transform="translate(-157.7 -135.7)" d="m355.23 438.84a6.0189 6.0189 0 0 0 0.87439-0.4231 1.0606 1.0606 0 0 0-0.87439 0.4231z" fill="#7f77ff"/>
<polygon points="217.62 343.11 218.09 343.58 217.92 343.32" fill="#7f77ff"/>
<path transform="translate(-157.7 -135.7)" d="m247.56 400.57 1.821 52.472 28.494 66.898s-7.4331 34.688 7.4331 33.449 1.2388-34.688 1.2388-34.688l-13.627-70.614-2.4777-58.226z" fill="#a0616a"/>
<polygon points="100.35 228.15 101.03 223.47 106.54 225.67 123.88 252.92 87.958 271.51" fill="#cfcce0"/>
</svg>
