<svg xmlns="http://www.w3.org/2000/svg" width="888" height="580.723"><path d="M148.558 380.085s10.804 17.136 6.946 21.776 28.95 4.756 28.95 4.756-4.928-24.928-3.478-30.665z" fill="#ffb8b8"/><circle cx="165.825" cy="352.416" r="33.88" fill="#2f2e41"/><path d="M245.5 536.052v20.085l20.084-4.185-1.673-14.226-18.4-1.674zm71.142 3.348l56.07 9.205-14.226 20.92s-39.332-13.4-49.374-13.4 7.532-16.737 7.532-16.737z" fill="#ffb8b8"/><g fill="#d0cde1"><path d="M189.44 499.23s41.843-48.537 55.232-46.027 19.248 17.574 19.248 17.574l7.532 74.48s-26.78 2.51-26.78 0-5.02-56.07-5.02-56.07-39.332 87.033-60.253 29.3z"/><path d="M121.656 531.868s.837 43.843 25.942 46.353 52.722-18.737 52.722-18.737l45.2-21.65s53.56 28.344 69.46 20.813c0 0 16.737-17.574 5.858-22.595s-.837 0-.837 0l-64.438-33.474s-12.553-3.347-34.31 5.858-51.048 13.4-51.048 13.4z"/></g><circle cx="163.498" cy="363.66" r="25.106" fill="#ffb8b8"/><path d="M199.483 433.956l-1.674 35.148s.837 46.027-6.695 49.374c-3.808 1.7-11.457 5.088-18.528 8.804-5.306 2.778-10.285 5.724-13.063 8.26a9.37 9.37 0 0 0-1.883 2.184c-3.347 5.858-25.106 5.02-30.127.837s-1.674 5.02-5.858 6.695c-4.05 1.623-9.666-11.65-6.226-31.466.11-.66.234-1.33.368-2.008 3.84-19.206-2.193-65.208-1.264-82.982.054-1.358.197-2.71.427-4.05 2.51-13.4 34.545-40.638 40.537-29.03 7.38 14.327 24.336 1.24 27.248-5.28 16.737-.837 22.595 19.248 22.595 19.248z" fill="#036c72"/><path d="M267.268 548.605s-13.4 5.02-17.574 4.184-8.37 2.5-8.37 7.532-5.02 16.737 2.5 17.574 38.495-.837 45.2 1.674c0 0 30.127.837 27.616-11.716s-15.063-11.716-15.063-11.716-34.3-1.674-34.3-7.532zm97.912 2.5s1.674-5.02 4.184-5.02 22.595 3.347 25.106 2.5 31.8-2.5 26.78 11.716-21.758 15.9-21.758 15.9-30.127-3.347-34.3-2.5-19.248 0-16.737-4.184 18.4-11.716 16.737-18.4z" fill="#2f2e41"/><path d="M289.005 430.913l4.59 18.938c.05.21.043.432-.023.64l-20.826 65.082c-.17.53-.688.87-1.243.817s-.996-.5-1.06-1.044l-2.88-25.353c-.02-.168-.002-.34.05-.5l19.116-58.667c.164-.503.642-.836 1.17-.816s.98.39 1.104.903z" fill="#3f3d56"/><path fill="#fff" d="M287.316 432.512l4.24 16.25-18.37 59.344-4.24-18.368 18.37-57.225z"/><path d="M194.768 520.82c.706 2.12 73.473-.706 74.18-1.413.616-.885 1.137-1.832 1.554-2.826.664-1.413 1.272-2.826 1.272-2.826l-2.826-22.876-72.06-2.557s-1.802 19.386-2.17 28.26a21.2 21.2 0 0 0 .05 4.239z" fill="#3f3d56"/><path opacity=".1" d="M259.763 493.975l1.413 19.782h-31.8v-19.782h30.378zm-40.975 6.36l.2-.038-.897 8.515h-17.67v-8.477h18.37zm-24.02 20.486c.706 2.12 73.473-.706 74.18-1.413.616-.885 1.137-1.832 1.554-2.826H194.72a21.2 21.2 0 0 0 .05 4.239z"/><g fill="#2f2e41"><circle cx="171.439" cy="315.379" r="9.442"/><path d="M168.6 325.656s-9.647 16.046-32.078 22.052-.183 39.715-.183 39.715-8.1-12.258 3.58-25.24 30.448-21.856 28.683-36.53z"/></g><path d="M172.587 527.282c-2.067 3.908-4.494 7.967-4.904 9.607-.276 1.113-3.34.47-8.16-1.347-9.666-3.657-26.42-12.034-42.052-20.41a13.2 13.2 0 0 1-2.042-1.339c.11-.66.234-1.33.368-2.008 3.84-19.206-2.193-65.208-1.264-82.982l7.122-2.377 14.226 13.4v56.906l39.332 21.758c1.28.854-.485 4.745-2.628 8.804z" opacity=".1"/><path d="M203.667 481.657l22.595 11.716s13.4-14.226 21.758-3.347-24.27 14.226-24.27 14.226-28.453-6.695-29.3-15.9 9.205-6.695 9.205-6.695zM166 512.62l13.4 3.347s15.063-18.4 30.964-11.716-20.084 20.084-20.084 20.084-19.248 10.042-26.78 1.674 2.5-13.4 2.5-13.4z" fill="#ffb8b8"/><path d="M195.3 402.156c.837.837 10.042 7.532 10.042 7.532s2.5 31.8-.837 38.495-5.858 6.695-3.347 10.042 5.858.837 2.5 6.695-6.695 5.02-4.184 7.532 1.674 3.347 1.674 3.347l10.042 8.37s-6.16 9.813-13.96 9.1-14.493-38.38-14.493-38.38zm-73.644 20.084l-7.532 2.5s-20.084 73.643 3.347 86.196 49.374 25.106 50.2 21.758 10.042-16.737 7.532-18.4-39.332-21.758-39.332-21.758V435.63z" fill="#036c72"/><path opacity=".1" d="M132.953 452.785l-1.673 40.17 44.353 20.922-41.006-20.922-1.674-40.17z"/><path d="M778.4 133.76v65.68c-.003 1.263-1.027 2.287-2.3 2.3h-1.63v342.15c-.001 19.716-15.984 35.7-35.7 35.7H525c-9.467-.001-18.546-3.763-25.24-10.458s-10.453-15.775-10.45-25.242V213.73h-1.18a1.62 1.62 0 0 1-1.62-1.61v-37.38a1.62 1.62 0 0 1 1.62-1.62h1.18v-14.08h-1.2c-.936-.004-1.692-.764-1.7-1.7v-36.87c.002-.932.758-1.688 1.7-1.7h1.2V99.56h-1.2a1.5 1.5 0 0 1-1.5-1.5V77.94c-.002-.83.67-1.506 1.5-1.5h1.2V35.7C489.3 15.98 505.28.001 525 0h213.8c19.713 0 35.695 15.977 35.7 35.7v95.78h1.63c1.263.003 2.287 1.027 2.3 2.3z" fill="#3f3d56"/><g fill="#e6e8ec"><rect x="604.903" y="18.307" width="39.823" height="8.086" rx="2.542"/><circle cx="655.335" cy="22.35" r="4.587"/></g><path d="M757.385 42.75v504.1c-.006 12.505-10.145 22.64-22.65 22.64h-204.65a22.61 22.61 0 0 1-22.65-22.64V42.75a22.65 22.65 0 0 1 22.65-22.65h30.63v3.93c0 10.3 8.35 18.65 18.65 18.65h104.08c10.3 0 18.65-8.35 18.65-18.65V20.1h32.64c6.008-.002 11.77 2.384 16.018 6.632s6.634 10 6.632 16.018z" fill="#fff"/><path d="M528.827 351.96h208v27h-208zm0 48h208v27h-208zm0 48h208v27h-208z" fill="#e6e6e6"/><circle cx="713.827" cy="90.959" r="20" fill="#036c72"/><path fill="#e6e6e6" d="M528.4 157.96h208v138h-208z"/><path d="M611.235 235.55c6.073 22.45 26.875 36.354 26.875 36.354s10.955-22.495 4.882-44.945-26.875-36.354-26.875-36.354-10.955 22.495-4.882 44.945z" fill="#3f3d56"/><path d="M620.16 230.725c16.665 16.223 18.7 41.16 18.7 41.16s-24.984-1.364-41.648-17.587-18.7-41.16-18.7-41.16 24.984 1.364 41.648 17.587z" fill="#036c72"/><path d="M666.484 235.55c-6.073 22.45-26.875 36.354-26.875 36.354s-10.955-22.495-4.882-44.945 26.875-36.354 26.875-36.354 10.955 22.495 4.882 44.945z" fill="#3f3d56"/><path d="M657.56 230.725c-16.665 16.223-18.7 41.16-18.7 41.16s24.984-1.364 41.648-17.587 18.7-41.16 18.7-41.16-24.984 1.364-41.648 17.587z" fill="#036c72"/><path fill="#3f3d56" d="M0 578.483h888v2.24H0z"/></svg>