<?xml version="1.0" encoding="UTF-8"?>
<svg data-name="Layer 1" viewBox="0 0 890.3 489.3" xmlns="http://www.w3.org/2000/svg">
<title>work_together</title>
<rect x="182.97" y=".39886" width="703.58" height="450.6" fill="#e6e6e6"/>
<rect x="245.19" y="60.907" width="254" height="261" fill="#fff"/>
<rect x="594.19" y="65.969" width="254" height="317" fill="#fff"/>
<ellipse cx="844.8" cy="477.26" rx="45.5" ry="6.5" fill="#e6e6e6"/>
<ellipse cx="389.9" cy="477.41" rx="45.5" ry="6.5" fill="#e6e6e6"/>
<ellipse cx="104.42" cy="470.91" rx="104.42" ry="5" fill="#e6e6e6"/>
<rect x="182.67" width="703.58" height="29.89" fill="#319795"/>
<circle cx="204.88" cy="15.282" r="5.54" fill="#e6e6e6"/>
<circle cx="225.91" cy="15.282" r="5.54" fill="#e6e6e6"/>
<circle cx="246.94" cy="15.282" r="5.54" fill="#e6e6e6"/>
<path transform="translate(-154.85 -205.35)" d="m947.04 356.35h-1.5386v-42.151a24.396 24.396 0 0 0-24.396-24.396h-89.302a24.396 24.396 0 0 0-24.396 24.396v231.24a24.396 24.396 0 0 0 24.396 24.396h89.302a24.396 24.396 0 0 0 24.396-24.396v-159.09h1.5386z" fill="#3f3d56"/>
<path transform="translate(-154.85 -205.35)" d="m921.09 296.15h-11.657a8.6555 8.6555 0 0 1-8.0138 11.924h-51.16a8.6555 8.6555 0 0 1-8.0138-11.924h-10.888a18.218 18.218 0 0 0-18.218 18.218v230.9a18.218 18.218 0 0 0 18.218 18.218h89.732a18.218 18.218 0 0 0 18.218-18.218v-230.9a18.218 18.218 0 0 0-18.218-18.218z" fill="#fff"/>
<rect x="284.09" y="225.78" width="176.54" height="8.0527" fill="#e6e6e6"/>
<rect x="284.09" y="251.78" width="176.54" height="8.0527" fill="#319795"/>
<rect x="284.09" y="277.78" width="176.54" height="8.0527" fill="#e6e6e6"/>
<rect x="670.84" y="243.35" width="103.06" height="8.0527" fill="#e6e6e6"/>
<rect x="670.84" y="268.35" width="103.06" height="8.0527" fill="#e6e6e6"/>
<rect x="670.84" y="293.35" width="103.06" height="8.0527" fill="#e6e6e6"/>
<rect transform="translate(1391.2 -521.14) rotate(90)" x="922.35" y="606.56" width="17.177" height="17.177" fill="#3f3d56"/>
<rect transform="translate(1363.6 -493.46) rotate(90)" x="894.68" y="606.56" width="17.177" height="17.177" fill="#319795"/>
<rect transform="translate(1335.9 -465.79) rotate(90)" x="867" y="606.56" width="17.177" height="17.177" fill="#3f3d56"/>
<rect transform="translate(1308.2 -438.11) rotate(90)" x="839.33" y="606.56" width="17.177" height="17.177" fill="#3f3d56"/>
<rect transform="translate(1280.5 -410.44) rotate(90)" x="811.65" y="606.56" width="17.177" height="17.177" fill="#3f3d56"/>
<rect x="692.74" y="138.99" width="57.258" height="57.258" fill="#319795"/>
<path transform="translate(-154.85 -205.35)" d="m504.45 480.94-0.74114 1.4823-2.2234-11.117s-2.9645-11.858 2.9645-11.858 4.4468 11.858 4.4468 11.858v8.1525z" fill="#a0616a"/>
<path transform="translate(-154.85 -205.35)" d="m601.7 479.43 0.74113 1.4823 2.2234-11.117s2.9645-11.858-2.9645-11.858-4.4468 11.858-4.4468 11.858v8.1525z" fill="#a0616a"/>
<polygon points="382.22 358.94 373.32 413.78 377.77 467.14 388.14 462.7 386.66 422.68 397.04 390.81 399.26 428.61 394.82 467.89 408.16 469.37 417.79 388.58 417.05 361.16" fill="#2f2e41"/>
<path transform="translate(-154.85 -205.35)" d="m537.06 665.83-5.1879 8.1525v18.216a2.209 2.209 0 0 0 1.8564 2.1804c2.5428 0.41721 6.9704 0.71364 8.5195-1.8683 2.2234-3.7057 0.74113-11.858 0.74113-11.858s2.9645-5.9291 1.4823-10.376-2.9645-5.1879-2.9645-5.1879z" fill="#2f2e41"/>
<path transform="translate(-154.85 -205.35)" d="m559.3 673.24 1.4823 2.2234s2.2234 2.2234 0.74113 3.7057a28.966 28.966 0 0 0-2.9645 3.7057s-8.1525 2.2234-8.1525-0.74114v-9.6348z" fill="#2f2e41"/>
<circle cx="401.78" cy="288.8" r="9.8243" fill="#a0616a"/>
<polygon points="395.18 291.87 394.44 305.95 407.78 306.69 407.04 292.61" fill="#a0616a"/>
<path transform="translate(-154.85 -205.35)" d="m564.49 512.41-2.1038-5.1396s-9.7543-3.754-12.719-0.04838l-1.4823 4.4468-11.858-2.9645-6.6702 14.823 5.9291 42.245s15.564 20.011 36.316 0.74113l5.9291-40.021-4.4468-15.564z" fill="#575a89"/>
<polygon points="417.05 308.54 418.53 305.58 433.35 296.68 442.4 269.91 449.4 272.91 441.51 304.84 420.01 324.85" fill="#575a89"/>
<polygon points="382.96 304.84 381.47 303.36 365.91 293.72 354.79 271.49 345.9 274.45 355.53 301.87 379.25 321.14" fill="#575a89"/>
<path transform="translate(-154.85 -205.35)" d="m563.92 479.1 1.6063-0.80315-2.4094-0.80314v-0.80318s-12.047-4.8189-13.653 3.2126a16.143 16.143 0 0 0 0 19.275v2.4094l12.85 1.6063 1.6063-4.8189s8.0314-14.457 0-19.275z" fill="#2f2e41"/>
<path transform="translate(-154.85 -205.35)" d="m269.94 565.16-2.8554 1.4277s-11.422 5.2349-8.0904 8.0904 12.373-2.8554 12.373-2.8554l1.9036-2.3795z" fill="#ffb8b8"/>
<polygon points="198.63 359.1 189.81 418.35 176.48 459.75 169.34 456.42 176 399.79 156.97 383.6 158.4 359.81" fill="#2f2e41"/>
<path transform="translate(-154.85 -205.35)" d="m323.24 663.2s8.0904-4.2831 8.5663 1.9036l-0.95181 6.1867s2.8554 10.946-6.6626 8.5663-2.8554-9.5181-2.8554-9.5181z" fill="#2f2e41"/>
<path transform="translate(-154.85 -205.35)" d="m318.01 583.72-6.1867 5.2349s0 32.361 4.2831 37.12 31.41 29.03 32.361 29.982 5.2349-9.5181 5.2349-9.5181l-25.699-29.982 1.9036-18.56z" fill="#2f2e41"/>
<path transform="translate(-154.85 -205.35)" d="m350.84 645.11s7.6144-1.4277 7.6144 3.8072a115.23 115.23 0 0 0 0.9518 12.373s1.9036 16.657-4.2831 14.277-8.5662-19.036-8.5662-19.036a7.0893 7.0893 0 0 1 2.8554-3.3313c1.9036-0.9518 1.4277-8.0904 1.4277-8.0904z" fill="#2f2e41"/>
<polygon points="172.2 288.42 173.63 306.03 169.82 312.7 159.35 302.7 158.4 289.38" fill="#ffb8b8"/>
<circle cx="163.63" cy="282.71" r="11.422" fill="#ffb8b8"/>
<polygon points="168.39 305.56 173.15 291.76 181.72 301.27 197.42 361.71 185.52 368.85 180.29 361.24 179.34 371.23 156.02 366.47 154.11 302.7 158.87 296" fill="#d0cde1"/>
<polygon points="161.73 373.14 158.87 296.04 152.69 300.8 141.26 308.41 148.88 335.54 151.26 364.09" fill="#2f2e41"/>
<polygon points="144.6 308.89 141.26 308.41 131.75 336.49 112.71 360.29 119.85 367.9 141.74 346.48 149.83 328.88" fill="#2f2e41"/>
<path transform="translate(-154.85 -205.35)" d="m351.42 565.6-0.64933 3.1257s-2.9708 12.208 1.3348 11.363 5.4281-11.48 5.4281-11.48l-0.68754-2.9687z" fill="#ffb8b8"/>
<polygon points="172.41 290.98 195.99 300.32 193.14 328.88 198.85 360.29 193.14 366.47 172.02 295.03" fill="#2f2e41"/>
<path transform="translate(-154.85 -205.35)" d="m319.08 468.88 3.3526-1.6763v1.6763l2.2351-1.1175v2.7938s8.3815 6.1464 6.7052 13.41-1.6763 7.8228-1.6763 7.8228-2.1192-13.814-10.501-11.579-9.0562 2.6388-11.291 8.7852l-0.60636 2.6365s-9.4514-21.635 11.782-22.752z" fill="#2f2e41"/>
<polygon points="192.66 300.32 196.47 300.32 202.66 333.64 202.66 362.66 195.04 361.24 188.86 317.45" fill="#2f2e41"/>
<rect x="3.535" y="370.77" width="140.32" height="97.511" fill="#319795"/>
<path transform="translate(-154.85 -205.35)" d="m228.54 595.15a29.729 29.729 0 1 0 29.729 29.729 29.816 29.816 0 0 0-29.729-29.729zm0 8.9187a8.9187 8.9187 0 1 1-8.9187 8.9187 8.9486 8.9486 0 0 1 8.9187-8.9187zm0 42.936a21.657 21.657 0 0 1-17.837-9.519c0.14293-5.9458 11.892-9.2189 17.837-9.2189s17.694 3.273 17.837 9.2189a21.693 21.693 0 0 1-17.837 9.519z" fill="#fff"/>
<rect x="284.19" y="90.907" width="176" height="101" fill="#e6e6e6"/>
<path transform="translate(-154.85 -205.35)" d="m963.05 496.58 0.81548-5.2599s4.7531-10.805 0.99606-11.388-6.8908 9.7043-6.8908 9.7043l1.3747 10.986z" fill="#ffb8b8"/>
<polygon points="846.67 321.05 813.09 314.31 809.19 289.85 799.3 289.08 799.78 320.71 828.96 336" fill="#575a89"/>
<polygon points="846.67 321.05 813.09 314.31 809.19 289.85 799.3 289.08 799.78 320.71 828.96 336" opacity=".2"/>
<rect transform="translate(1768.5 766.83) rotate(180)" x="910.16" y="482.06" width="103.06" height="8.0527" fill="#319795"/>
<path transform="translate(-154.85 -205.35)" d="m956.49 494.78 0.00669-5.3227s3.0559-11.402-0.74606-11.407-5.3361 10.639-5.3361 10.639l3.0282 10.649z" fill="#ffb8b8"/>
<path transform="translate(-154.85 -205.35)" d="m1000.2 510.02 4.6075-1.1231a11.862 11.862 0 0 0 11.642-14.211 15.504 15.504 0 0 0-15.485-15.524 15.504 15.504 0 0 0-15.524 15.485 12.321 12.321 0 0 0 14.759 15.373z" fill="#2f2e41"/>
<polygon points="818.25 381.46 822 422.52 828.8 462.83 840.2 462.85 838.73 423.3 832.71 375.39" fill="#2f2e41"/>
<path transform="translate(-154.85 -205.35)" d="m985.17 665.9-7.6096 4.5528s-12.168 1.5055-9.8917 5.3103 28.893 1.5571 28.895 0.03629-0.748-9.886-2.2687-9.8879z" fill="#2f2e41"/>
<path transform="translate(-154.85 -205.35)" d="m1006.8 583.26s-0.21394 5.871-5.5481 14.989l0.72505 28.135 27.33 35.012-9.8955 8.3518-33.409-38.061-8.307-45.634 10.659-10.632z" fill="#2f2e41"/>
<path transform="translate(-154.85 -205.35)" d="m1027 661.39s9.1227 1.5322 7.5972 5.3323-5.3494 21.284-15.232 18.991c0 0-4.5623-0.00573-3.0377-3.0454a55.004 55.004 0 0 1 3.0482-5.3189l0.01241-9.885z" fill="#2f2e41"/>
<circle cx="840.42" cy="294.04" r="11.406" fill="#ffb8b8"/>
<polygon points="845.73 301.65 845.71 314.58 833.55 314.56 835.08 301.64" fill="#ffb8b8"/>
<path transform="translate(-154.85 -205.35)" d="m985.36 515.35 3.6865-0.9056 11.521 0.9247s6.0754 6.0907 5.3132 7.6106-4.611 38.774-4.611 38.774l6.8101 26.622-24.334 1.4902-12.164-1.536 2.3413-47.902s-5.3065-12.933 1.5418-16.727a29.954 29.954 0 0 0 9.8955-8.3518z" fill="#575a89"/>
<polygon points="844.19 313.06 809.98 311.49 802.4 287.91 792.52 288.66 797.8 319.84 828.96 330.53" fill="#575a89"/>
<circle cx="862.43" cy="278.28" r="7.3588" fill="#2f2e41"/>
<path transform="translate(-154.85 -205.35)" d="m1010.5 479.67a7.3554 7.3554 0 0 1 8.807-7.2049 7.3554 7.3554 0 1 0-4.5877 13.862 7.3528 7.3528 0 0 1-4.2193-6.6574z" fill="#2f2e41"/>
<path transform="translate(-154.85 -205.35)" d="m1004.2 483.85-9.9208-1.8267-7.6295 4.7818a11.573 11.573 0 0 0-5.3313 11.295l7.6412-1.9368 1.7111-4.2904 2.0379 3.3402 8.2671 14.454 8.37-4.5518 5.3332-8.3576z" fill="#2f2e41"/>
<rect transform="translate(-190.89 425.93) rotate(-60.15)" x="526.04" y="245.3" width="1.9996" height="202.92" fill="#fff"/>
<rect transform="translate(-257.52 102.93) rotate(-29.846)" x="425.58" y="345.76" width="202.92" height="1.9996" fill="#fff"/>
<rect transform="translate(-161.7 523.63) rotate(-45)" x="875.54" y="332.45" width="1.9998" height="80.61" fill="#fff"/>
<rect transform="translate(-161.7 523.63) rotate(-45)" x="836.23" y="371.76" width="80.61" height="1.9998" fill="#fff"/>
</svg>
