<?xml version="1.0" encoding="UTF-8"?>
<svg data-name="Layer 1" viewBox="0 0 1139.2 654.54" xmlns="http://www.w3.org/2000/svg">
<title>progressive_app</title>
<circle cx="246.83" cy="521.76" r="59.243" fill="#f2f2f2"/>
<circle cx="256.46" cy="513.1" r="59.243" fill="#319795"/>
<rect x="304.17" y="447.54" width="733" height="2" fill="#3f3d56"/>
<path transform="translate(-30.415 -122.73)" d="m714.21 141.38h-260.17v-5.3623h-117.97v5.3623h-261.24a17.598 17.598 0 0 0-17.599 17.599v356.25a17.599 17.599 0 0 0 17.599 17.599h639.38a17.599 17.599 0 0 0 17.599-17.599v-356.25a17.598 17.598 0 0 0-17.599-17.599z" fill="#3f3d56"/>
<rect x="50.406" y="49.754" width="627.39" height="353.91" fill="#319795"/>
<circle cx="363.57" cy="33.667" r="6.4348" fill="#319795"/>
<polygon points="498.37 403.67 50.406 403.67 50.406 49.754" opacity=".1"/>
<circle cx="148.57" cy="316.88" r="60.307" fill="#f2f2f2"/>
<rect x="509.95" y="240.62" width="58.605" height="12.246" fill="#3f3d56"/>
<rect x="439.1" y="145.28" width="200.31" height="5.2482" fill="#3f3d56"/>
<rect x="439.1" y="161.9" width="200.31" height="5.2482" fill="#3f3d56"/>
<rect x="439.1" y="178.52" width="200.31" height="5.2482" fill="#3f3d56"/>
<rect x="439.1" y="195.14" width="200.31" height="5.2482" fill="#3f3d56"/>
<rect x="439.1" y="211.76" width="200.31" height="5.2482" fill="#3f3d56"/>
<rect x="614.92" y="56.934" width="24.492" height="24.492" fill="#f2f2f2"/>
<path transform="translate(-30.415 -122.73)" d="m681.19 215.53h-29.74v-29.74h29.74zm-28.447-1.293h27.154v-27.154h-27.154z" fill="#3f3d56"/>
<path transform="translate(-30.415 -122.73)" d="M749.42165,519.96024H688.19234v-4.41153a.87468.87468,0,0,0-.87471-.87471h-20.9929a.87468.87468,0,0,0-.87471.87471v4.41153H652.32945v-4.41153a.87467.87467,0,0,0-.8747-.87471H630.46184a.87468.87468,0,0,0-.8747.87471v4.41153H616.46657v-4.41153a.87468.87468,0,0,0-.8747-.87471H594.599a.87468.87468,0,0,0-.87471.87471v4.41153H580.60369v-4.41153a.87468.87468,0,0,0-.87471-.87471H558.73607a.87468.87468,0,0,0-.8747.87471v4.41153H544.7408v-4.41153a.87468.87468,0,0,0-.8747-.87471H522.87319a.87467.87467,0,0,0-.8747.87471v4.41153H508.87792v-4.41153a.87468.87468,0,0,0-.87471-.87471h-20.9929a.87468.87468,0,0,0-.87471.87471v4.41153H473.015v-4.41153a.87468.87468,0,0,0-.8747-.87471H307.69588a.87468.87468,0,0,0-.8747.87471v4.41153H293.70061v-4.41153a.87468.87468,0,0,0-.8747-.87471H271.833a.87467.87467,0,0,0-.8747.87471v4.41153H257.83773v-4.41153a.87468.87468,0,0,0-.87471-.87471h-20.9929a.87468.87468,0,0,0-.87471.87471v4.41153H221.97484v-4.41153a.87467.87467,0,0,0-.8747-.87471H200.10723a.87468.87468,0,0,0-.8747.87471v4.41153H186.112v-4.41153a.87468.87468,0,0,0-.8747-.87471H164.24435a.87468.87468,0,0,0-.87471.87471v4.41153H150.24908v-4.41153a.87468.87468,0,0,0-.87471-.87471H128.38146a.87468.87468,0,0,0-.8747.87471v4.41153H114.38619v-4.41153a.87468.87468,0,0,0-.8747-.87471H92.51858a.87467.87467,0,0,0-.8747.87471v4.41153H51.40747a20.99293,20.99293,0,0,0-20.99291,20.99291v9.4925A20.99291,20.99291,0,0,0,51.40747,571.4385H749.42165a20.9929,20.9929,0,0,0,20.99291-20.99285v-9.4925A20.99292,20.99292,0,0,0,749.42165,519.96024Z" fill="#3f3d56"/>
<path transform="translate(-30.415 -122.73)" d="m193.59 477.27a76 76 0 1 1 76-76 76.086 76.086 0 0 1-76 76zm0-150a74 74 0 1 0 74 74 74.084 74.084 0 0 0-74-74z" fill="#3f3d56"/>
<rect x="586.17" y="32.543" width="255" height="2" fill="#3f3d56"/>
<rect x="406.17" y="560.54" width="733" height="2" fill="#3f3d56"/>
<rect x="192.67" y="652.54" width="255" height="2" fill="#3f3d56"/>
<rect x="471" y="550" width="28" height="28" fill="#319795"/>
<path transform="translate(-30.415 -122.73)" d="m546.41 684.73h-34v-34h34zm-32.522-1.4783h31.043v-31.043h-31.043z" fill="#3f3d56"/>
<rect x="796" y="22" width="28" height="28" fill="#319795"/>
<path transform="translate(-30.415 -122.73)" d="m871.41 156.73h-34v-34h34zm-32.522-1.4783h31.043v-31.043h-31.043z" fill="#3f3d56"/>
<rect x="1078" y="550" width="28" height="28" fill="#319795"/>
<path transform="translate(-30.415 -122.73)" d="m1153.4 684.73h-34v-34h34zm-32.522-1.4783h31.043v-31.043h-31.043z" fill="#3f3d56"/>
<path transform="translate(-30.415 -122.73)" d="m1087.6 354.69h-2.3786v-65.162a37.714 37.714 0 0 0-37.714-37.714h-138.05a37.714 37.714 0 0 0-37.714 37.714v357.48a37.714 37.714 0 0 0 37.714 37.714h138.05a37.714 37.714 0 0 0 37.714-37.714v-245.94h2.3786z" fill="#3f3d56"/>
<path transform="translate(-30.415 -122.73)" d="m1077.2 291.74v356.96a28.165 28.165 0 0 1-28.16 28.17h-138.72a28.165 28.165 0 0 1-28.16-28.17v-356.96a28.163 28.163 0 0 1 28.16-28.16h16.83a13.379 13.379 0 0 0 12.39 18.43h79.09a13.379 13.379 0 0 0 12.39-18.43h18.02a28.163 28.163 0 0 1 28.16 28.16z" fill="#319795"/>
<rect x="928.58" y="376.22" width="41.324" height="12.246" fill="#3f3d56"/>
<rect x="878.62" y="280.87" width="141.24" height="5.2482" fill="#3f3d56"/>
<rect x="878.62" y="297.49" width="141.24" height="5.2482" fill="#3f3d56"/>
<rect x="878.62" y="314.11" width="141.24" height="5.2482" fill="#3f3d56"/>
<rect x="878.62" y="330.73" width="141.24" height="5.2482" fill="#3f3d56"/>
<rect x="878.62" y="347.35" width="141.24" height="5.2482" fill="#3f3d56"/>
<rect x="929.68" y="211.18" width="24.492" height="24.492" fill="#f2f2f2"/>
<path transform="translate(-30.415 -122.73)" d="m969.47 340.03v29.74h29.74v-29.74zm28.45 28.45h-27.16v-27.16h27.16z" fill="#3f3d56"/>
<path transform="translate(-30.415 -122.73)" d="m1077.2 610.58v38.12a28.165 28.165 0 0 1-28.16 28.17h-138.72a28.165 28.165 0 0 1-28.16-28.17v-192.21l118.87 93.91 21.74 17.17 2.03 1.61z" opacity=".1"/>
<circle cx="937.24" cy="498.71" r="43.868" fill="#f2f2f2"/>
<path transform="translate(-30.415 -122.73)" d="m350.59 777.27a87 87 0 1 1 87-87 87.099 87.099 0 0 1-87 87zm0-172a85 85 0 1 0 85 85 85.096 85.096 0 0 0-85-85z" fill="#3f3d56"/>
<path transform="translate(-30.415 -122.73)" d="m980.59 655.27a55 55 0 1 1 55-55 55.062 55.062 0 0 1-55 55zm0-108a53 53 0 1 0 53 53 53.06 53.06 0 0 0-53-53z" fill="#3f3d56"/>
</svg>
