<?xml version="1.0" encoding="UTF-8"?>
<svg data-name="Layer 1" viewBox="0 0 888 765.55" xmlns="http://www.w3.org/2000/svg">
<title>portfolio_feedback</title>
<path transform="translate(-156 -67.223)" d="m811.93 85.414h-31.573a23.444 23.444 0 0 1-21.706 32.298h-138.57a23.444 23.444 0 0 1-21.706-32.298h-29.489a49.345 49.345 0 0 0-49.345 49.345v625.41a49.345 49.345 0 0 0 49.345 49.345h243.04a49.345 49.345 0 0 0 49.345-49.345v-625.41a49.345 49.345 0 0 0-49.345-49.345z" fill="#e6e6e6"/>
<path transform="translate(-156 -67.223)" d="m809.27 827.7h-241.88a67.153 67.153 0 0 1-67.077-67.077v-626.33a67.153 67.153 0 0 1 67.077-67.077h241.88a67.152 67.152 0 0 1 67.076 67.077v113.17h4.168v83.266h-4.168v429.9a67.152 67.152 0 0 1-67.076 67.077zm-241.88-758.48a65.151 65.151 0 0 0-65.077 65.077v626.33a65.151 65.151 0 0 0 65.077 65.077h241.88a65.15 65.15 0 0 0 65.076-65.077v-431.9h4.168v-79.266h-4.168v-115.17a65.15 65.15 0 0 0-65.076-65.077z" fill="#e6e6e6"/>
<path transform="translate(-156 -67.223)" d="m436.16 473.61 16.001 24.783 52.034-0.41521s21.874-12.353 26.273 3.9346c1.5064 5.5781-21.391 7.0877-23.547 7.2184-5.3904 0.32658-59.15 9.6541-62.469 4.8778s-20.777-21.464-20.777-21.464z" fill="#ffb8b8"/>
<path transform="translate(-156 -67.223)" d="m587.42 184.89a3.5043 3.5043 0 0 0-3.5 3.5v206a3.5042 3.5042 0 0 0 3.5 3.5h206a3.5042 3.5042 0 0 0 3.5-3.5v-206a3.5042 3.5042 0 0 0-3.5-3.5z" fill="#fff"/>
<path transform="translate(-156 -67.223)" d="m775.35 427.38h-37.894c-2.37-21.079 2.859-36.791 0-45.472h37.894a237.22 237.22 0 0 0 0 45.472z" fill="#319795"/>
<rect x="374.91" y="411.17" width="319" height="144" fill="#ccc"/>
<path transform="translate(-156 -67.223)" d="m756.42 288.78a65.82 65.82 0 1 1-65.82-65.82 65.789 65.789 0 0 1 65.82 65.82z" fill="#319795"/>
<path transform="translate(-156 -67.223)" d="m523.62 470.64a2.5029 2.5029 0 0 0-2.5 2.5v138a2.5026 2.5026 0 0 0 2.5 2.5h313a2.5023 2.5023 0 0 0 2.5-2.5v-138a2.5026 2.5026 0 0 0-2.5-2.5z" fill="#fff"/>
<path transform="translate(-156 -67.223)" d="m744.55 500.59a1.5016 1.5016 0 0 0-1.5 1.5v7.2725a1.5016 1.5016 0 0 0 1.5 1.5h42.824a1.5016 1.5016 0 0 0 1.5-1.5v-7.2725a1.5016 1.5016 0 0 0-1.5-1.5z" fill="#319795"/>
<path transform="translate(-156 -67.223)" d="m582.4 500.59a1.5016 1.5016 0 0 0-1.5 1.5v7.2725a1.5016 1.5016 0 0 0 1.5 1.5h12.476a1.5016 1.5016 0 0 0 1.5-1.5v-7.2725a1.5016 1.5016 0 0 0-1.5-1.5z" fill="#319795"/>
<path transform="translate(-156 -67.223)" d="m549.45 500.59a1.5016 1.5016 0 0 0-1.5 1.5v7.2725a1.5016 1.5016 0 0 0 1.5 1.5h12.475a1.5016 1.5016 0 0 0 1.5-1.5v-7.2725a1.5016 1.5016 0 0 0-1.5-1.5z" fill="#319795"/>
<path transform="translate(-156 -67.223)" d="m616.21 500.59a1.5016 1.5016 0 0 0-1.5 1.5v7.2725a1.5016 1.5016 0 0 0 1.5 1.5h107.86a1.5016 1.5016 0 0 0 1.5-1.5v-7.2725a1.5016 1.5016 0 0 0-1.5-1.5z" fill="#319795"/>
<path transform="translate(-156 -67.223)" d="m641.36 573.42a1.5016 1.5016 0 0 0-1.5 1.5v7.2734a1.5016 1.5016 0 0 0 1.5 1.5h12.476a1.5016 1.5016 0 0 0 1.5-1.5v-7.2734a1.5016 1.5016 0 0 0-1.5-1.5z" fill="#319795"/>
<path transform="translate(-156 -67.223)" d="m608.41 573.42a1.5016 1.5016 0 0 0-1.5 1.5v7.2734a1.5016 1.5016 0 0 0 1.5 1.5h12.476a1.5016 1.5016 0 0 0 1.5-1.5v-7.2734a1.5016 1.5016 0 0 0-1.5-1.5z" fill="#319795"/>
<path transform="translate(-156 -67.223)" d="m675.18 573.42a1.5016 1.5016 0 0 0-1.5 1.5v7.2734a1.5016 1.5016 0 0 0 1.5 1.5h107.86a1.5016 1.5016 0 0 0 1.5-1.5v-7.2734a1.5016 1.5016 0 0 0-1.5-1.5z" fill="#319795"/>
<path transform="translate(-156 -67.223)" d="m610.14 525.73a1.5016 1.5016 0 0 0-1.5 1.5v7.2725a1.5016 1.5016 0 0 0 1.5 1.5h42.824a1.5016 1.5016 0 0 0 1.5-1.5v-7.2725a1.5016 1.5016 0 0 0-1.5-1.5z" fill="#319795"/>
<path transform="translate(-156 -67.223)" d="m546.85 525.73a1.5016 1.5016 0 0 0-1.5 1.5v7.2725a1.5016 1.5016 0 0 0 1.5 1.5h42.824a1.5016 1.5016 0 0 0 1.5-1.5v-7.2725a1.5016 1.5016 0 0 0-1.5-1.5z" fill="#319795"/>
<path transform="translate(-156 -67.223)" d="m800.91 525.73a1.5016 1.5016 0 0 0-1.5 1.5v7.2725a1.5016 1.5016 0 0 0 1.5 1.5h12.476a1.5016 1.5016 0 0 0 1.5-1.5v-7.2725a1.5016 1.5016 0 0 0-1.5-1.5z" fill="#319795"/>
<path transform="translate(-156 -67.223)" d="m672.58 525.73a1.5016 1.5016 0 0 0-1.5 1.5v7.2725a1.5016 1.5016 0 0 0 1.5 1.5h107.86a1.5016 1.5016 0 0 0 1.5-1.5v-7.2725a1.5016 1.5016 0 0 0-1.5-1.5z" fill="#319795"/>
<path transform="translate(-156 -67.223)" d="m707.26 550.01a1.5016 1.5016 0 0 0-1.5 1.5v7.2725a1.5016 1.5016 0 0 0 1.5 1.5h42.824a1.5016 1.5016 0 0 0 1.5-1.5v-7.2725a1.5016 1.5016 0 0 0-1.5-1.5z" fill="#319795"/>
<path transform="translate(-156 -67.223)" d="m770.56 550.01a1.5016 1.5016 0 0 0-1.5 1.5v7.2725a1.5016 1.5016 0 0 0 1.5 1.5h42.824a1.5016 1.5016 0 0 0 1.5-1.5v-7.2725a1.5016 1.5016 0 0 0-1.5-1.5z" fill="#319795"/>
<path transform="translate(-156 -67.223)" d="m546.85 550.01a1.5016 1.5016 0 0 0-1.5 1.5v7.2725a1.5016 1.5016 0 0 0 1.5 1.5h12.476a1.5016 1.5016 0 0 0 1.5-1.5v-7.2725a1.5016 1.5016 0 0 0-1.5-1.5z" fill="#319795"/>
<path transform="translate(-156 -67.223)" d="m579.8 550.01a1.5016 1.5016 0 0 0-1.5 1.5v7.2725a1.5016 1.5016 0 0 0 1.5 1.5h107.86a1.5016 1.5016 0 0 0 1.5-1.5v-7.2725a1.5016 1.5016 0 0 0-1.5-1.5z" fill="#319795"/>
<path transform="translate(-156 -67.223)" d="m697.32 258.65s12.882-4.6008 21.163 13.802 21.163 38.646 21.163 38.646l-7.3612 1.8403s-1.8403-12.882-6.441-14.722l1.8403 16.563s-55.209 19.323-80.053-1.8403l0.92015-6.441s-3.6806 0.92015-3.6806 6.441l-2.7604-2.7604s2.7604-5.5209 11.042-12.882c5.4355-4.8316 7.3034-14.024 7.9453-19.771a23.925 23.925 0 0 1 5.5081-13.029c5.5034-6.3781 15.531-13.157 30.714-5.847z" fill="#2f2e41"/>
<circle cx="533.46" cy="224.37" r="23.819" fill="#ffb8b8"/>
<path transform="translate(-156 -67.223)" d="m717.91 294.49c-9.1714-6.028-16.595-12.971-21.506-21.23 0 0-16.831 16.984-27.117 17.833s-0.93506-20.381-0.93506-20.381l18.701-4.246 17.766 1.6984 14.026 8.492z" fill="#2f2e41"/>
<rect x="524.42" y="243.17" width="18" height="18" fill="#ffb8b8"/>
<path transform="translate(-156 -67.223)" d="m724.76 345.05a65.85 65.85 0 0 1-71.74-2.23 27.038 27.038 0 0 1 24.4-15.43h22a27.006 27.006 0 0 1 25.34 17.66z" fill="#2f2e41"/>
<rect y="761.5" width="888" height="2.2407" fill="#3f3d56"/>
<path transform="translate(-156 -67.223)" d="m782.79 650.4h37.894c2.3699-17.488-2.859-33.814 0-45.472h-37.894q-10.702 22.736 0 45.472z" fill="#ff6584"/>
<path transform="translate(-156 -67.223)" d="m753.05 642.14h-37.894c1.4209-17.484 6.002-33.811 0-45.472h37.894q10.702 22.736 0 45.472z" fill="#319795"/>
<path transform="translate(-156 -67.223)" d="m442.63 383.3s13.022-4.6507 21.393 13.952 21.393 39.066 21.393 39.066l-7.4411 1.8603s-1.8603-13.022-6.511-14.882l1.8603 16.743s-55.809 19.533-80.922-1.8603l0.93014-6.511s-3.7206 0.93014-3.7206 6.511l-2.7904-2.7904s2.7904-5.5809 11.162-13.022c5.4946-4.884 7.3827-14.176 8.0316-19.985a24.185 24.185 0 0 1 5.568-13.17c5.5631-6.4473 15.7-13.3 31.047-5.9105z" fill="#2f2e41"/>
<path transform="translate(-156 -67.223)" d="m367.28 741.9-32.431 48.087 30.194 30.194 3.9141-7.8282-6.7099-15.656s1.1183-14.538 5.0324-18.452 21.248-27.399 21.248-27.399z" fill="#ffb8b8"/>
<path transform="translate(-156 -67.223)" d="m408.66 586.46s-6.1495 9.7331 6.7111 51.67c0 0-59.987 101.24-50.482 107.95s35.229 21.559 41.939 17.086 55.511-156.02 55.511-156.02z" fill="#2f2e41"/>
<path transform="translate(-156 -67.223)" d="m340.72 781.32-9.7852 9.7852c-5.0324 5.0324-8.3873 12.301 1.1183 18.452s42.496 29.076 53.679 21.807-13.42-13.979-13.42-13.979-4.0682-15.084-6.2278-11.736-2.1596 10.058-2.1596 10.058z" fill="#2f2e41"/>
<path transform="translate(-156 -67.223)" d="m458.98 768.18s17.893 32.99 17.893 36.904-1.1183 15.097-1.1183 15.097l34.108 8.3873 11.742-5.5916-3.9141-10.065s-21.248-7.269-25.721-21.248-9.5056-28.517-9.5056-28.517z" fill="#ffb8b8"/>
<circle cx="282.3" cy="349.25" r="23.485" fill="#ffb8b8"/>
<path transform="translate(-156 -67.223)" d="m444.45 436.6-11.212 32.216-24.574-10.968s16.775-25.721 16.775-29.076z" fill="#ffb8b8"/>
<path transform="translate(-156 -67.223)" d="m447.8 551.23h-29.635s-21.248 32.431-8.9465 66.54a176.82 176.82 0 0 1 5.6203 21.19c4.2925 19.894 8.5662 46.841 12.946 71.603 6.1519 34.782 12.513 65.253 19.428 65.806 13.979 1.1183 41.162 0.93171 41.162-4.6598s-18.208-167.36-18.208-167.36l-3.9141-6.7099-0.73984-29.227a17.629 17.629 0 0 0-17.712-17.183z" fill="#2f2e41"/>
<path transform="translate(-156 -67.223)" d="m477.16 804.81s-6.4303 10.904-4.7528 18.732 4.4732 6.7099 16.775 7.8282 54.238 1.1183 54.238-6.7099-32.714-17.994-32.852-14.868-1.2563 9.2767 2.0986 10.395 0.27958 0.27958 0.27958 0.27958z" fill="#2f2e41"/>
<path transform="translate(-156 -67.223)" d="m420.39 566.82c4.3728 0 13.778-11.232 18.7-6.3099 3.5799 3.5799 6.6176 7.0187 9.2976 10.053 7.6933 8.7092 14.419 16.691 19.093 10.964 0.70646-0.86565-1.6686 1.1336 0.31193-0.21377a4.7917 4.7917 0 0 0 1.9314-5.1998c-6.7814-21.246-11.004-41.599-5.6118-58.6a13.793 13.793 0 0 0 0.567-4.16q6.8e-4 -0.3087 0.02871-0.61829c0.285-3.1373 0.21351-14.374-12.661-27.248-11.766-11.766-14.024-18.997-14.321-22.259-0.06989-0.75983-19.037-20.439-19.037-20.439a4.7687 4.7687 0 0 0-5.7109 1.6029l-6.0755 8.3538a79.905 79.905 0 0 0-8.3321 42.32c1.6449 18.955 4.5006 56.442 6.846 69.963a4.9399 4.9399 0 0 0 1.8292 3.1156 4.7096 4.7096 0 0 0 4.8213 0.57069 20.306 20.306 0 0 1 8.324-1.8954z" fill="#2f2e41"/>
<polygon points="271.17 645.11 260.15 571.68 269.11 650.95" opacity=".2"/>
<path transform="translate(-156 -67.223)" d="m441.16 494.61 16.001 24.783 52.034-0.41521s21.874-12.353 26.273 3.9346c1.5064 5.5781-21.391 7.0877-23.547 7.2184-5.3904 0.32658-59.15 9.6541-62.469 4.8778s-20.777-21.464-20.777-21.464z" fill="#ffb8b8"/>
<path transform="translate(-156 -67.223)" d="m417.23 477.22s9.0854-5.9234 21.559 4.6097 14.968 19.958 14.968 19.958l-29.382 17.463s-28.704-30.563-7.1451-42.03z" fill="#2f2e41"/>
<path transform="translate(-156 -67.223)" d="m463.44 417.52c-9.271-6.0935-16.776-13.112-21.74-21.461 0 0-17.014 17.168-27.411 18.027s-0.94522-20.602-0.94522-20.602l18.904-4.2921 17.959 1.7168 14.178 8.5842z" fill="#2f2e41"/>
<ellipse cx="258.92" cy="348.67" rx="2.5" ry="4.5" fill="#ffb8b8"/>
</svg>
