<svg xmlns="http://www.w3.org/2000/svg" width="500" height="500" viewBox="0 0 500 500" version="1.1">
	<path d="M 333.500 1.590 C 320.425 3.533, 243.506 13.754, 227.500 15.676 C 224.750 16.006, 221.774 16.646, 220.888 17.099 C 219.085 18.020, 217.912 23.315, 215.483 41.500 C 214.601 48.100, 213.499 54.442, 213.033 55.593 C 212.502 56.904, 210.001 58.512, 206.343 59.895 C 186.780 67.287, 163.162 86.080, 151.108 103.846 C 138.810 121.970, 131.390 144.978, 128.838 172.894 C 128.179 180.104, 127.975 201.788, 128.295 230.479 L 128.809 276.500 131.752 290.539 C 137.489 317.912, 146.780 336.009, 163.883 353.123 C 181.066 370.318, 201.514 381.273, 227.852 387.394 C 231.345 388.206, 234.361 389.028, 234.554 389.221 C 235.085 389.752, 231.683 402.974, 224.449 428.500 C 223.670 431.250, 219.453 446.776, 215.080 463.002 C 210.706 479.228, 206.819 493.307, 206.443 494.289 C 205.629 496.409, 208.495 500, 211 500 C 213.505 500, 214.843 498.110, 225.516 479.500 C 230.879 470.150, 238.522 456.875, 242.500 450 C 246.479 443.125, 255.038 428.275, 261.521 417 C 268.003 405.725, 273.757 395.774, 274.308 394.887 C 275.107 393.600, 277.851 393.152, 287.905 392.668 C 295.100 392.322, 303.930 391.205, 308.500 390.065 C 312.900 388.967, 317.186 388.053, 318.024 388.034 C 318.862 388.015, 322.912 392.381, 327.024 397.736 C 331.136 403.091, 336.277 409.425, 338.448 411.813 C 345.606 419.682, 344.399 419.460, 382 419.825 C 400.425 420.003, 417.486 419.852, 419.913 419.489 C 425.682 418.626, 430 414.486, 430 409.818 C 430 407.099, 426.575 401.645, 411.476 380.314 L 392.951 354.145 399.739 345.685 C 414.488 327.303, 423.224 304.634, 426.979 275 C 430.035 250.889, 429.092 176.297, 425.471 155.738 C 419.803 123.548, 405.750 98.291, 383.199 79.761 C 370.840 69.606, 358.880 62.853, 343.750 57.489 C 339.488 55.977, 336 54.533, 336 54.279 C 336 54.025, 339.600 42.961, 344 29.691 C 348.400 16.422, 352 4.853, 352 3.982 C 352 -0.254, 348.745 -0.675, 333.500 1.590 M 310.484 131.250 C 309.636 133.585, 304.783 148.470, 302.490 155.767 C 300.338 162.616, 300.303 163.153, 301.889 165.111 L 303.571 167.188 317.390 164.431 L 331.209 161.674 330.664 158.315 C 329.664 152.155, 323.153 140.248, 317.924 135.019 C 312.751 129.846, 311.266 129.094, 310.484 131.250 M 243 280.108 C 237.225 281.157, 231.015 282.261, 229.200 282.562 C 226.343 283.036, 225.993 283.404, 226.594 285.305 C 228.767 292.178, 233.877 300.660, 238.829 305.611 C 244.521 311.304, 253.664 316.803, 254.986 315.328 C 255.738 314.490, 261.408 294.422, 263.324 285.823 C 265.207 277.366, 262.415 276.581, 243 280.108 M 1.762 499.707 C 3.006 499.946, 4.806 499.937, 5.762 499.687 C 6.718 499.437, 5.700 499.241, 3.500 499.252 C 1.300 499.263, 0.518 499.468, 1.762 499.707 M 9.750 499.706 C 10.988 499.944, 13.012 499.944, 14.250 499.706 C 15.488 499.467, 14.475 499.272, 12 499.272 C 9.525 499.272, 8.512 499.467, 9.750 499.706 M 19.768 499.725 C 21.565 499.947, 24.265 499.943, 25.768 499.715 C 27.271 499.486, 25.800 499.304, 22.500 499.310 C 19.200 499.315, 17.971 499.502, 19.768 499.725 " stroke="none" fill="#003437" fill-rule="evenodd"/>
	<path d="M 339.500 1.094 C 336.750 1.566, 329.100 2.651, 322.500 3.505 C 315.900 4.359, 302.400 6.157, 292.500 7.500 C 282.600 8.843, 262.375 11.533, 247.555 13.478 C 232.463 15.458, 220.304 17.509, 219.914 18.139 C 219.196 19.300, 215.574 41.034, 214.380 51.339 C 213.794 56.394, 213.355 57.318, 211.102 58.220 C 189.216 66.988, 173.231 77.956, 159.570 93.582 C 143.805 111.615, 134.845 132.262, 130.313 161 C 128.739 170.986, 128.505 178.949, 128.538 221.500 C 128.574 266.944, 128.734 271.450, 130.742 283.593 C 138.187 328.613, 159.380 358.112, 197.500 376.519 C 207.386 381.292, 227.310 387.976, 231.771 388.015 C 235.490 388.048, 235.847 389.259, 233.979 395.500 C 229.653 409.947, 208.013 490.127, 207.381 494.048 C 206.720 498.145, 208.691 500.550, 211.879 499.538 C 214.081 498.840, 213.885 499.146, 229.510 472 C 235.683 461.275, 244.107 446.650, 248.229 439.500 C 252.352 432.350, 260.006 419.075, 265.238 410 L 274.750 393.500 285.193 392.845 C 295.143 392.220, 308.759 390.097, 315.733 388.083 L 318.967 387.149 329.966 401.045 C 337.755 410.887, 342.125 415.533, 344.942 416.971 C 348.724 418.900, 350.718 419, 385.413 419 C 410.172 419, 422.695 418.641, 424.359 417.882 C 427.588 416.411, 430.471 410.997, 429.674 407.901 C 429.334 406.580, 422.543 396.275, 414.582 385 C 406.622 373.725, 398.460 362.146, 396.445 359.269 L 392.782 354.038 396.749 349.269 C 407.768 336.022, 415.019 322.690, 420.010 306.500 C 425.513 288.647, 426.683 280.153, 428.104 247.740 C 429.534 215.109, 428.160 173.181, 425.064 155 C 418.334 115.471, 395.719 83.445, 362 65.690 C 355.584 62.312, 340.098 56, 338.225 56 C 337.517 56, 336.704 55.391, 336.418 54.647 C 336.132 53.903, 339.561 42.169, 344.037 28.572 C 351.835 4.881, 352.102 3.770, 350.432 1.925 C 348.563 -0.140, 347.262 -0.239, 339.500 1.094 M 310.533 130.166 C 303.258 150.866, 299.977 162.654, 300.916 164.716 C 301.489 165.972, 302.754 167, 303.729 167 C 305.743 167, 319.085 164.570, 326.358 162.878 L 331.215 161.749 330.584 157.798 C 329.885 153.429, 325.079 143.232, 321.423 138.360 C 317.867 133.623, 311.106 128.535, 310.533 130.166 M 244.500 279.556 C 226.969 282.567, 226 282.804, 226 284.085 C 226 286.803, 233.162 300.010, 236.930 304.240 C 241.339 309.189, 253.941 317.476, 255.154 316.223 C 255.539 315.825, 256.823 311.675, 258.008 307 C 259.193 302.325, 261.247 294.751, 262.572 290.168 C 265.071 281.532, 264.836 278.919, 261.446 277.618 C 259.505 276.873, 261.366 276.660, 244.500 279.556 M 1.762 499.707 C 3.006 499.946, 4.806 499.937, 5.762 499.687 C 6.718 499.437, 5.700 499.241, 3.500 499.252 C 1.300 499.263, 0.518 499.468, 1.762 499.707 M 10.762 499.707 C 12.006 499.946, 13.806 499.937, 14.762 499.687 C 15.718 499.437, 14.700 499.241, 12.500 499.252 C 10.300 499.263, 9.518 499.468, 10.762 499.707 M 19.768 499.725 C 21.565 499.947, 24.265 499.943, 25.768 499.715 C 27.271 499.486, 25.800 499.304, 22.500 499.310 C 19.200 499.315, 17.971 499.502, 19.768 499.725 " stroke="none" fill="#036c72" fill-rule="evenodd"/>
	<path d="M 345.778 0.555 C 345.472 0.861, 336.510 2.203, 325.861 3.537 C 315.213 4.871, 305.375 6.205, 304 6.500 C 301.641 7.007, 288.268 8.729, 241.535 14.546 C 230.554 15.912, 221.107 17.493, 220.541 18.059 C 219.976 18.624, 218.752 24.355, 217.820 30.793 C 213.853 58.222, 213.819 58.337, 209.209 59.469 C 205.630 60.348, 192.870 66.484, 187.648 69.836 C 161.654 86.527, 144.826 108.366, 136.064 136.786 C 131.364 152.028, 130.113 161.579, 128.801 192.247 C 127.467 223.419, 128.792 270.396, 131.455 286.336 C 138.970 331.314, 164.313 363.148, 206.335 380.395 C 211.668 382.584, 230.631 388, 232.962 388 C 236.064 388, 236.222 389.546, 233.901 397.232 C 232.694 401.229, 230.631 408.550, 229.317 413.500 C 228.002 418.450, 225.833 426.550, 224.495 431.500 C 223.158 436.450, 220.730 445.450, 219.099 451.500 C 217.468 457.550, 215.008 466.550, 213.632 471.500 C 206.435 497.393, 206.669 496.113, 208.764 498.208 C 210.588 500.033, 210.732 500.036, 212.831 498.300 C 214.893 496.594, 219.622 488.872, 231.082 468.500 C 233.866 463.550, 238.648 455.225, 241.709 450 C 244.770 444.775, 249.850 436, 252.998 430.500 C 256.146 425, 261.323 416, 264.501 410.500 C 267.679 405, 271.200 398.813, 272.325 396.750 C 273.660 394.304, 275.089 392.994, 276.436 392.984 C 284.295 392.924, 303.759 390.657, 310.823 388.980 C 315.485 387.872, 319.388 387.086, 319.496 387.233 C 326.443 396.670, 340.023 413.031, 342.624 415.099 C 344.592 416.663, 347.993 418.168, 350.324 418.507 C 352.621 418.841, 370.128 418.976, 389.228 418.807 L 423.957 418.500 426.678 415.777 C 431.966 410.487, 431.320 409.017, 411.200 380.591 C 401.190 366.448, 393 354.482, 393 353.999 C 393 353.517, 394.879 350.957, 397.175 348.311 C 412.071 331.144, 422.754 304.918, 426.003 277.539 C 428.917 252.979, 428.690 183.301, 425.622 160.500 C 422.891 140.205, 415.149 118.997, 404.962 103.906 C 399.008 95.086, 382.047 78.428, 373.022 72.538 C 364.970 67.282, 350.870 60.395, 342 57.384 C 338.975 56.357, 336.247 55.172, 335.937 54.752 C 335.425 54.056, 338.963 41.323, 341.008 36.500 C 342.950 31.921, 351 5.928, 351 4.236 C 351 1.249, 347.530 -1.197, 345.778 0.555 M 305.638 143.254 C 299.512 161.206, 299.046 164.219, 302.070 166.336 C 303.311 167.205, 304.619 167.735, 304.978 167.514 C 305.337 167.292, 311.226 166.158, 318.065 164.994 C 324.904 163.831, 330.839 162.544, 331.254 162.135 C 332.339 161.066, 329.314 151.453, 325.809 144.832 C 322.865 139.271, 313.606 128.996, 311.546 129.004 C 310.971 129.006, 308.312 135.419, 305.638 143.254 M 241.657 279.557 C 233.493 280.820, 226.558 282.108, 226.247 282.420 C 225.325 283.341, 227.963 290.965, 231.168 296.643 C 234.766 303.018, 244.129 311.916, 250.470 314.985 C 253.019 316.219, 255.327 317.006, 255.599 316.734 C 255.872 316.462, 256.941 312.923, 257.975 308.870 C 259.010 304.816, 261.072 296.875, 262.559 291.223 C 265.161 281.330, 265.195 280.873, 263.476 278.973 C 261.333 276.606, 260.608 276.625, 241.657 279.557 M 1.250 499.689 C 2.212 499.941, 3.788 499.941, 4.750 499.689 C 5.713 499.438, 4.925 499.232, 3 499.232 C 1.075 499.232, 0.288 499.438, 1.250 499.689 M 10.250 499.689 C 11.213 499.941, 12.787 499.941, 13.750 499.689 C 14.713 499.438, 13.925 499.232, 12 499.232 C 10.075 499.232, 9.287 499.438, 10.250 499.689 M 19.768 499.725 C 21.565 499.947, 24.265 499.943, 25.768 499.715 C 27.271 499.486, 25.800 499.304, 22.500 499.310 C 19.200 499.315, 17.971 499.502, 19.768 499.725 " stroke="none" fill="#036c72" fill-rule="evenodd"/>
	<path d="M 261.500 48.034 C 240.463 49.550, 225.042 52.804, 211.500 58.585 C 190.009 67.759, 175.946 77.008, 163.389 90.228 C 149.320 105.039, 141.432 119.317, 135.067 141.500 C 129.967 159.269, 129.500 165.945, 129.500 221 C 129.500 273.862, 129.967 281.620, 134.107 297.500 C 139.785 319.278, 148.319 335.540, 161.596 349.880 C 182.375 372.324, 210.423 385.172, 251.500 391.064 C 264.071 392.868, 267.286 392.966, 283 392.032 C 292.625 391.459, 303.650 390.270, 307.500 389.389 C 320.648 386.381, 319.109 385.969, 325.302 394.155 C 340.123 413.745, 343.229 416.736, 350.142 418.071 C 356.415 419.283, 417.733 419.202, 422.147 417.976 C 426.865 416.665, 429.406 412.890, 428.661 408.300 C 428.170 405.270, 419.220 391.992, 395.362 358.895 L 392.042 354.290 398.847 345.624 C 402.589 340.858, 407.349 333.930, 409.425 330.229 C 417.665 315.535, 423.930 294.403, 426.153 273.811 C 427.780 258.740, 427.777 182.515, 426.149 167 C 425.022 156.251, 419.801 132.738, 418.045 130.500 C 417.614 129.950, 416.686 127.700, 415.983 125.500 C 412.191 113.629, 398.736 94.359, 386.819 83.731 C 381.143 78.669, 377.581 76.026, 367 69.027 C 361.227 65.207, 349.705 60.347, 331.095 53.879 C 317.933 49.304, 283.727 46.432, 261.500 48.034 M 267.831 119.958 C 245.514 124.037, 231.836 136.184, 226.051 157.059 C 222.468 169.990, 221.781 182.865, 222.296 227.503 C 222.562 250.601, 223.239 271.525, 223.801 274 C 224.362 276.475, 225.067 280.075, 225.366 282 C 226.250 287.679, 228.697 293.700, 232.179 298.761 C 242.814 314.221, 256.229 320.495, 278.500 320.426 C 291.507 320.385, 298.030 318.830, 308.037 313.384 C 314.342 309.952, 323 300.907, 326.397 294.202 C 333.234 280.712, 335.605 255.446, 334.628 206.500 C 333.835 166.731, 332.138 155.120, 325.386 143.259 C 321.479 136.396, 317.412 132.375, 309.749 127.801 C 298.599 121.145, 280.184 117.699, 267.831 119.958 M 1.269 499.693 C 2.242 499.947, 3.592 499.930, 4.269 499.656 C 4.946 499.382, 4.150 499.175, 2.500 499.195 C 0.850 499.215, 0.296 499.439, 1.269 499.693 M 9.813 499.683 C 10.534 499.972, 11.397 499.936, 11.729 499.604 C 12.061 499.272, 11.471 499.036, 10.417 499.079 C 9.252 499.127, 9.015 499.364, 9.813 499.683 M 19.768 499.725 C 21.565 499.947, 24.265 499.943, 25.768 499.715 C 27.271 499.486, 25.800 499.304, 22.500 499.310 C 19.200 499.315, 17.971 499.502, 19.768 499.725 " stroke="none" fill="#003437" fill-rule="evenodd"/>
</svg>