<svg xmlns="http://www.w3.org/2000/svg" xmlns:xlink="http://www.w3.org/1999/xlink" version="1.1" x="0px" y="0px" viewBox="0 0 128 160" enable-background="new 0 0 128 128" xml:space="preserve">
    <g fill="#049199" stroke="#049199" stroke-width="1px">
        <path d="M63.6,35.4c0,0.5-0.4,2-1,3.3c-0.1,0.2-0.1,0.4,0,0.6c0.1,0.2,0.2,0.3,0.4,0.4c0.1,0,0.2,0.1,0.4,0.1   c0.6,0,1.4-0.4,3.1-1.4c0.7-0.4,1.7-1,2.1-1.1c7.6,1.5,15.3-2.8,18-10.2c1.1-3,1.2-6.2,0.4-9.3c-0.8-3.1-2.5-5.8-4.8-7.9   C80.7,8.6,79,7.5,77,6.8c-8.2-3-17.3,1.3-20.2,9.5C54.1,23.6,57,31.6,63.6,35.4z M58.2,16.9c2.1-5.8,7.6-9.5,13.5-9.5   c1.6,0,3.2,0.3,4.8,0.8c1.7,0.6,3.3,1.6,4.7,2.8c2.1,1.9,3.6,4.4,4.4,7.1c0.7,2.8,0.6,5.7-0.4,8.4l0,0c-2.4,6.7-9.4,10.6-16.4,9.2   c-0.6-0.1-1.2,0.2-3,1.3c-0.3,0.2-0.7,0.4-1.1,0.6c1-2.9,0.2-3.3-0.1-3.5C58.5,30.8,55.8,23.5,58.2,16.9z" />
        <path d="M62.5,18.9h18.2c0.4,0,0.8-0.3,0.8-0.8c0-0.4-0.3-0.8-0.8-0.8H62.5c-0.4,0-0.8,0.3-0.8,0.8C61.8,18.6,62.1,18.9,62.5,18.9z   " />
        <path d="M78.6,23.8h-14c-0.4,0-0.8,0.3-0.8,0.8c0,0.4,0.3,0.8,0.8,0.8h14c0.4,0,0.8-0.3,0.8-0.8C79.4,24.1,79,23.8,78.6,23.8z" />
        <path d="M72,100.5c-0.4-1.1-0.7-2.2-1-3.3c-0.1-0.4-0.2-0.7-0.4-1c-0.7-1.8-1.7-3.3-3.1-4.6c-1-0.9-2.1-1.7-3.4-2.4   c-1.6-0.8-3.5-1.3-5.5-1.5c-1-0.1-2.1-0.1-3.2,0c-1.6,0.1-3.2,0.2-4.9,0.3c-0.5-1.1-1.9-4.7,0-9.8c2.4-2.2,4.3-5.1,5.5-8.7l0,0   c1.9,0,3.3-2.8,3.3-6.4c0-3-0.9-5.4-2.3-6.1v-0.1c0.2-2,0.5-4,0.6-6c0.6-8.8-1.8-9.9-6.2-11.3c-0.3-0.1-0.7-0.2-1.1-0.3   c-3.6-1.2-7.3-1.4-9.8-1.4s-6.2,0.3-9.8,1.4c-0.4,0.1-0.7,0.2-1.1,0.3c-4.5,1.4-6.8,2.5-6.2,11.3c0.1,2,0.4,4,0.6,6V57   c-1.4,0.8-2.3,3.2-2.3,6.1c0,3.7,1.4,6.4,3.3,6.4l0,0c1.2,3.5,3,6.4,5.3,8.5c1.9,5.1,0.5,8.8,0,10c-1.6-0.1-3.1-0.2-4.7-0.3   c-7.6-0.6-13.5,3.1-15.5,9.6c-0.2,0.6-0.4,1.2-0.6,1.8c-0.3,0.8-0.5,1.5-0.8,2.4c-0.1,0.3,0,0.6,0.2,0.8   c0.2,0.2,10.9,10.1,29.4,10.1c9.3,0,20.5-2.5,33.4-10c0.3-0.2,0.5-0.6,0.3-0.9V100.5z M30.3,40.9c0.3-0.1,0.7-0.2,1.1-0.3   c2.7-0.9,5.9-1.3,9.3-1.4c3.4,0,6.6,0.5,9.3,1.4c0.4,0.1,0.7,0.2,1.1,0.3c3.9,1.2,5.7,1.8,5.2,9.8c0,0.7-0.1,1.4-0.2,2.2   c-0.7-1.8-1.8-3.6-3.4-3.8c-2.9-0.3-10.8-0.3-11.1-0.3c-3-0.2-12.9-0.5-14.5,1.3c-0.6,0.7-1.2,2-1.7,3.2c-0.1-0.9-0.2-1.8-0.2-2.7   C24.6,42.6,26.4,42.1,30.3,40.9z M26.5,68.3c-0.1-0.2-0.2-0.4-0.4-0.5c-0.1,0-0.2-0.1-0.3-0.1c-0.1,0-0.2,0-0.3,0.1   c-0.1,0-0.2,0.1-0.2,0.1c-0.7,0-1.8-1.9-1.8-4.9c0-2.9,1-4.7,1.7-4.9c0.3-0.1,0.5-0.3,0.6-0.6v-0.2c0.3-1.4,1.3-5,2.4-6.2   c0.7-0.8,7.5-1.1,13.3-0.8c0.1,0,8.1-0.1,11,0.3c1.7,0.2,2.8,4.4,3.1,6.6l0,0l0,0v0.1l0,0v0.1c0.1,0.3,0.3,0.5,0.6,0.6   c0.7,0.2,1.7,2,1.7,4.9c0,3-1.1,4.9-1.8,4.9c-0.1,0-0.1,0-0.2-0.1c-0.2-0.1-0.4-0.1-0.6,0c-0.2,0.1-0.3,0.3-0.4,0.5   c-2.3,7.5-7.9,12.3-14.2,12.3C34.4,80.6,28.8,75.7,26.5,68.3z M40.7,82.1c2.8,0,5.5-0.9,7.9-2.4c-1.3,5.6,0.8,9.2,0.9,9.4   c-1.5,2.9-2.6,4.2-3.9,5.7c-0.3,0.3-0.5,0.6-0.8,1L44.4,96c-1,1.2-2.5,1.8-4.1,1.8c-1.5,0-3-0.7-4-1.8c-1.7-1.9-3.2-4.3-4.7-7.1   c0.1-0.2,2.3-3.9,1-9.4C35,81.2,37.8,82.1,40.7,82.1z M10.6,101.3c0.2-0.7,0.4-1.3,0.6-1.9c0.2-0.6,0.4-1.2,0.6-1.8   c1.8-5.8,7.2-9.1,14-8.5c1.4,0.1,2.9,0.2,4.3,0.2c1.6,3.1,3.3,5.7,5.1,7.7c1.3,1.5,3.2,2.3,5.1,2.3l0,0c2,0,3.9-0.9,5.2-2.4   l0.4-0.4c0.3-0.3,0.6-0.6,0.8-0.9c1.4-1.7,2.6-3,4.3-6.3c1.5-0.1,3-0.2,4.5-0.3c1-0.1,2-0.1,3,0c1.8,0.2,3.4,0.6,4.9,1.4   c1.1,0.5,2.1,1.3,3,2.1c1.2,1.1,2.1,2.5,2.7,4.1c0.1,0.3,0.2,0.6,0.3,0.9c0.3,1.1,0.7,2.2,1.1,3.4l0.1,0.2   C36,121.2,13.6,103.8,10.6,101.3z" />
        <path d="M107.7,34.3c0,0.4,0.4,0.7,0.8,0.7h17.8c0.4,0,0.7-0.3,0.8-0.7l0.5-7.1c0.1-2.1-0.5-4.1-1.9-5.7c-0.7-0.8-1.6-1.3-2.7-1.4   s-2.1,0.3-2.9,1c-0.7,0.6-1.7,1-2.7,1s-2-0.4-2.7-1c-0.8-0.7-1.8-1.1-2.9-1s-2.2,0.7-2.9,1.6c-1.2,1.6-1.8,3.5-1.7,5.5L107.7,34.3z    M110.1,22.7c0.4-0.6,1.1-0.9,1.8-1c0.7-0.1,1.3,0.1,1.7,0.6c1,0.9,2.3,1.4,3.7,1.4c1.4,0,2.8-0.5,3.7-1.4c0.5-0.4,1.1-0.6,1.7-0.6   s1.2,0.3,1.6,0.8c1.1,1.3,1.6,3,1.5,4.7l0,0l-0.4,6.4H109l-0.4-6.4C108.6,25.5,109.1,23.9,110.1,22.7z" />
        <path d="M117.4,18.6c2.9,0,5.3-2.5,5.3-5.6s-2.4-5.6-5.3-5.6s-5.3,2.5-5.3,5.6S114.4,18.6,117.4,18.6z M117.4,8.9   c2.1,0,3.8,1.8,3.8,4.1s-1.7,4.1-3.8,4.1c-2.1,0-3.8-1.8-3.8-4.1C113.6,10.8,115.3,8.9,117.4,8.9z" />
        <path d="M122.9,56.1c-1.1-0.1-2.1,0.3-2.9,1c-0.7,0.6-1.7,1-2.7,1s-2-0.4-2.7-1c-0.8-0.7-1.8-1.1-2.9-1s-2.2,0.7-2.9,1.6   c-1.2,1.6-1.8,3.5-1.7,5.5l0.5,7.1c0,0.4,0.4,0.7,0.8,0.7h17.8c0.4,0,0.7-0.3,0.8-0.7l0.5-7.1c0.1-2.1-0.5-4.1-1.9-5.7   C125,56.7,124,56.2,122.9,56.1z M126,63.1L126,63.1l-0.4,6.4h-16.4l-0.4-6.4c-0.1-1.6,0.4-3.2,1.4-4.5c0.4-0.6,1.1-0.9,1.8-1   c0.7-0.1,1.3,0.1,1.7,0.6c1,0.9,2.3,1.4,3.7,1.4c1.4,0,2.8-0.5,3.7-1.4c0.5-0.4,1.1-0.6,1.7-0.6s1.2,0.3,1.6,0.8   C125.6,59.8,126.1,61.4,126,63.1z" />
        <path d="M112.1,49c0,3.1,2.4,5.6,5.3,5.6s5.3-2.5,5.3-5.6s-2.4-5.6-5.3-5.6C114.4,43.4,112.1,45.9,112.1,49z M121.1,49   c0,2.3-1.7,4.1-3.8,4.1c-2.1,0-3.8-1.8-3.8-4.1s1.7-4.1,3.8-4.1S121.1,46.8,121.1,49z" />
        <path d="M122.9,92.2c-1.1-0.1-2.1,0.3-2.9,1c-0.7,0.6-1.7,1-2.7,1s-2-0.4-2.7-1c-0.8-0.7-1.8-1-2.9-1c-1.1,0.1-2.2,0.7-2.9,1.6   c-1.2,1.6-1.8,3.5-1.7,5.5l0.5,7.1c0,0.4,0.4,0.7,0.8,0.7h17.8c0.4,0,0.7-0.3,0.8-0.7l0.5-7.1c0.1-2.1-0.5-4.1-1.9-5.7   C125,92.7,124,92.2,122.9,92.2z M126,99.2L126,99.2l-0.4,6.4h-16.4l-0.4-6.4c-0.1-1.6,0.4-3.2,1.4-4.5c0.4-0.6,1.1-0.9,1.8-1   c0.7-0.1,1.3,0.1,1.7,0.6c1,0.9,2.3,1.4,3.7,1.4c1.4,0,2.8-0.5,3.7-1.4c0.5-0.4,1.1-0.6,1.7-0.6s1.2,0.3,1.6,0.8   C125.6,95.8,126.1,97.4,126,99.2z" />
        <path d="M122.6,85c0-3.1-2.4-5.6-5.3-5.6S112,81.9,112,85s2.4,5.6,5.3,5.6C120.3,90.6,122.6,88.1,122.6,85z M113.6,85   c0-2.3,1.7-4.1,3.8-4.1c2.1,0,3.8,1.8,3.8,4.1c0,2.3-1.7,4.1-3.8,4.1C115.3,89.1,113.6,87.3,113.6,85z" />
        <path d="M96.7,61H71.6c-0.4,0-0.8,0.3-0.8,0.8c0,0.4,0.3,0.8,0.8,0.8h25.1c0.4,0,0.8-0.3,0.8-0.8C97.4,61.3,97.1,61,96.7,61z" />
        <path d="M96.2,31.5L71.2,50c-0.3,0.2-0.4,0.7-0.2,1.1c0.1,0.2,0.4,0.3,0.6,0.3s0.3,0,0.4-0.1l25.1-18.5c0.3-0.2,0.4-0.7,0.2-1.1   C97.1,31.3,96.6,31.3,96.2,31.5z" />
        <path d="M72.1,72.3c-0.3-0.2-0.8-0.2-1.1,0.2c-0.2,0.3-0.2,0.8,0.2,1.1l25.1,18.5c0.1,0.1,0.3,0.1,0.4,0.1c0.2,0,0.5-0.1,0.6-0.3   c0.2-0.3,0.2-0.8-0.2-1.1L72.1,72.3z" />
    </g>
</svg>