<svg xmlns="http://www.w3.org/2000/svg" xmlns:xlink="http://www.w3.org/1999/xlink" version="1.1" x="0px" y="0px" viewBox="0 0 128 160" enable-background="new 0 0 128 128" xml:space="preserve"><g fill="#D98880" stroke="#D98880" stroke-width="1px"><path d="M105.7,26.9c0.4,0,0.8-0.3,0.8-0.8V14.6c0-0.4-0.3-0.8-0.8-0.8c-0.4,0-0.8,0.3-0.8,0.8v11.5   C105,26.6,105.3,26.9,105.7,26.9z"/><path d="M105.7,34.5c0.4,0,0.8-0.3,0.8-0.8V30c0-0.4-0.3-0.8-0.8-0.8c-0.4,0-0.8,0.3-0.8,0.8v3.7C105,34.1,105.3,34.5,105.7,34.5z"/><path d="M12.5,87.3c-0.4,0-0.8,0.3-0.8,0.8v11.5c0,0.4,0.3,0.8,0.8,0.8c0.4,0,0.8-0.3,0.8-0.8V88.1C13.3,87.7,13,87.3,12.5,87.3z"/><path d="M12.5,102.7c-0.4,0-0.8,0.3-0.8,0.8v3.7c0,0.4,0.3,0.8,0.8,0.8c0.4,0,0.8-0.3,0.8-0.8v-3.7C13.3,103,13,102.7,12.5,102.7z"/><path d="M86.5,3.4c0.1,0.1,0.3,0.2,0.5,0.2c0.2,0,0.4-0.1,0.5-0.2c0.3-0.3,0.3-0.8,0-1.1L86,0.7c-0.3-0.3-0.8-0.3-1.1,0   c-0.3,0.3-0.3,0.8,0,1.1L86.5,3.4z"/><path d="M91.5,8.4c0.1,0.1,0.3,0.2,0.5,0.2c0.2,0,0.4-0.1,0.5-0.2c0.3-0.3,0.3-0.8,0-1.1L91,5.8c-0.3-0.3-0.8-0.3-1.1,0   c-0.3,0.3-0.3,0.8,0,1.1L91.5,8.4z"/><path d="M85.5,8.6c0.2,0,0.4-0.1,0.5-0.2l1.6-1.6c0.3-0.3,0.3-0.8,0-1.1c-0.3-0.3-0.8-0.3-1.1,0l-1.6,1.6c-0.3,0.3-0.3,0.8,0,1.1   C85.1,8.6,85.3,8.6,85.5,8.6z"/><path d="M90.5,3.6c0.2,0,0.4-0.1,0.5-0.2l1.6-1.6c0.3-0.3,0.3-0.8,0-1.1c-0.3-0.3-0.8-0.3-1.1,0L90,2.3c-0.3,0.3-0.3,0.8,0,1.1   C90.1,3.5,90.3,3.6,90.5,3.6z"/><path d="M22.3,119.6c-0.3-0.3-0.8-0.3-1.1,0c-0.3,0.3-0.3,0.8,0,1.1l1.6,1.6c0.1,0.1,0.3,0.2,0.5,0.2c0.2,0,0.4-0.1,0.5-0.2   c0.3-0.3,0.3-0.8,0-1.1L22.3,119.6z"/><path d="M27.3,124.6c-0.3-0.3-0.8-0.3-1.1,0c-0.3,0.3-0.3,0.8,0,1.1l1.6,1.6c0.1,0.1,0.3,0.2,0.5,0.2c0.2,0,0.4-0.1,0.5-0.2   c0.3-0.3,0.3-0.8,0-1.1L27.3,124.6z"/><path d="M22.8,124.6l-1.6,1.6c-0.3,0.3-0.3,0.8,0,1.1c0.1,0.1,0.3,0.2,0.5,0.2c0.2,0,0.4-0.1,0.5-0.2l1.6-1.6   c0.3-0.3,0.3-0.8,0-1.1C23.5,124.4,23.1,124.4,22.8,124.6z"/><path d="M27.8,119.6l-1.6,1.6c-0.3,0.3-0.3,0.8,0,1.1c0.1,0.1,0.3,0.2,0.5,0.2c0.2,0,0.4-0.1,0.5-0.2l1.6-1.6   c0.3-0.3,0.3-0.8,0-1.1C28.6,119.3,28.1,119.3,27.8,119.6z"/><path d="M109.1,84.8c0.1,0.1,0.3,0.2,0.5,0.2c0.2,0,0.4-0.1,0.5-0.2c0.3-0.3,0.3-0.8,0-1.1l-1.6-1.6c-0.3-0.3-0.8-0.3-1.1,0   c-0.3,0.3-0.3,0.8,0,1.1L109.1,84.8z"/><path d="M112.6,88.3l1.6,1.6c0.1,0.1,0.3,0.2,0.5,0.2c0.2,0,0.4-0.1,0.5-0.2c0.3-0.3,0.3-0.8,0-1.1l-1.6-1.6   c-0.3-0.3-0.8-0.3-1.1,0C112.3,87.5,112.3,88,112.6,88.3z"/><path d="M107.6,89.9c0.1,0.1,0.3,0.2,0.5,0.2c0.2,0,0.4-0.1,0.5-0.2l1.6-1.6c0.3-0.3,0.3-0.8,0-1.1c-0.3-0.3-0.8-0.3-1.1,0   l-1.6,1.6C107.3,89.1,107.3,89.6,107.6,89.9z"/><path d="M113.1,85c0.2,0,0.4-0.1,0.5-0.2l1.6-1.6c0.3-0.3,0.3-0.8,0-1.1c-0.3-0.3-0.8-0.3-1.1,0l-1.6,1.6c-0.3,0.3-0.3,0.8,0,1.1   C112.8,85,113,85,113.1,85z"/><path d="M117.9,18.3c2,0,3.7-1.7,3.7-3.7c0-2-1.7-3.7-3.7-3.7c-2,0-3.7,1.7-3.7,3.7C114.2,16.7,115.8,18.3,117.9,18.3z M117.9,12.4   c1.2,0,2.2,1,2.2,2.2c0,1.2-1,2.2-2.2,2.2c-1.2,0-2.2-1-2.2-2.2C115.7,13.4,116.7,12.4,117.9,12.4z"/><path d="M66.8,118.9c-2,0-3.7,1.7-3.7,3.7c0,2,1.7,3.7,3.7,3.7c2,0,3.7-1.7,3.7-3.7C70.5,120.6,68.8,118.9,66.8,118.9z M66.8,124.9   c-1.2,0-2.2-1-2.2-2.2c0-1.2,1-2.2,2.2-2.2c1.2,0,2.2,1,2.2,2.2C69,123.9,68,124.9,66.8,124.9z"/><path d="M8.4,69.8c-2,0-3.7,1.7-3.7,3.7c0,2,1.7,3.7,3.7,3.7s3.7-1.7,3.7-3.7C12.1,71.5,10.5,69.8,8.4,69.8z M8.4,75.7   c-1.2,0-2.2-1-2.2-2.2c0-1.2,1-2.2,2.2-2.2s2.2,1,2.2,2.2C10.6,74.7,9.6,75.7,8.4,75.7z"/><path d="M10.2,6.3h13.7c0.4,0,0.8-0.3,0.8-0.8c0-0.4-0.3-0.8-0.8-0.8H10.2c-0.4,0-0.8,0.3-0.8,0.8C9.4,5.9,9.7,6.3,10.2,6.3z"/><path d="M1.3,6.3h4.4c0.4,0,0.8-0.3,0.8-0.8c0-0.4-0.3-0.8-0.8-0.8H1.3c-0.4,0-0.8,0.3-0.8,0.8C0.5,5.9,0.8,6.3,1.3,6.3z"/><path d="M11.5,10.2c0-0.4-0.3-0.8-0.8-0.8H1.3c-0.4,0-0.8,0.3-0.8,0.8c0,0.4,0.3,0.8,0.8,0.8h9.5C11.2,11,11.5,10.7,11.5,10.2z"/><path d="M14.9,9.5c-0.4,0-0.8,0.3-0.8,0.8c0,0.4,0.3,0.8,0.8,0.8H18c0.4,0,0.8-0.3,0.8-0.8c0-0.4-0.3-0.8-0.8-0.8H14.9z"/><path d="M114.6,121.9h-13.7c-0.4,0-0.8,0.3-0.8,0.8c0,0.4,0.3,0.8,0.8,0.8h13.7c0.4,0,0.8-0.3,0.8-0.8   C115.3,122.2,115,121.9,114.6,121.9z"/><path d="M123.5,121.9h-4.4c-0.4,0-0.8,0.3-0.8,0.8c0,0.4,0.3,0.8,0.8,0.8h4.4c0.4,0,0.8-0.3,0.8-0.8   C124.2,122.2,123.9,121.9,123.5,121.9z"/><path d="M123.5,117.2H114c-0.4,0-0.8,0.3-0.8,0.8c0,0.4,0.3,0.8,0.8,0.8h9.5c0.4,0,0.8-0.3,0.8-0.8   C124.2,117.5,123.9,117.2,123.5,117.2z"/><path d="M106,117.9c0,0.4,0.3,0.8,0.8,0.8h3.1c0.4,0,0.8-0.3,0.8-0.8c0-0.4-0.3-0.8-0.8-0.8h-3.1C106.4,117.2,106,117.5,106,117.9z   "/><path d="M126.1,35.6l-1.2-1.2c-1.8-1.8-4.7-1.8-6.5,0l-4.4,4.4c0,0,0,0,0,0c0,0,0,0,0,0l-3.1,3.1c0,0,0,0,0,0c0,0,0,0,0,0l-14.9,15   V21c0-1.8-1.5-3.2-3.2-3.2H71.4l1.7-6.6c0.1-0.2,0-0.5-0.1-0.7c-0.1-0.2-0.4-0.3-0.6-0.3H64c0.2-0.6,0.4-1.2,0.4-1.8   c0-2.5-2-4.6-4.3-4.6c-2.4,0-4.3,2-4.3,4.6c0,0.6,0.1,1.3,0.4,1.8h-8.4c-0.2,0-0.5,0.1-0.6,0.3c-0.1,0.2-0.2,0.4-0.1,0.7l1.7,6.6   H28c-1.8,0-3.2,1.5-3.2,3.2v1.9c0,0,0,0.1,0,0.1h-6c-0.9,0-1.7,0.8-1.7,1.7v4.1H5.7c-1.7,0-3.1,1.4-3.1,3.1v24.7   c0,1.7,1.4,3.1,3.1,3.1h19.1v51.4c0,1.8,1.5,3.2,3.2,3.2h64.7c1.8,0,3.2-1.5,3.2-3.2V72.4l22.7-22.7c0,0,0,0,0,0c0,0,0,0,0,0   l3.1-3.1c0,0,0,0,0,0s0,0,0,0l4.4-4.4c0.9-0.9,1.4-2,1.4-3.3S127,36.5,126.1,35.6z M118.1,48.1l-5.6-5.6l2.1-2.1l5.6,5.6   L118.1,48.1z M57.2,8.4c0-1.7,1.3-3,2.8-3c1.6,0,2.8,1.4,2.8,3c0,0.7-0.2,1.3-0.6,1.8h-4.5C57.4,9.7,57.2,9,57.2,8.4z M48.7,11.7   h8.8h5.2h8.8l-1.6,6H50.3L48.7,11.7z M18.6,24.7c0-0.1,0.1-0.2,0.2-0.2h13.3c0.1,0,0.2,0.1,0.2,0.2v4.1H18.6V24.7z M4.1,56.6V31.9   c0-0.9,0.7-1.6,1.6-1.6h12.1H33h12.1c0.9,0,1.6,0.7,1.6,1.6v24.7c0,0.9-0.7,1.6-1.6,1.6H5.7C4.8,58.2,4.1,57.5,4.1,56.6z    M94.4,111.2c0,1-0.8,1.7-1.7,1.7H28c-1,0-1.7-0.8-1.7-1.7V59.7h18.9c1.7,0,3.1-1.4,3.1-3.1V31.9c0-1.7-1.4-3.1-3.1-3.1H33.8v-4.1   c0-0.9-0.8-1.7-1.7-1.7h-5.8c0,0,0-0.1,0-0.1V21c0-1,0.8-1.7,1.7-1.7h21.7h20.7h22.3c1,0,1.7,0.8,1.7,1.7v37.4l-16,16   c0,0-0.1,0.1-0.1,0.1c-0.1,0.1-0.3,0.2-0.3,0.4l-4.1,10.9c-0.1,0.3,0,0.6,0.2,0.8c0.1,0.1,0.3,0.2,0.5,0.2c0.1,0,0.2,0,0.3,0   l10.8-4.2c0.2-0.1,0.3-0.2,0.4-0.3c0,0,0.1-0.1,0.1-0.1l8.2-8.2V111.2z M94.4,66.2c-0.3-0.3-0.8-0.3-1.1,0L90.5,69   c-0.3,0.3-0.3,0.8,0,1.1c0.1,0.1,0.3,0.2,0.5,0.2c0.2,0,0.4-0.1,0.5-0.2l2.8-2.8v4.6l-8.7,8.8l-5.6-5.6l14.4-14.4V66.2z M79.2,76.2   l5.2,5.3l-8.5,3.3L79.2,76.2z M95.9,59l15.5-15.5l5.6,5.6L95.9,70.3V59z M125.1,41.1l-3.9,3.9l-5.6-5.6l3.9-3.9   c1.2-1.2,3.2-1.2,4.4,0l1.2,1.2c0.6,0.6,0.9,1.4,0.9,2.2C126,39.7,125.7,40.5,125.1,41.1z"/><path d="M100.5,59l-2.8,2.8c-0.3,0.3-0.3,0.8,0,1.1c0.1,0.1,0.3,0.2,0.5,0.2s0.4-0.1,0.5-0.2l2.8-2.8c0.3-0.3,0.3-0.8,0-1.1   C101.2,58.8,100.8,58.8,100.5,59z"/><path d="M108.6,51.9c-0.3-0.3-0.8-0.3-1.1,0l-2.8,2.8c-0.3,0.3-0.3,0.8,0,1.1c0.1,0.1,0.3,0.2,0.5,0.2c0.2,0,0.4-0.1,0.5-0.2   l2.8-2.8C108.9,52.7,108.9,52.2,108.6,51.9z"/><path d="M66.3,14H53.8c-0.4,0-0.8,0.3-0.8,0.8c0,0.4,0.3,0.8,0.8,0.8h12.5c0.4,0,0.8-0.3,0.8-0.8C67.1,14.3,66.7,14,66.3,14z"/><path d="M54.7,29.5h20.9c0.4,0,0.8-0.3,0.8-0.8c0-0.4-0.3-0.8-0.8-0.8H54.7c-0.4,0-0.8,0.3-0.8,0.8C54,29.1,54.3,29.5,54.7,29.5z"/><path d="M54.7,35.9h30.7c0.4,0,0.8-0.3,0.8-0.8c0-0.4-0.3-0.8-0.8-0.8H54.7c-0.4,0-0.8,0.3-0.8,0.8C54,35.6,54.3,35.9,54.7,35.9z"/><path d="M54.7,42.3h33.5c0.4,0,0.8-0.3,0.8-0.8c0-0.4-0.3-0.8-0.8-0.8H54.7c-0.4,0-0.8,0.3-0.8,0.8C54,42,54.3,42.3,54.7,42.3z"/><path d="M32.5,106c0,0.4,0.3,0.8,0.8,0.8h54.9c0.4,0,0.8-0.3,0.8-0.8c0-0.4-0.3-0.8-0.8-0.8H33.3C32.9,105.2,32.5,105.6,32.5,106z"/><path d="M33.3,101.3h52.2c0.4,0,0.8-0.3,0.8-0.8c0-0.4-0.3-0.8-0.8-0.8H33.3c-0.4,0-0.8,0.3-0.8,0.8   C32.5,101,32.9,101.3,33.3,101.3z"/><path d="M33.3,95.9h2.5c0.4,0,0.8-0.3,0.8-0.8c0-0.4-0.3-0.8-0.8-0.8h-2.5c-0.4,0-0.8,0.3-0.8,0.8C32.5,95.6,32.9,95.9,33.3,95.9z"/><path d="M40.3,94.4c-0.4,0-0.8,0.3-0.8,0.8c0,0.4,0.3,0.8,0.8,0.8h4.5c0.4,0,0.8-0.3,0.8-0.8c0-0.4-0.3-0.8-0.8-0.8H40.3z"/><path d="M58.4,94.4c-0.4,0-0.8,0.3-0.8,0.8c0,0.4,0.3,0.8,0.8,0.8h4.5c0.4,0,0.8-0.3,0.8-0.8c0-0.4-0.3-0.8-0.8-0.8H58.4z"/><path d="M49.4,94.4c-0.4,0-0.8,0.3-0.8,0.8c0,0.4,0.3,0.8,0.8,0.8h4.5c0.4,0,0.8-0.3,0.8-0.8c0-0.4-0.3-0.8-0.8-0.8H49.4z"/><path d="M66.7,95.2c0,0.4,0.3,0.8,0.8,0.8H72c0.4,0,0.8-0.3,0.8-0.8c0-0.4-0.3-0.8-0.8-0.8h-4.5C67,94.4,66.7,94.8,66.7,95.2z"/><path d="M76.5,95.9H79c0.4,0,0.8-0.3,0.8-0.8c0-0.4-0.3-0.8-0.8-0.8h-2.5c-0.4,0-0.8,0.3-0.8,0.8C75.7,95.6,76.1,95.9,76.5,95.9z"/><path d="M33.3,66.8h2.5c0.4,0,0.8-0.3,0.8-0.8c0-0.4-0.3-0.8-0.8-0.8h-2.5c-0.4,0-0.8,0.3-0.8,0.8C32.5,66.5,32.9,66.8,33.3,66.8z"/><path d="M50.4,66.8h4.9c0.4,0,0.8-0.3,0.8-0.8c0-0.4-0.3-0.8-0.8-0.8h-4.9c-0.4,0-0.8,0.3-0.8,0.8C49.7,66.5,50,66.8,50.4,66.8z"/><path d="M60.2,65.3c-0.4,0-0.8,0.3-0.8,0.8c0,0.4,0.3,0.8,0.8,0.8H65c0.4,0,0.8-0.3,0.8-0.8c0-0.4-0.3-0.8-0.8-0.8H60.2z"/><path d="M40.7,66.8h4.9c0.4,0,0.8-0.3,0.8-0.8c0-0.4-0.3-0.8-0.8-0.8h-4.9c-0.4,0-0.8,0.3-0.8,0.8C39.9,66.5,40.2,66.8,40.7,66.8z"/><path d="M73.2,66.1c0-0.4-0.3-0.8-0.8-0.8h-2.5c-0.4,0-0.8,0.3-0.8,0.8c0,0.4,0.3,0.8,0.8,0.8h2.5C72.8,66.8,73.2,66.5,73.2,66.1z"/><path d="M33.3,90.5h31.5c0.4,0,0.8-0.3,0.8-0.8c0-0.4-0.3-0.8-0.8-0.8H33.3c-0.4,0-0.8,0.3-0.8,0.8C32.5,90.2,32.9,90.5,33.3,90.5z   "/><path d="M54.7,48.8h7.9c0.4,0,0.8-0.3,0.8-0.8c0-0.4-0.3-0.8-0.8-0.8h-7.9c-0.4,0-0.8,0.3-0.8,0.8C54,48.5,54.3,48.8,54.7,48.8z"/><path d="M79,48c0-0.4-0.3-0.8-0.8-0.8H68.1c-0.4,0-0.8,0.3-0.8,0.8c0,0.4,0.3,0.8,0.8,0.8h10.2C78.7,48.8,79,48.5,79,48z"/><path d="M54.7,55.2h12c0.4,0,0.8-0.3,0.8-0.8c0-0.4-0.3-0.8-0.8-0.8h-12c-0.4,0-0.8,0.3-0.8,0.8C54,54.9,54.3,55.2,54.7,55.2z"/><path d="M84.8,53.7h-12c-0.4,0-0.8,0.3-0.8,0.8c0,0.4,0.3,0.8,0.8,0.8h12c0.4,0,0.8-0.3,0.8-0.8C85.5,54.1,85.2,53.7,84.8,53.7z"/><path d="M40.9,37.3H10.2c-0.4,0-0.8,0.3-0.8,0.8c0,0.4,0.3,0.8,0.8,0.8h30.7c0.4,0,0.8-0.3,0.8-0.8C41.7,37.6,41.4,37.3,40.9,37.3z   "/><path d="M40.9,43.5H10.2c-0.4,0-0.8,0.3-0.8,0.8c0,0.4,0.3,0.8,0.8,0.8h30.7c0.4,0,0.8-0.3,0.8-0.8C41.7,43.9,41.4,43.5,40.9,43.5z   "/><path d="M40.9,49.7H10.2c-0.4,0-0.8,0.3-0.8,0.8s0.3,0.8,0.8,0.8h30.7c0.4,0,0.8-0.3,0.8-0.8S41.4,49.7,40.9,49.7z"/></g></svg>