<svg xmlns="http://www.w3.org/2000/svg" xmlns:xlink="http://www.w3.org/1999/xlink" version="1.1" x="0px" y="0px" viewBox="0 0 128 160" enable-background="new 0 0 128 128" xml:space="preserve"><g fill="#06AAB3" stroke="#06AAB3" stroke-width="1px"><path d="M1.8,110.1c-0.3-0.3-0.8-0.3-1,0c-0.3,0.3-0.3,0.8,0,1l1.6,1.6c0.1,0.1,0.3,0.2,0.5,0.2c0.2,0,0.4-0.1,0.5-0.2   c0.3-0.3,0.3-0.8,0-1L1.8,110.1z"/><path d="M7,115.3c-0.3-0.3-0.8-0.3-1,0c-0.3,0.3-0.3,0.8,0,1l1.6,1.6c0.1,0.1,0.3,0.2,0.5,0.2c0.2,0,0.4-0.1,0.5-0.2   c0.3-0.3,0.3-0.8,0-1L7,115.3z"/><path d="M2.3,115.3l-1.6,1.6c-0.3,0.3-0.3,0.8,0,1c0.1,0.1,0.3,0.2,0.5,0.2c0.2,0,0.4-0.1,0.5-0.2l1.6-1.6c0.3-0.3,0.3-0.8,0-1   S2.6,115,2.3,115.3z"/><path d="M7.5,110.1l-1.6,1.6c-0.3,0.3-0.3,0.8,0,1c0.1,0.1,0.3,0.2,0.5,0.2c0.2,0,0.4-0.1,0.5-0.2l1.6-1.6c0.3-0.3,0.3-0.8,0-1   S7.8,109.8,7.5,110.1z"/><path d="M119.5,64.7c0.1,0.1,0.3,0.2,0.5,0.2c0.2,0,0.4-0.1,0.5-0.2c0.3-0.3,0.3-0.8,0-1l-1.6-1.6c-0.3-0.3-0.8-0.3-1,0   c-0.3,0.3-0.3,0.8,0,1L119.5,64.7z"/><path d="M124.7,69.9c0.1,0.1,0.3,0.2,0.5,0.2c0.2,0,0.4-0.1,0.5-0.2c0.3-0.3,0.3-0.8,0-1l-1.6-1.6c-0.3-0.3-0.8-0.3-1,0   c-0.3,0.3-0.3,0.8,0,1L124.7,69.9z"/><path d="M118.4,70.1c0.2,0,0.4-0.1,0.5-0.2l1.6-1.6c0.3-0.3,0.3-0.8,0-1c-0.3-0.3-0.8-0.3-1,0l-1.6,1.6c-0.3,0.3-0.3,0.8,0,1   C118,70,118.2,70.1,118.4,70.1z"/><path d="M123.6,64.9c0.2,0,0.4-0.1,0.5-0.2l1.6-1.6c0.3-0.3,0.3-0.8,0-1c-0.3-0.3-0.8-0.3-1,0l-1.6,1.6c-0.3,0.3-0.3,0.8,0,1   C123.2,64.8,123.4,64.9,123.6,64.9z"/><path d="M6.4,45c0.4,0,0.7-0.3,0.7-0.7V32.4c0-0.4-0.3-0.7-0.7-0.7c-0.4,0-0.7,0.3-0.7,0.7v11.8C5.7,44.6,6,45,6.4,45z"/><path d="M6.4,54.7c0.4,0,0.7-0.3,0.7-0.7v-4.2c0-0.4-0.3-0.7-0.7-0.7c-0.4,0-0.7,0.3-0.7,0.7V54C5.7,54.4,6,54.7,6.4,54.7z"/><path d="M120,22.5c0.4,0,0.7-0.3,0.7-0.7V10c0-0.4-0.3-0.7-0.7-0.7c-0.4,0-0.7,0.3-0.7,0.7v11.8C119.2,22.2,119.6,22.5,120,22.5z"/><path d="M120,32.3c0.4,0,0.7-0.3,0.7-0.7v-4.2c0-0.4-0.3-0.7-0.7-0.7c-0.4,0-0.7,0.3-0.7,0.7v4.2C119.2,32,119.6,32.3,120,32.3z"/><path d="M56.8,18.8c1.9,0,3.5-1.6,3.5-3.5s-1.6-3.5-3.5-3.5s-3.5,1.6-3.5,3.5S54.9,18.8,56.8,18.8z M56.8,13.3c1.1,0,2,0.9,2,2   s-0.9,2-2,2s-2-0.9-2-2S55.7,13.3,56.8,13.3z"/><path d="M48.7,109.3c-1.9,0-3.5,1.6-3.5,3.5c0,1.9,1.6,3.5,3.5,3.5s3.5-1.6,3.5-3.5C52.2,110.9,50.6,109.3,48.7,109.3z M48.7,114.8   c-1.1,0-2-0.9-2-2s0.9-2,2-2s2,0.9,2,2S49.8,114.8,48.7,114.8z"/><path d="M8.1,79c0-1.9-1.6-3.5-3.5-3.5c-1.9,0-3.5,1.6-3.5,3.5c0,1.9,1.6,3.5,3.5,3.5C6.6,82.5,8.1,80.9,8.1,79z M4.6,81   c-1.1,0-2-0.9-2-2s0.9-2,2-2s2,0.9,2,2S5.8,81,4.6,81z"/><path d="M16.1,15.2c0,0.4,0.3,0.7,0.7,0.7h15.4c0.4,0,0.7-0.3,0.7-0.7c0-0.4-0.3-0.7-0.7-0.7H16.9C16.4,14.5,16.1,14.8,16.1,15.2z"/><path d="M6.8,15.9h5c0.4,0,0.7-0.3,0.7-0.7c0-0.4-0.3-0.7-0.7-0.7h-5c-0.4,0-0.7,0.3-0.7,0.7C6.1,15.6,6.4,15.9,6.8,15.9z"/><path d="M6.8,10.6h10.8c0.4,0,0.7-0.3,0.7-0.7c0-0.4-0.3-0.7-0.7-0.7H6.8c-0.4,0-0.7,0.3-0.7,0.7C6.1,10.3,6.4,10.6,6.8,10.6z"/><path d="M22.2,10.6h3.5c0.4,0,0.7-0.3,0.7-0.7c0-0.4-0.3-0.7-0.7-0.7h-3.5c-0.4,0-0.7,0.3-0.7,0.7C21.4,10.3,21.8,10.6,22.2,10.6z"/><path d="M117.4,112.8c0-0.4-0.3-0.7-0.7-0.7h-15.4c-0.4,0-0.7,0.3-0.7,0.7c0,0.4,0.3,0.7,0.7,0.7h15.4   C117.1,113.5,117.4,113.2,117.4,112.8z"/><path d="M121,112.8c0,0.4,0.3,0.7,0.7,0.7h5c0.4,0,0.7-0.3,0.7-0.7c0-0.4-0.3-0.7-0.7-0.7h-5C121.4,112.1,121,112.4,121,112.8z"/><path d="M126.8,117.4H116c-0.4,0-0.7,0.3-0.7,0.7c0,0.4,0.3,0.7,0.7,0.7h10.8c0.4,0,0.7-0.3,0.7-0.7   C127.5,117.7,127.2,117.4,126.8,117.4z"/><path d="M111.4,117.4h-3.5c-0.4,0-0.7,0.3-0.7,0.7c0,0.4,0.3,0.7,0.7,0.7h3.5c0.4,0,0.7-0.3,0.7-0.7   C112.1,117.7,111.8,117.4,111.4,117.4z"/><path d="M121.8,100.2l1.1-1.9c0.2-0.4,0.2-0.9,0-1.3c-0.2-0.4-0.7-0.7-1.1-0.7H7.3c-0.5,0-0.9,0.3-1.1,0.7c-0.2,0.4-0.2,0.9,0,1.3   l1.1,1.9c1.9,3.2,5.5,5.2,9.2,5.2h96C116.3,105.4,119.8,103.4,121.8,100.2z M8.6,99.4l-1-1.6h113.8l-1,1.6c-1.7,2.8-4.7,4.5-8,4.5   h-96C13.3,103.9,10.3,102.2,8.6,99.4z"/><path d="M86.1,30.9c0.8,0,1.5-0.2,2.3-0.5c2.7-1.3,3.9-4.5,2.7-7.2c-0.6-1.3-1.7-2.3-3.1-2.8c-1.4-0.5-2.8-0.4-4.2,0.2   c-1.3,0.6-2.3,1.7-2.8,3.1c-0.5,1.4-0.4,2.8,0.2,4.2C82,29.8,84,30.9,86.1,30.9z M82.3,24.1c0.4-1,1.1-1.8,2.1-2.2   c0.5-0.2,1.1-0.4,1.7-0.4c0.5,0,0.9,0.1,1.4,0.2c1,0.4,1.8,1.1,2.2,2.1c0.4,1,0.5,2,0.1,3c-0.4,1-1.1,1.8-2.1,2.2   c-1,0.4-2,0.5-3,0.1c-1-0.4-1.8-1.1-2.2-2.1C82,26.2,82,25.1,82.3,24.1z"/><path d="M72.3,29.4c0.2,0.1,0.4,0.1,0.6,0l0.9-0.3c0.6-0.2,1.2,0.1,1.4,0.6c0.2,0.6-0.1,1.2-0.6,1.4l-0.9,0.3   c-0.2,0.1-0.4,0.2-0.4,0.4c-0.1,0.2-0.1,0.4,0,0.6c0.7,1.3,1.7,2.5,2.7,3.5H21.5c-2.9,0-5.3,2.4-5.3,5.3v51.2   c0,0.4,0.3,0.7,0.7,0.7h95.3c0.4,0,0.7-0.3,0.7-0.7V41.3c0-2.9-2.4-5.3-5.3-5.3H96c0.9-0.9,1.7-1.9,2.4-3c0.1-0.2,0.1-0.4,0.1-0.6   c-0.1-0.2-0.2-0.4-0.4-0.5l-0.9-0.4c-0.5-0.2-0.8-0.9-0.6-1.4c0.2-0.5,0.9-0.8,1.4-0.6L99,30c0.2,0.1,0.4,0.1,0.6,0   c0.2-0.1,0.3-0.3,0.4-0.5c0.7-2.4,0.7-5,0.2-7.4c0-0.2-0.2-0.4-0.4-0.5c-0.2-0.1-0.4-0.1-0.6,0l-0.9,0.3c-0.3,0.1-0.6,0.1-0.8,0   c-0.3-0.1-0.5-0.3-0.6-0.6c-0.1-0.3-0.1-0.6,0-0.8c0.1-0.3,0.3-0.5,0.6-0.6l0.9-0.3c0.2-0.1,0.4-0.2,0.4-0.4c0.1-0.2,0.1-0.4,0-0.6   c-1.2-2.2-3-4.1-5.1-5.4C93.4,13,93.2,13,93,13c-0.2,0.1-0.4,0.2-0.5,0.4l-0.4,0.9c-0.2,0.5-0.9,0.8-1.4,0.6   c-0.5-0.2-0.8-0.9-0.6-1.4l0.4-0.9c0.1-0.2,0.1-0.4,0-0.6c-0.1-0.2-0.3-0.3-0.5-0.4c-2.4-0.7-5-0.8-7.4-0.2c-0.2,0-0.4,0.2-0.5,0.4   c-0.1,0.2-0.1,0.4,0,0.6l0.3,0.9c0.1,0.3,0.1,0.6,0,0.8c-0.1,0.3-0.3,0.5-0.6,0.6c-0.6,0.2-1.2-0.1-1.4-0.6l-0.3-0.9   c-0.1-0.2-0.2-0.4-0.4-0.4c-0.2-0.1-0.4-0.1-0.6,0c-2.2,1.2-4.1,3-5.4,5.1c-0.1,0.2-0.1,0.4-0.1,0.6c0.1,0.2,0.2,0.4,0.4,0.5   l0.9,0.4c0.5,0.2,0.8,0.9,0.6,1.4c-0.2,0.5-0.9,0.8-1.4,0.6L73.1,21c-0.2-0.1-0.4-0.1-0.6,0c-0.2,0.1-0.3,0.3-0.4,0.5   c-0.7,2.4-0.8,5-0.2,7.4C72,29.1,72.1,29.3,72.3,29.4z M94.4,37.5h13.2c2.1,0,3.8,1.7,3.8,3.8v50.5H17.6V41.3   c0-2.1,1.7-3.8,3.8-3.8h56.1c0.1,0,0.2,0,0.2,0c0.2,0.1,0.4,0.3,0.6,0.5c0.2,0.1,0.4,0.1,0.6,0.1c0.2-0.1,0.4-0.2,0.5-0.4l0.4-0.9   c0.2-0.5,0.9-0.8,1.4-0.6c0.5,0.2,0.8,0.9,0.6,1.4l-0.4,0.9c-0.1,0.2-0.1,0.4,0,0.6c0.1,0.2,0.3,0.3,0.5,0.4c1.3,0.4,2.7,0.6,4,0.6   c1.2,0,2.3-0.1,3.4-0.4c0.2,0,0.4-0.2,0.5-0.4c0.1-0.2,0.1-0.4,0-0.6l-0.3-0.9c-0.2-0.6,0.1-1.2,0.6-1.4c0.3-0.1,0.6-0.1,0.8,0   c0.3,0.1,0.5,0.3,0.6,0.6l0.3,0.9c0.1,0.2,0.2,0.4,0.4,0.4c0.2,0.1,0.4,0.1,0.6,0c0.4-0.2,0.8-0.5,1.2-0.8   C94.3,37.4,94.4,37.5,94.4,37.5z M73.3,22.7L73.3,22.7c1.4,0.6,2.9,0,3.5-1.3c0.6-1.3,0-2.8-1.3-3.4l-0.1,0c1-1.4,2.2-2.6,3.6-3.5   l0,0.1c0.5,1.3,2,2,3.3,1.5c0.6-0.2,1.1-0.7,1.4-1.4c0.3-0.6,0.3-1.3,0-2l0-0.1c1.7-0.3,3.4-0.3,5,0.1l0,0.1   c-0.6,1.3,0,2.8,1.3,3.4c1.3,0.6,2.8,0,3.4-1.3l0-0.1c1.4,1,2.6,2.2,3.5,3.6l-0.1,0c-0.6,0.2-1.1,0.7-1.4,1.4c-0.3,0.6-0.3,1.3,0,2   c0.2,0.6,0.7,1.1,1.4,1.4c0.6,0.3,1.3,0.3,2,0l0.1,0c0.3,1.7,0.3,3.4-0.1,5l-0.1,0c-1.3-0.6-2.8,0-3.4,1.3c-0.6,1.3,0,2.8,1.3,3.4   l0.1,0c-1,1.4-2.2,2.6-3.6,3.5l0-0.1c-0.2-0.6-0.7-1.1-1.4-1.4c-0.6-0.3-1.3-0.3-2,0c-1.3,0.5-2,2-1.5,3.3l0,0.1   c-1.7,0.3-3.4,0.3-5-0.1l0-0.1c0.6-1.3,0-2.8-1.3-3.4c-1.3-0.6-2.8,0-3.4,1.3l0,0.1c-1.4-1-2.6-2.2-3.5-3.6l0.1,0   c1.3-0.5,2-2,1.5-3.3c-0.2-0.6-0.7-1.1-1.4-1.4c-0.6-0.3-1.3-0.3-2,0l-0.1,0C72.9,26.1,73,24.4,73.3,22.7z"/><path d="M77.3,68.3c-0.3-0.2-0.8-0.1-1,0.2c-0.2,0.3-0.1,0.8,0.2,1l11,6.8l-11,6.8c-0.3,0.2-0.5,0.7-0.2,1c0.1,0.2,0.4,0.3,0.6,0.3   c0.1,0,0.3,0,0.4-0.1l12-7.5c0.2-0.1,0.3-0.4,0.3-0.6s-0.1-0.5-0.3-0.6L77.3,68.3z"/><path d="M52.8,68.6c-0.2-0.3-0.7-0.5-1-0.2l-12,7.5c-0.2,0.1-0.3,0.4-0.3,0.6s0.1,0.5,0.3,0.6l12,7.5c0.1,0.1,0.3,0.1,0.4,0.1   c0.2,0,0.5-0.1,0.6-0.3c0.2-0.3,0.1-0.8-0.2-1l-11-6.8l11-6.8C52.9,69.4,53,68.9,52.8,68.6z"/><path d="M69.1,64.3c-0.4-0.1-0.8,0-0.9,0.4l-8.5,22.5c-0.1,0.4,0,0.8,0.4,0.9c0.1,0,0.2,0,0.3,0c0.3,0,0.6-0.2,0.7-0.5l8.5-22.5   C69.7,64.8,69.5,64.4,69.1,64.3z"/><path d="M23.4,43.3c0,0.4,0.3,0.7,0.7,0.7h81.5c0.4,0,0.7-0.3,0.7-0.7c0-0.4-0.3-0.7-0.7-0.7H24.2C23.8,42.5,23.4,42.9,23.4,43.3z"/><path d="M30,49.8h-5.9c-0.4,0-0.7,0.3-0.7,0.7c0,0.4,0.3,0.7,0.7,0.7H30c0.4,0,0.7-0.3,0.7-0.7C30.8,50.1,30.4,49.8,30,49.8z"/><path d="M34.9,51.3h5.9c0.4,0,0.7-0.3,0.7-0.7c0-0.4-0.3-0.7-0.7-0.7h-5.9c-0.4,0-0.7,0.3-0.7,0.7C34.2,51,34.5,51.3,34.9,51.3z"/><path d="M99.7,51.3h5.9c0.4,0,0.7-0.3,0.7-0.7c0-0.4-0.3-0.7-0.7-0.7h-5.9c-0.4,0-0.7,0.3-0.7,0.7C98.9,51,99.3,51.3,99.7,51.3z"/><path d="M52.4,50.5c0-0.4-0.3-0.7-0.7-0.7h-5.9c-0.4,0-0.7,0.3-0.7,0.7c0,0.4,0.3,0.7,0.7,0.7h5.9C52,51.3,52.4,51,52.4,50.5z"/><path d="M94.8,49.8h-5.9c-0.4,0-0.7,0.3-0.7,0.7c0,0.4,0.3,0.7,0.7,0.7h5.9c0.4,0,0.7-0.3,0.7-0.7C95.5,50.1,95.2,49.8,94.8,49.8z"/><path d="M67.3,51.3h5.9c0.4,0,0.7-0.3,0.7-0.7c0-0.4-0.3-0.7-0.7-0.7h-5.9c-0.4,0-0.7,0.3-0.7,0.7C66.6,51,66.9,51.3,67.3,51.3z"/><path d="M84.7,50.5c0-0.4-0.3-0.7-0.7-0.7h-5.9c-0.4,0-0.7,0.3-0.7,0.7c0,0.4,0.3,0.7,0.7,0.7H84C84.4,51.3,84.7,51,84.7,50.5z"/><path d="M62.4,51.3c0.4,0,0.7-0.3,0.7-0.7c0-0.4-0.3-0.7-0.7-0.7h-5.9c-0.4,0-0.7,0.3-0.7,0.7c0,0.4,0.3,0.7,0.7,0.7H62.4z"/><path d="M75.3,57.1h-2.9c0,0-0.1,0-0.1,0c0,0-0.1,0-0.1,0h-4.9c-0.4,0-0.7,0.3-0.7,0.7c0,0.4,0.3,0.7,0.7,0.7h4.9c0,0,0.1,0,0.1,0   c0,0,0.1,0,0.1,0h2.9c0.4,0,0.7-0.3,0.7-0.7C76.1,57.4,75.8,57.1,75.3,57.1z"/><path d="M105.6,57.1h-1c0,0-0.1,0-0.1,0c0,0-0.1,0-0.1,0h-4.9c-0.4,0-0.7,0.3-0.7,0.7c0,0.4,0.3,0.7,0.7,0.7h4.9c0,0,0.1,0,0.1,0   c0,0,0.1,0,0.1,0h1c0.4,0,0.7-0.3,0.7-0.7C106.4,57.4,106,57.1,105.6,57.1z"/><path d="M96.5,57.1h-0.2c-0.4,0-0.7,0.3-0.7,0.7c0,0.4,0.3,0.7,0.7,0.7h0.2c0.4,0,0.7-0.3,0.7-0.7C97.3,57.4,96.9,57.1,96.5,57.1z"/><path d="M80.3,57.1c-0.4,0-0.7,0.3-0.7,0.7c0,0.4,0.3,0.7,0.7,0.7h0.2c0.4,0,0.7-0.3,0.7-0.7c0-0.4-0.3-0.7-0.7-0.7H80.3z"/><path d="M91.4,57.1h-2.9c0,0-0.1,0-0.1,0c0,0-0.1,0-0.1,0h-4.9c-0.4,0-0.7,0.3-0.7,0.7c0,0.4,0.3,0.7,0.7,0.7h4.9c0,0,0.1,0,0.1,0   c0,0,0.1,0,0.1,0h2.9c0.4,0,0.7-0.3,0.7-0.7C92.2,57.4,91.8,57.1,91.4,57.1z"/><path d="M48.1,57.1c-0.4,0-0.7,0.3-0.7,0.7c0,0.4,0.3,0.7,0.7,0.7h0.2c0.4,0,0.7-0.3,0.7-0.7c0-0.4-0.3-0.7-0.7-0.7H48.1z"/><path d="M60,57.8c0-0.4-0.3-0.7-0.7-0.7h-2.9c0,0-0.1,0-0.1,0c0,0-0.1,0-0.1,0h-4.9c-0.4,0-0.7,0.3-0.7,0.7c0,0.4,0.3,0.7,0.7,0.7   h4.9c0,0,0.1,0,0.1,0c0,0,0.1,0,0.1,0h2.9C59.7,58.5,60,58.2,60,57.8z"/><path d="M40.1,58.5C40.2,58.5,40.2,58.5,40.1,58.5l3,0c0.4,0,0.7-0.3,0.7-0.7c0-0.4-0.3-0.7-0.7-0.7h-2.9c0,0-0.1,0-0.1,0   c0,0-0.1,0-0.1,0h-4.9c-0.4,0-0.7,0.3-0.7,0.7c0,0.4,0.3,0.7,0.7,0.7L40.1,58.5C40.1,58.5,40.1,58.5,40.1,58.5z"/><path d="M27.1,57.1h-2.9c-0.4,0-0.7,0.3-0.7,0.7c0,0.4,0.3,0.7,0.7,0.7h2.9c0.4,0,0.7-0.3,0.7-0.7C27.8,57.4,27.5,57.1,27.1,57.1z"/><path d="M32.2,57.1H32c-0.4,0-0.7,0.3-0.7,0.7c0,0.4,0.3,0.7,0.7,0.7h0.2c0.4,0,0.7-0.3,0.7-0.7C32.9,57.4,32.6,57.1,32.2,57.1z"/><path d="M64.4,58.5c0.4,0,0.7-0.3,0.7-0.7c0-0.4-0.3-0.7-0.7-0.7h-0.2c-0.4,0-0.7,0.3-0.7,0.7c0,0.4,0.3,0.7,0.7,0.7H64.4z"/></g></svg>