<svg xmlns="http://www.w3.org/2000/svg" xmlns:xlink="http://www.w3.org/1999/xlink" version="1.1" x="0px" y="0px" viewBox="0 0 128 160" enable-background="new 0 0 128 128" xml:space="preserve"><g fill="#73abff" stroke="#73abff" stroke-width="1px"><path d="M101.5,77.2C101.5,77.1,101.5,77.1,101.5,77.2l-2.4-7.3c-0.1-0.4-0.5-0.6-0.9-0.5c-0.4,0.1-0.6,0.5-0.5,0.9l1.5,4.5   c-2.9-2.4-6.4-4.4-10.3-5.9V16.2c0-2-1.7-3.7-3.7-3.7H36.9c-2,0-3.7,1.7-3.7,3.7v53.4c-6.8,2.7-12.5,6.6-16.3,11.3l0.6-4.7   c0.1-0.4-0.2-0.8-0.6-0.8c-0.4-0.1-0.8,0.2-0.8,0.6l-1,7.6c0,0,0,0,0,0.1c0,0.1,0,0.2,0,0.3c0,0,0,0.1,0,0.1c0,0.1,0.1,0.1,0.1,0.2   c0,0,0,0,0,0.1c0,0,0,0,0,0c0,0,0,0,0,0c0,0,0.1,0,0.1,0c0,0,0,0,0.1,0c0.1,0,0.2,0,0.2,0h0h0c0.1,0,0.1,0,0.2,0l7.3-2.2   c0.4-0.1,0.6-0.5,0.5-0.9c-0.1-0.4-0.5-0.6-0.9-0.5l-5.2,1.5c3.6-4.6,9.1-8.5,15.6-11.1v28.6c0,2,1.7,3.7,3.7,3.7h9.8   c0.4,2.3,1.7,4.3,3.6,5.6c1.4,1,2.2,2.6,2.2,4.3v1.7c-0.1,0.1-0.3,0.2-0.4,0.3c-0.6,0.6-0.8,1.4-0.8,2.3c0.1,2.3,0.2,4.5,0.3,6.8   c0,0.4,0.3,0.7,0.7,0.7c0,0,0,0,0,0c0.4,0,0.7-0.3,0.7-0.7c0-2.2-0.1-4.5-0.3-6.8c0-0.5,0.1-0.9,0.4-1.2c0.1-0.2,0.4-0.3,0.8-0.3   h18.1c0.4,0,0.6,0.2,0.8,0.3c0.3,0.3,0.4,0.7,0.4,1.2c-0.1,0.9-0.1,1.6-0.1,2.1c-0.1,1.5-0.2,2.3-0.2,4.7c0,0.4,0.3,0.7,0.7,0.7   c0,0,0,0,0,0c0.4,0,0.7-0.3,0.7-0.7c0-2.4,0-3.1,0.2-4.6c0-0.6,0.1-1.2,0.1-2.2c0.1-0.9-0.2-1.7-0.7-2.3c0,0,0-0.1,0-0.1   c0,0,0.1-2.2,0.8-3.4c0.2-0.3,0.3-0.5,0.5-0.8c0.8-1.3,1.7-2.8,2.3-5.7c0.1-0.5,0.2-1.2,0.3-1.8h7.4c2,0,3.7-1.7,3.7-3.7V70.5   c3.8,1.5,7.1,3.5,9.8,5.9l-5.4-0.6c-0.4,0-0.8,0.2-0.8,0.7c0,0.4,0.3,0.8,0.7,0.8l7.6,0.8c0,0,0.1,0,0.1,0c0.1,0,0.2,0,0.3-0.1   c0,0,0.1,0,0.1-0.1c0,0,0.1,0,0.1-0.1c0,0,0,0,0,0c0,0,0,0,0,0c0,0,0,0,0-0.1c0-0.1,0.1-0.1,0.1-0.2c0,0,0-0.1,0-0.1   C101.5,77.3,101.5,77.2,101.5,77.2z M36.9,13.9h48.3c1.2,0,2.2,1,2.2,2.2v7.6H34.7v-7.6C34.7,14.9,35.7,13.9,36.9,13.9z M34.7,99.7   v-7.6H47c-0.3,0.5-0.5,1.1-0.5,1.8v0.2v7.8v0.1h-9.7C35.7,102,34.7,101,34.7,99.7z M76.2,104.9c-0.6,2.7-1.4,4-2.2,5.3   c-0.2,0.3-0.3,0.6-0.5,0.9c-0.6,1.1-0.8,2.6-0.9,3.4c-0.2,0-0.3-0.1-0.5-0.1H54c0,0,0,0,0,0v-1.2c0-2.2-1.1-4.2-2.8-5.5   c-1.9-1.4-3.1-3.6-3.1-6v-7.8v-0.2c0-1.2,1-2.2,2.2-2.2s2.2,1,2.2,2.2v4.6c0,0.4,0.3,0.7,0.7,0.7c0.4,0,0.7-0.3,0.7-0.7v-4.6   c0-0.2,0-0.3,0-0.4c0-0.1,0-0.1,0-0.2v-22c0-1.2,1-2.2,2.2-2.2c1.2,0,2.2,1,2.2,2.2v12.5v6.7v2.8c0,0.4,0.3,0.7,0.7,0.7   c0.4,0,0.7-0.3,0.7-0.7v-2.8v-6.7c0-1.2,1-2.2,2.2-2.2c1.2,0,2.2,1,2.2,2.2V85v5.4v2.5c0,0.4,0.3,0.7,0.7,0.7   c0.4,0,0.7-0.3,0.7-0.7v-2.5V85c0-1.2,1-2.2,2.2-2.2c1.2,0,2.2,1,2.2,2.2v2.7v5.2v1.9c0,0.4,0.3,0.7,0.7,0.7c0.4,0,0.7-0.3,0.7-0.7   v-1.9v-5.2c0-1.2,1-2.2,2.2-2.2c1.2,0,2.2,1,2.2,2.2v7.1c0,0,0,0.1,0,0.1C76.4,95.9,76.8,102.2,76.2,104.9z M85.2,102H78   c0.1-3.2-0.1-6.9-0.2-7.3v-2.5h9.7v7.6C87.5,101,86.5,102,85.2,102z M87.5,90.7h-9.7v-3c0-2-1.7-3.7-3.7-3.7   c-0.9,0-1.6,0.3-2.3,0.8c-0.1-1.9-1.7-3.5-3.7-3.5c-1,0-1.9,0.4-2.5,1C65.1,81,63.7,80,62.2,80c-0.8,0-1.6,0.3-2.2,0.8v-9.5   c0-2-1.7-3.7-3.7-3.7c-2,0-3.7,1.7-3.7,3.7V91c-0.6-0.5-1.4-0.8-2.2-0.8c-0.7,0-1.3,0.2-1.9,0.5c-0.1,0-0.1,0-0.2,0H34.7V70.6   c2.8-1,5.8-1.9,8.9-2.4c0.4-0.1,0.7-0.5,0.6-0.9c-0.1-0.4-0.5-0.7-0.9-0.6c-3,0.6-5.9,1.3-8.7,2.3V25.2h52.8v43.2   c-5.1-1.7-10.8-2.7-16.8-2.7c-0.4,0-0.7,0.3-0.7,0.7s0.3,0.7,0.7,0.7c6,0,11.8,1,16.8,2.8V90.7z"/><path d="M72.6,9.4c2,0,3.7-1.7,3.7-3.7s-1.7-3.7-3.7-3.7c-2,0-3.7,1.7-3.7,3.7S70.5,9.4,72.6,9.4z M72.6,3.5c1.2,0,2.2,1,2.2,2.2   c0,1.2-1,2.2-2.2,2.2s-2.2-1-2.2-2.2C70.3,4.5,71.3,3.5,72.6,3.5z"/><path d="M14.9,113c-2,0-3.7,1.7-3.7,3.7c0,2,1.7,3.7,3.7,3.7c2,0,3.7-1.7,3.7-3.7C18.6,114.7,16.9,113,14.9,113z M14.9,118.9   c-1.2,0-2.2-1-2.2-2.2c0-1.2,1-2.2,2.2-2.2s2.2,1,2.2,2.2C17.1,117.9,16.1,118.9,14.9,118.9z"/><path d="M20.2,31c0-0.4-0.3-0.7-0.7-0.7c-0.4,0-0.7,0.3-0.7,0.7v12.3c0,0.4,0.3,0.7,0.7,0.7c0.4,0,0.7-0.3,0.7-0.7V31z"/><path d="M19.4,46.7c-0.4,0-0.7,0.3-0.7,0.7v4c0,0.4,0.3,0.7,0.7,0.7c0.4,0,0.7-0.3,0.7-0.7v-4C20.2,47,19.8,46.7,19.4,46.7z"/><path d="M115.1,80.3c0-0.4-0.3-0.7-0.7-0.7c-0.4,0-0.7,0.3-0.7,0.7v12.3c0,0.4,0.3,0.7,0.7,0.7c0.4,0,0.7-0.3,0.7-0.7V80.3z"/><path d="M114.4,95.9c-0.4,0-0.7,0.3-0.7,0.7v4c0,0.4,0.3,0.7,0.7,0.7c0.4,0,0.7-0.3,0.7-0.7v-4C115.1,96.2,114.8,95.9,114.4,95.9z"/><path d="M119.2,7.1c0.1,0.1,0.3,0.2,0.5,0.2c0.2,0,0.4-0.1,0.5-0.2c0.3-0.3,0.3-0.8,0-1l-1.7-1.7c-0.3-0.3-0.8-0.3-1,0   c-0.3,0.3-0.3,0.8,0,1L119.2,7.1z"/><path d="M124.6,12.5c0.1,0.1,0.3,0.2,0.5,0.2c0.2,0,0.4-0.1,0.5-0.2c0.3-0.3,0.3-0.8,0-1L124,9.8c-0.3-0.3-0.8-0.3-1,0   c-0.3,0.3-0.3,0.8,0,1L124.6,12.5z"/><path d="M118.1,12.7c0.2,0,0.4-0.1,0.5-0.2l1.7-1.7c0.3-0.3,0.3-0.8,0-1s-0.8-0.3-1,0l-1.7,1.7c-0.3,0.3-0.3,0.8,0,1   C117.7,12.7,117.9,12.7,118.1,12.7z"/><path d="M123.5,7.3c0.2,0,0.4-0.1,0.5-0.2l1.7-1.7c0.3-0.3,0.3-0.8,0-1c-0.3-0.3-0.8-0.3-1,0L123,6.1c-0.3,0.3-0.3,0.8,0,1   C123.1,7.3,123.3,7.3,123.5,7.3z"/><path d="M1.8,61.7c-0.3-0.3-0.8-0.3-1,0c-0.3,0.3-0.3,0.8,0,1l1.7,1.7c0.1,0.1,0.3,0.2,0.5,0.2c0.2,0,0.4-0.1,0.5-0.2   c0.3-0.3,0.3-0.8,0-1L1.8,61.7z"/><path d="M7.2,67.1c-0.3-0.3-0.8-0.3-1,0c-0.3,0.3-0.3,0.8,0,1l1.7,1.7C7.9,69.9,8.1,70,8.3,70c0.2,0,0.4-0.1,0.5-0.2   c0.3-0.3,0.3-0.8,0-1L7.2,67.1z"/><path d="M2.4,67.1l-1.7,1.7c-0.3,0.3-0.3,0.8,0,1C0.9,69.9,1,70,1.2,70c0.2,0,0.4-0.1,0.5-0.2l1.7-1.7c0.3-0.3,0.3-0.8,0-1   C3.1,66.8,2.7,66.8,2.4,67.1z"/><path d="M7.8,61.7l-1.7,1.7c-0.3,0.3-0.3,0.8,0,1c0.1,0.1,0.3,0.2,0.5,0.2c0.2,0,0.4-0.1,0.5-0.2l1.7-1.7c0.3-0.3,0.3-0.8,0-1   C8.5,61.4,8.1,61.4,7.8,61.7z"/><path d="M90.2,109.7c-0.3-0.3-0.8-0.3-1,0s-0.3,0.8,0,1l1.7,1.7c0.1,0.1,0.3,0.2,0.5,0.2s0.4-0.1,0.5-0.2c0.3-0.3,0.3-0.8,0-1   L90.2,109.7z"/><path d="M95.6,115.1c-0.3-0.3-0.8-0.3-1,0c-0.3,0.3-0.3,0.8,0,1l1.7,1.7c0.1,0.1,0.3,0.2,0.5,0.2c0.2,0,0.4-0.1,0.5-0.2   c0.3-0.3,0.3-0.8,0-1L95.6,115.1z"/><path d="M90.8,115.1l-1.7,1.7c-0.3,0.3-0.3,0.8,0,1c0.1,0.1,0.3,0.2,0.5,0.2c0.2,0,0.4-0.1,0.5-0.2l1.7-1.7c0.3-0.3,0.3-0.8,0-1   C91.6,114.8,91.1,114.8,90.8,115.1z"/><path d="M96.3,109.7l-1.7,1.7c-0.3,0.3-0.3,0.8,0,1c0.1,0.1,0.3,0.2,0.5,0.2c0.2,0,0.4-0.1,0.5-0.2l1.7-1.7c0.3-0.3,0.3-0.8,0-1   S96.5,109.4,96.3,109.7z"/><path d="M11.9,9.2h14.6c0.4,0,0.7-0.3,0.7-0.7c0-0.4-0.3-0.7-0.7-0.7H11.9c-0.4,0-0.7,0.3-0.7,0.7C11.2,8.9,11.5,9.2,11.9,9.2z"/><path d="M2.4,9.2h4.7c0.4,0,0.7-0.3,0.7-0.7c0-0.4-0.3-0.7-0.7-0.7H2.4C2,7.7,1.7,8.1,1.7,8.5C1.7,8.9,2,9.2,2.4,9.2z"/><path d="M2.4,14.2h10.2c0.4,0,0.7-0.3,0.7-0.7c0-0.4-0.3-0.7-0.7-0.7H2.4c-0.4,0-0.7,0.3-0.7,0.7C1.7,13.9,2,14.2,2.4,14.2z"/><path d="M21,13.5c0-0.4-0.3-0.7-0.7-0.7H17c-0.4,0-0.7,0.3-0.7,0.7c0,0.4,0.3,0.7,0.7,0.7h3.3C20.7,14.2,21,13.9,21,13.5z"/><path d="M117.2,124.5h-14.6c-0.4,0-0.7,0.3-0.7,0.7c0,0.4,0.3,0.7,0.7,0.7h14.6c0.4,0,0.7-0.3,0.7-0.7   C118,124.8,117.6,124.5,117.2,124.5z"/><path d="M126.8,124.5H122c-0.4,0-0.7,0.3-0.7,0.7c0,0.4,0.3,0.7,0.7,0.7h4.7c0.4,0,0.7-0.3,0.7-0.7   C127.5,124.8,127.2,124.5,126.8,124.5z"/><path d="M115.8,120.2c0,0.4,0.3,0.7,0.7,0.7h10.2c0.4,0,0.7-0.3,0.7-0.7c0-0.4-0.3-0.7-0.7-0.7h-10.2   C116.2,119.4,115.8,119.8,115.8,120.2z"/><path d="M108.9,119.4c-0.4,0-0.7,0.3-0.7,0.7c0,0.4,0.3,0.7,0.7,0.7h3.3c0.4,0,0.7-0.3,0.7-0.7c0-0.4-0.3-0.7-0.7-0.7H108.9z"/><path d="M72.6,19.4h11.2c0.4,0,0.7-0.3,0.7-0.7c0-0.4-0.3-0.7-0.7-0.7H72.6c-0.4,0-0.7,0.3-0.7,0.7C71.8,19.1,72.1,19.4,72.6,19.4z   "/><path d="M38.6,40.4h11.6c0.4,0,0.7-0.3,0.7-0.7V29.1c0-0.4-0.3-0.7-0.7-0.7H38.6c-0.4,0-0.7,0.3-0.7,0.7v10.6   C37.8,40.1,38.2,40.4,38.6,40.4z M39.3,29.9h10.1v9.1H39.3V29.9z"/><path d="M55.3,40.4h11.6c0.4,0,0.7-0.3,0.7-0.7V29.1c0-0.4-0.3-0.7-0.7-0.7H55.3c-0.4,0-0.7,0.3-0.7,0.7v10.6   C54.6,40.1,54.9,40.4,55.3,40.4z M56,29.9h10.1v9.1H56V29.9z"/><path d="M72,40.4h11.6c0.4,0,0.7-0.3,0.7-0.7V29.1c0-0.4-0.3-0.7-0.7-0.7H72c-0.4,0-0.7,0.3-0.7,0.7v10.6   C71.3,40.1,71.6,40.4,72,40.4z M72.7,29.9h10.1v9.1H72.7V29.9z"/><path d="M50.9,55.4V44.8c0-0.4-0.3-0.7-0.7-0.7H38.6c-0.4,0-0.7,0.3-0.7,0.7v10.6c0,0.4,0.3,0.7,0.7,0.7h11.6   C50.6,56.1,50.9,55.8,50.9,55.4z M49.4,54.6H39.3v-9.1h10.1V54.6z"/><path d="M67.6,55.4V44.8c0-0.4-0.3-0.7-0.7-0.7H55.3c-0.4,0-0.7,0.3-0.7,0.7v10.6c0,0.4,0.3,0.7,0.7,0.7h11.6   C67.3,56.1,67.6,55.8,67.6,55.4z M66.1,54.6H56v-9.1h10.1V54.6z"/><path d="M48.2,71.2h-3.3c-0.4,0-0.7,0.3-0.7,0.7c0,0.4,0.3,0.7,0.7,0.7h3.3c0.4,0,0.7-0.3,0.7-0.7C48.9,71.5,48.6,71.2,48.2,71.2z"/><path d="M48.7,63.4c-0.3-0.3-0.8-0.3-1,0c-0.3,0.3-0.3,0.8,0,1l2.3,2.3c0.1,0.1,0.3,0.2,0.5,0.2c0.2,0,0.4-0.1,0.5-0.2   c0.3-0.3,0.3-0.8,0-1L48.7,63.4z"/><path d="M56.2,59.9c-0.4,0-0.7,0.3-0.7,0.7v3.3c0,0.4,0.3,0.7,0.7,0.7c0.4,0,0.7-0.3,0.7-0.7v-3.3C57,60.2,56.6,59.9,56.2,59.9z"/><path d="M64.8,63.4c-0.3-0.3-0.8-0.3-1,0l-2.3,2.3c-0.3,0.3-0.3,0.8,0,1c0.1,0.1,0.3,0.2,0.5,0.2s0.4-0.1,0.5-0.2l2.3-2.3   C65.1,64.2,65.1,63.7,64.8,63.4z"/><path d="M67.6,71.2h-3.3c-0.4,0-0.7,0.3-0.7,0.7c0,0.4,0.3,0.7,0.7,0.7h3.3c0.4,0,0.7-0.3,0.7-0.7C68.3,71.5,68,71.2,67.6,71.2z"/><path d="M101.4,56.2l9.2,6.1c0.1,0.1,0.3,0.1,0.4,0.1s0.3,0,0.4-0.1l9.2-6.1c0.3-0.2,0.4-0.7,0.2-1c-0.2-0.3-0.7-0.4-1-0.2   l-8.8,5.8l-8.8-5.8c-0.3-0.2-0.8-0.1-1,0.2C100.9,55.5,101,56,101.4,56.2z"/><path d="M101.4,49.8l9.2,6.1c0.1,0.1,0.3,0.1,0.4,0.1s0.3,0,0.4-0.1l9.2-6.1c0.3-0.2,0.4-0.7,0.2-1c-0.2-0.3-0.7-0.4-1-0.2   l-8.8,5.8l-8.8-5.8c-0.3-0.2-0.8-0.1-1,0.2C100.9,49.1,101,49.6,101.4,49.8z"/><path d="M101.4,43.4l9.2,6.1c0.1,0.1,0.3,0.1,0.4,0.1s0.3,0,0.4-0.1l9.2-6.1c0.3-0.2,0.4-0.7,0.2-1c-0.2-0.3-0.7-0.4-1-0.2L111,48   l-8.8-5.8c-0.3-0.2-0.8-0.1-1,0.2C100.9,42.8,101,43.2,101.4,43.4z"/><path d="M101.4,37.1l9.2,6.1c0.1,0.1,0.3,0.1,0.4,0.1s0.3,0,0.4-0.1l9.2-6.1c0.3-0.2,0.4-0.7,0.2-1c-0.2-0.3-0.7-0.4-1-0.2   l-8.8,5.8l-8.8-5.8c-0.3-0.2-0.8-0.1-1,0.2C100.9,36.4,101,36.8,101.4,37.1z"/><path d="M101.4,30.7l9.2,6.1c0.1,0.1,0.3,0.1,0.4,0.1s0.3,0,0.4-0.1l9.2-6.1c0.3-0.2,0.4-0.7,0.2-1c-0.2-0.3-0.7-0.4-1-0.2   l-8.8,5.8l-8.8-5.8c-0.3-0.2-0.8-0.1-1,0.2C100.9,30,101,30.5,101.4,30.7z"/><path d="M101.4,24.3l9.2,6.1c0.1,0.1,0.3,0.1,0.4,0.1s0.3,0,0.4-0.1l9.2-6.1c0.3-0.2,0.4-0.7,0.2-1c-0.2-0.3-0.7-0.4-1-0.2   l-8.8,5.8l-8.8-5.8c-0.3-0.2-0.8-0.1-1,0.2C100.9,23.6,101,24.1,101.4,24.3z"/></g></svg>